<svg width="20" height="21" viewBox="0 0 20 21" fill="none" xmlns="http://www.w3.org/2000/svg">
<g clip-path="url(#clip0_9_401)">
<g clip-path="url(#clip1_9_401)">
<path fill-rule="evenodd" clip-rule="evenodd" d="M10.2442 5.26564C9.29886 5.26564 8.52937 6.05416 8.52937 7.02303C8.52937 7.34665 8.78486 7.60916 9.10097 7.60916C9.41658 7.60916 9.67258 7.34665 9.67258 7.02303C9.67258 6.7004 9.92907 6.4369 10.2442 6.4369C10.5598 6.4369 10.8158 6.7004 10.8158 7.02303V7.22442C10.818 7.68853 10.6378 8.13494 10.3138 8.46731L8.69669 10.1245C8.53266 10.2942 8.48415 10.5446 8.57296 10.7632C8.66163 10.9817 8.87003 11.1249 9.10097 11.1249H11.3874C11.703 11.1249 11.959 10.8624 11.959 10.5388C11.959 10.2152 11.7035 9.95268 11.3879 9.95268H10.4811L11.1224 9.29591C11.6623 8.74196 11.9628 7.99795 11.959 7.22442V7.02303C11.959 6.05416 11.19 5.26564 10.2442 5.26564ZM15.9602 5.26564C15.6446 5.26564 15.3891 5.52764 15.3891 5.85177V7.60916H14.2459V5.85127C14.2459 5.52764 13.9899 5.26514 13.6743 5.26514C13.3587 5.26514 13.1027 5.52764 13.1027 5.85127V8.19529C13.1027 8.51891 13.3582 8.78142 13.6738 8.78142H15.3891V10.5388C15.3891 10.8624 15.6446 11.1249 15.9602 11.1249C16.2763 11.1249 16.5323 10.8624 16.5323 10.5388V5.85127C16.5323 5.52764 16.2768 5.26514 15.9607 5.26514L15.9602 5.26564Z" fill="white"/>
<path fill-rule="evenodd" clip-rule="evenodd" d="M12.5306 0.5C9.90104 0.5 7.5445 1.96332 6.21944 4.10696L5.86075 3.27986C5.75106 3.01929 5.46634 2.87918 5.19296 2.95123L1.83649 3.85697C0.768933 4.13601 0.261455 5.27972 0.585079 6.35479C1.33402 8.8481 2.52783 11.8404 5.69894 15.1352L5.70144 15.1382L5.71948 15.1568L5.72248 15.1593C9.35248 18.8303 12.5882 19.8523 14.3266 20.4014C15.3761 20.732 16.4907 20.213 16.7633 19.1189L17.656 15.6893C17.7296 15.4133 17.595 15.1243 17.3364 15.003L16.5148 14.6277C18.6904 13.2117 20.0019 10.7912 20 8.19534C20 3.98722 16.6415 0.5 12.5306 0.5ZM15.6576 18.8198L15.6561 18.8273C15.5469 19.2682 15.082 19.4135 14.6632 19.2807C13.0186 18.7612 9.95715 17.7948 6.52654 14.3262L6.51151 14.3101C3.10995 10.7758 2.14258 7.55711 1.67718 6.00912C1.54844 5.5798 1.68971 5.10338 2.12004 4.99216L2.12505 4.99066L5.01362 4.21065L6.58765 7.84516C6.16434 8.27499 5.39034 9.06251 5.1579 9.3145C4.97565 9.51403 4.94997 9.81104 5.09528 10.0389C5.75254 11.0624 6.61921 12.1179 7.67174 13.1759C8.64362 14.1909 9.6731 15.0666 10.7326 15.778C10.9496 15.9232 11.2341 15.9012 11.4275 15.7244C11.685 15.4879 12.4545 14.6879 12.8743 14.249L16.4261 15.8696L15.6576 18.8198ZM15.2058 14.0306L12.976 13.0126C12.7569 12.9128 12.4985 12.9638 12.3337 13.1394C12.0532 13.4339 11.4039 14.1132 10.9841 14.5371C10.0827 13.8839 9.24309 13.1494 8.47579 12.3428C7.61413 11.4767 6.88723 10.6175 6.30962 9.7829C6.76201 9.31823 7.21622 8.85533 7.67224 8.39422C7.84107 8.22339 7.88916 7.96239 7.79248 7.73946L6.80157 5.45105C7.84458 3.18067 10.117 1.67176 12.5306 1.67176C16.0188 1.67176 18.8568 4.5984 18.8568 8.19534C18.8568 10.6967 17.4316 12.961 15.2058 14.0306Z" fill="white"/>
</g>
</g>
<defs>
<clipPath id="clip0_9_401">
<rect width="19.5116" height="20" fill="white" transform="translate(0.488464 0.5)"/>
</clipPath>
<clipPath id="clip1_9_401">
<rect width="19.5116" height="20" fill="white" transform="translate(0.488464 0.5)"/>
</clipPath>
</defs>
</svg>
