<svg width="16" height="16" viewBox="0 0 16 16" fill="none" xmlns="http://www.w3.org/2000/svg">
<g clip-path="url(#clip0_4436_245)">
<path d="M12.6667 2H3.33333C2.4496 2.00106 1.60237 2.35259 0.97748 2.97748C0.352588 3.60237 0.00105857 4.4496 0 5.33333H16C15.9989 4.4496 15.6474 3.60237 15.0225 2.97748C14.3976 2.35259 13.5504 2.00106 12.6667 2V2Z" fill="#727A90"/>
<path d="M0 10.6665C0.00105857 11.5502 0.352588 12.3975 0.97748 13.0223C1.60237 13.6472 2.4496 13.9988 3.33333 13.9998H12.6667C13.5504 13.9988 14.3976 13.6472 15.0225 13.0223C15.6474 12.3975 15.9989 11.5502 16 10.6665V6.6665H0V10.6665ZM4.66667 10.3332C4.66667 10.5309 4.60802 10.7243 4.49814 10.8887C4.38825 11.0532 4.23208 11.1814 4.04935 11.257C3.86662 11.3327 3.66556 11.3525 3.47158 11.3139C3.2776 11.2754 3.09941 11.1801 2.95956 11.0403C2.81971 10.9004 2.72447 10.7222 2.68588 10.5283C2.6473 10.3343 2.6671 10.1332 2.74279 9.95048C2.81847 9.76776 2.94665 9.61158 3.1111 9.5017C3.27555 9.39182 3.46889 9.33317 3.66667 9.33317C3.93188 9.33317 4.18624 9.43852 4.37377 9.62606C4.56131 9.8136 4.66667 10.0679 4.66667 10.3332" fill="#727A90"/>
</g>
<defs>
<clipPath id="clip0_4436_245">
<rect width="16" height="16" fill="white"/>
</clipPath>
</defs>
</svg>
