<svg width="16" height="16" viewBox="0 0 16 16" fill="none" xmlns="http://www.w3.org/2000/svg">
<g clip-path="url(#clip0_4436_195)">
<path d="M10.0001 0H6.00008C5.11635 0.00105857 4.26912 0.352588 3.64423 0.97748C3.01934 1.60237 2.66781 2.4496 2.66675 3.33333V10.6667H13.3334V3.33333C13.3324 2.4496 12.9808 1.60237 12.3559 0.97748C11.731 0.352588 10.8838 0.00105857 10.0001 0V0Z" fill="#727A90"/>
<path d="M2.66675 12.6667C2.66781 13.5504 3.01934 14.3976 3.64423 15.0225C4.26912 15.6474 5.11635 15.9989 6.00008 16H10.0001C10.8838 15.9989 11.731 15.6474 12.3559 15.0225C12.9808 14.3976 13.3324 13.5504 13.3334 12.6667V12H2.66675V12.6667ZM8.00008 13.3333C8.13194 13.3333 8.26083 13.3724 8.37046 13.4457C8.48009 13.5189 8.56554 13.6231 8.616 13.7449C8.66646 13.8667 8.67966 14.0007 8.65394 14.1301C8.62821 14.2594 8.56472 14.3782 8.47149 14.4714C8.37825 14.5646 8.25946 14.6281 8.13014 14.6539C8.00082 14.6796 7.86678 14.6664 7.74496 14.6159C7.62314 14.5655 7.51902 14.48 7.44577 14.3704C7.37251 14.2607 7.33341 14.1319 7.33341 14C7.33341 13.8232 7.40365 13.6536 7.52868 13.5286C7.6537 13.4036 7.82327 13.3333 8.00008 13.3333V13.3333Z" fill="#727A90"/>
</g>
<defs>
<clipPath id="clip0_4436_195">
<rect width="16" height="16" fill="white"/>
</clipPath>
</defs>
</svg>
