<svg width="70" height="57" viewBox="0 0 70 57" fill="none" xmlns="http://www.w3.org/2000/svg">
<path d="M64.4162 11.0247L58.6266 5.23516L52.837 11.0247L58.6266 16.8143L64.4162 11.0247Z" stroke="#0F2837" stroke-miterlimit="10"/>
<path d="M62.8193 11.0247L58.6266 6.83204L54.4339 11.0247L58.6266 15.2174L62.8193 11.0247Z" stroke="#0F2837" stroke-miterlimit="10"/>
<path d="M61.0826 11.0247L58.6266 8.56872L56.1706 11.0247L58.6266 13.4808L61.0826 11.0247Z" stroke="#0F2837" stroke-miterlimit="10"/>
<path d="M58.7244 9.82513C61.1254 9.82513 63.0719 7.87868 63.0719 5.47761C63.0719 3.07654 61.1254 1.13009 58.7244 1.13009C56.3233 1.13009 54.3768 3.07654 54.3768 5.47761C54.3768 7.87868 56.3233 9.82513 58.7244 9.82513Z" stroke="#6E1946" stroke-miterlimit="10"/>
<path d="M58.7244 21.4393C61.1254 21.4393 63.0719 19.4929 63.0719 17.0918C63.0719 14.6907 61.1254 12.7443 58.7244 12.7443C56.3233 12.7443 54.3768 14.6907 54.3768 17.0918C54.3768 19.4929 56.3233 21.4393 58.7244 21.4393Z" stroke="#6E1946" stroke-miterlimit="10"/>
<path d="M52.9147 15.6322C55.3157 15.6322 57.2622 13.6858 57.2622 11.2847C57.2622 8.88364 55.3157 6.93719 52.9147 6.93719C50.5136 6.93719 48.5671 8.88364 48.5671 11.2847C48.5671 13.6858 50.5136 15.6322 52.9147 15.6322Z" stroke="#FF9619" stroke-miterlimit="10"/>
<path d="M64.5315 15.6322C66.9325 15.6322 68.879 13.6858 68.879 11.2847C68.879 8.88364 66.9325 6.93719 64.5315 6.93719C62.1304 6.93719 60.184 8.88364 60.184 11.2847C60.184 13.6858 62.1304 15.6322 64.5315 15.6322Z" stroke="#91B9B4" stroke-miterlimit="10"/>
<path d="M20.1352 56.9974C31.1247 56.9974 40.0334 48.0887 40.0334 37.0992C40.0334 26.1098 31.1247 17.2011 20.1352 17.2011C9.14577 17.2011 0.237061 26.1098 0.237061 37.0992C0.237061 48.0887 9.14577 56.9974 20.1352 56.9974Z" fill="#0F2837"/>
<path d="M27.0428 20.6796C26.7202 20.357 26.1973 20.357 25.8746 20.6796L1.77466 44.7796C2.31322 46.0675 2.98707 47.2851 3.7728 48.4168L28.6949 23.4947C29.0175 23.1721 29.0175 22.6491 28.6949 22.3265L27.0454 20.677L27.0428 20.6796Z" fill="#91B9B4"/>
<path fill-rule="evenodd" clip-rule="evenodd" d="M46.4857 17.1516L42.0185 12.6844C41.6959 12.3618 41.1729 12.3618 40.8503 12.6844L37.7308 15.8039L43.3662 21.4393L46.4857 18.3198C46.8083 17.9972 46.8083 17.4743 46.4857 17.1516ZM36.7004 16.8401L19.1072 34.4333L24.7423 40.0683L42.3354 22.4751L36.7004 16.8401ZM14.8615 38.6759L18.072 35.4653L18.0746 35.4679L23.71 41.1033L20.4995 44.3139C20.1768 44.6365 19.6539 44.6365 19.3313 44.3139L14.8615 39.8441C14.5389 39.5215 14.5389 38.9985 14.8615 38.6759Z" fill="#6E1946"/>
<path fill-rule="evenodd" clip-rule="evenodd" d="M36.9165 30.5532C36.5939 30.2306 36.071 30.2306 35.7483 30.5532L32.7832 33.5184L38.4186 39.1538L41.3837 36.1886C41.7063 35.866 41.7063 35.343 41.3837 35.0204L36.9165 30.5532ZM31.9552 34.3464L32.2203 34.0813L37.8556 39.7167L37.5905 39.9818L31.9552 34.3464ZM31.3922 34.9094L11.3466 54.955C13.9977 56.2611 16.9793 57 20.1327 57C20.2336 57 20.3334 56.9977 20.4328 56.9953H20.4329C20.4821 56.9942 20.5311 56.993 20.5802 56.9922L37.0276 40.5447L31.3922 34.9094Z" fill="#6E1946"/>
<path fill-rule="evenodd" clip-rule="evenodd" d="M26.1738 8.52425C25.8512 8.20163 25.3283 8.20163 25.0056 8.52425L22.5261 11.0038L28.1628 16.6404L30.6436 14.1596C30.9663 13.837 30.9663 13.3141 30.6436 12.9914L26.1738 8.52165V8.52425ZM21.6979 11.832L21.9632 11.5667L27.5999 17.2034L27.3345 17.4687L21.6979 11.832ZM21.1349 12.395L0.69493 32.835C0.408738 34.1463 0.252633 35.507 0.239624 36.9015L3.4866 40.1485C3.80922 40.4711 4.33217 40.4711 4.65479 40.1485L26.7716 18.0317L21.1349 12.395Z" fill="#FF9619"/>
</svg>
