<svg width="48" height="49" viewBox="0 0 48 49" fill="none" xmlns="http://www.w3.org/2000/svg">
<path d="M20.6529 48.715C31.6423 48.715 40.551 39.8063 40.551 28.8169C40.551 17.8274 31.6423 8.9187 20.6529 8.9187C9.66341 8.9187 0.7547 17.8274 0.7547 28.8169C0.7547 39.8063 9.66341 48.715 20.6529 48.715Z" fill="#0F2837"/>
<path d="M27.5605 12.3972C27.2378 12.0746 26.7149 12.0746 26.3923 12.3972L2.2923 36.4972C2.83086 37.7851 3.50471 39.0027 4.29044 40.1345L29.2126 15.2123C29.5352 14.8897 29.5352 14.3668 29.2126 14.0441L27.5631 12.3946L27.5605 12.3972Z" fill="#91B9B4"/>
<path fill-rule="evenodd" clip-rule="evenodd" d="M47.0033 8.86932L42.5361 4.40212C42.2135 4.0795 41.6906 4.0795 41.3679 4.40212L38.2485 7.52161L43.8838 13.157L47.0033 10.0375C47.3259 9.71489 47.3259 9.19193 47.0033 8.86932ZM37.218 8.55777L19.6249 26.1509L25.2599 31.786L42.8531 14.1928L37.218 8.55777ZM15.3791 30.3936L18.5897 27.183L18.5923 27.1856L24.2277 32.821L21.0171 36.0316C20.6945 36.3542 20.1715 36.3542 19.8489 36.0316L15.3791 31.5618C15.0565 31.2391 15.0565 30.7162 15.3791 30.3936Z" fill="#6E1946"/>
<path fill-rule="evenodd" clip-rule="evenodd" d="M37.4342 22.271L37.4339 22.2707L37.4333 22.2701C37.1106 21.9484 36.5883 21.9487 36.266 22.271L33.3008 25.2362L38.9362 30.8715L41.9014 27.9064C42.224 27.5838 42.224 27.0608 41.9014 26.7382L37.4342 22.271ZM32.4728 26.0642L32.7379 25.7991L38.3733 31.4345L38.1082 31.6996L32.4728 26.0642ZM31.9098 26.6271L11.8642 46.6728C14.5154 47.9789 17.497 48.7178 20.6503 48.7178C20.7513 48.7178 20.8511 48.7154 20.9505 48.7131H20.9505C20.9997 48.712 21.0487 48.7108 21.0978 48.71L37.5452 32.2625L31.9098 26.6271Z" fill="#6E1946"/>
<path fill-rule="evenodd" clip-rule="evenodd" d="M26.6915 0.241962C26.3689 -0.0806542 25.8459 -0.0806542 25.5233 0.241962L23.0438 2.72147L28.6805 8.35815L31.1613 5.87735C31.4839 5.55473 31.4839 5.03178 31.1613 4.70916L26.6915 0.239361V0.241962ZM22.2155 3.54976L22.4808 3.28442L28.1175 8.9211L27.8522 9.18644L22.2155 3.54976ZM21.6525 4.11271L1.21257 24.5527C0.926377 25.864 0.770272 27.2247 0.757263 28.6192L4.00424 31.8662C4.32686 32.1888 4.84981 32.1888 5.17243 31.8662L27.2892 9.74939L21.6525 4.11271Z" fill="#FF9619"/>
</svg>
