<svg width="141" height="77" viewBox="0 0 141 77" fill="none" xmlns="http://www.w3.org/2000/svg">
<path fill-rule="evenodd" clip-rule="evenodd" d="M63.7358 47.8096C63.7358 55.4718 69.9644 61.7745 77.6654 61.7745C85.3276 61.7745 91.5173 55.4753 91.5173 47.8096C91.5173 40.1439 85.4441 33.6152 77.6654 33.6152C69.8867 33.6152 63.7358 40.1475 63.7358 47.8096ZM67.0585 47.8061C67.0585 41.92 71.7016 36.8602 77.6654 36.8602C83.6292 36.8602 88.2335 41.9553 88.2335 47.8061C88.2335 53.6569 83.555 58.526 77.6654 58.526C71.7758 58.526 67.0585 53.6922 67.0585 47.8061ZM97.3645 42.1071C97.3645 39.2789 99.5184 36.786 102.424 36.786C104.349 36.786 105.782 37.7288 106.916 39.2012V35.0876C105.408 34.1449 104.162 33.6152 102.311 33.6152C97.6293 33.6152 94.2714 37.6546 94.2714 42.1848C94.2714 46.2146 96.3267 47.9358 98.2654 49.5593C99.9958 51.0085 101.633 52.3798 101.633 55.2458C101.633 58.0388 100.274 59.8501 98.0107 61.2837H102.576C104.01 59.7371 104.727 57.1313 104.727 55.0551C104.727 50.6901 102.557 48.9281 100.573 47.3172C98.9027 45.9611 97.3645 44.7121 97.3645 42.1071ZM123.79 57.7351C122.47 60.2279 120.203 61.7745 117.336 61.7745C114.73 61.7745 111.901 60.1503 110.842 57.7351C109.974 55.7719 109.974 53.5827 109.974 51.5065V51.5065V34.106H113.105V51.5454C113.105 51.6404 113.105 51.7373 113.105 51.8359C113.103 53.3056 113.1 55.1452 113.596 56.4887C114.161 57.9611 115.824 58.752 117.332 58.752C118.84 58.752 120.429 57.9964 121.032 56.4887C121.554 55.1188 121.541 53.6646 121.527 52.224L121.527 52.223C121.525 51.9967 121.523 51.7707 121.523 51.5454V34.106H124.655V52.1103C124.655 52.3075 124.656 52.5014 124.657 52.6922C124.667 54.5106 124.675 56.0606 123.787 57.7351H123.79ZM131.449 42.1071C131.449 39.2789 133.603 36.786 136.509 36.786C138.433 36.786 139.866 37.7288 141 39.2012V35.0876C139.492 34.1449 138.246 33.6152 136.396 33.6152C131.714 33.6152 128.356 37.6546 128.356 42.1848C128.356 46.2146 130.411 47.9358 132.35 49.5593C134.08 51.0085 135.718 52.3798 135.718 55.2458C135.718 58.0388 134.358 59.8501 132.095 61.2837H136.66C138.094 59.7371 138.811 57.1313 138.811 55.0551C138.811 50.6901 136.641 48.9281 134.657 47.3172C132.987 45.9611 131.449 44.7121 131.449 42.1071Z" fill="white"/>
<path d="M87.2792 14.6053L79.4219 6.74805L71.5646 14.6053L79.4219 22.4626L87.2792 14.6053Z" stroke="white" stroke-miterlimit="10"/>
<path d="M85.112 14.6051L79.4219 8.91504L73.7318 14.6051L79.4219 20.2952L85.112 14.6051Z" stroke="white" stroke-miterlimit="10"/>
<path d="M82.755 14.6051L79.4219 11.272L76.0887 14.6051L79.4219 17.9383L82.755 14.6051Z" stroke="white" stroke-miterlimit="10"/>
<path d="M79.5546 12.9772C82.8132 12.9772 85.4548 10.3356 85.4548 7.07696C85.4548 3.81837 82.8132 1.17676 79.5546 1.17676C76.296 1.17676 73.6544 3.81837 73.6544 7.07696C73.6544 10.3356 76.296 12.9772 79.5546 12.9772Z" stroke="#6E1946" stroke-miterlimit="10"/>
<path d="M79.5546 28.7394C82.8132 28.7394 85.4548 26.0978 85.4548 22.8392C85.4548 19.5806 82.8132 16.939 79.5546 16.939C76.296 16.939 73.6544 19.5806 73.6544 22.8392C73.6544 26.0978 76.296 28.7394 79.5546 28.7394Z" stroke="#6E1946" stroke-miterlimit="10"/>
<path d="M71.67 20.858C74.9286 20.858 77.5702 18.2164 77.5702 14.9578C77.5702 11.6992 74.9286 9.05762 71.67 9.05762C68.4114 9.05762 65.7698 11.6992 65.7698 14.9578C65.7698 18.2164 68.4114 20.858 71.67 20.858Z" stroke="#FF9619" stroke-miterlimit="10"/>
<path d="M87.4356 20.858C90.6942 20.858 93.3358 18.2164 93.3358 14.9578C93.3358 11.6992 90.6942 9.05762 87.4356 9.05762C84.177 9.05762 81.5354 11.6992 81.5354 14.9578C81.5354 18.2164 84.177 20.858 87.4356 20.858Z" stroke="#91B9B4" stroke-miterlimit="10"/>
<path fill-rule="evenodd" clip-rule="evenodd" d="M82.4605 69.5534V69.5675C82.4711 69.9135 82.3758 70.1819 82.1745 70.3725C81.9733 70.5632 81.7014 70.6585 81.3518 70.6585C81.0022 70.6585 80.7056 70.542 80.4903 70.3125C80.2749 70.083 80.1689 69.7582 80.1689 69.3415V68.367C80.1689 67.9503 80.2749 67.629 80.4867 67.3959C80.6986 67.1629 80.9811 67.0464 81.3377 67.0464C81.6943 67.0464 81.9768 67.1382 82.1781 67.3253C82.3793 67.5125 82.4782 67.7808 82.4711 68.141V68.1551H81.9944C81.9944 67.9044 81.9379 67.7208 81.832 67.6007C81.7226 67.4807 81.5601 67.4242 81.3412 67.4242C81.1223 67.4242 80.9599 67.5054 80.8398 67.6678C80.7233 67.8303 80.6633 68.0633 80.6633 68.3634V69.345C80.6633 69.6522 80.7233 69.8853 80.8434 70.0477C80.9634 70.2101 81.1364 70.2913 81.3553 70.2913C81.5743 70.2913 81.7261 70.2313 81.832 70.1148C81.9379 69.9983 81.9909 69.8111 81.9909 69.5534H82.4605ZM85.363 69.3415C85.363 69.7581 85.25 70.083 85.024 70.316C84.798 70.5491 84.4979 70.6656 84.1201 70.6656C83.7423 70.6656 83.4492 70.5491 83.2303 70.316C83.0114 70.083 82.8984 69.7581 82.8984 69.3415V68.3776C82.8984 67.9609 83.0078 67.6361 83.2303 67.403C83.4527 67.17 83.7458 67.0499 84.1201 67.0499C84.4944 67.0499 84.8015 67.1664 85.0275 67.403C85.2535 67.6361 85.3665 67.9609 85.3665 68.3776V69.3415H85.363ZM84.8757 68.367C84.8757 68.0598 84.8086 67.8303 84.678 67.6714C84.5473 67.5125 84.3602 67.4348 84.1165 67.4348C83.8729 67.4348 83.6999 67.5125 83.5763 67.6714C83.4492 67.8303 83.3856 68.0633 83.3856 68.367V69.338C83.3856 69.6487 83.4492 69.8817 83.5763 70.0406C83.7034 70.1995 83.8835 70.2807 84.1201 70.2807C84.3566 70.2807 84.5509 70.203 84.6815 70.0442C84.8121 69.8853 84.8757 69.6522 84.8757 69.3415V68.3705V68.367ZM87.418 69.9664H87.4074L86.567 67.0993H85.9279V70.6126H86.4152V68.0386H86.4293L87.2485 70.6126H87.5839L88.389 68.0809H88.4031V70.6126H88.8904V67.0993H88.2619L87.418 69.9664ZM91.0125 69.9664H91.0231L91.867 67.0993H92.4955V70.6126H92.0082V68.0809H91.9941L91.189 70.6126H90.8536L90.0344 68.0386H90.0203V70.6126H89.533V67.0993H90.1721L91.0125 69.9664ZM95.4509 69.4192V67.0958H94.9601V69.4192C94.9601 69.6911 94.8965 69.9064 94.7694 70.0583C94.6423 70.2101 94.4728 70.2878 94.2715 70.2878C94.0703 70.2878 93.9114 70.2136 93.7878 70.0583C93.6642 69.9029 93.6042 69.6911 93.6042 69.4192V67.0958H93.1134V69.4192C93.1134 69.8076 93.2193 70.1112 93.4347 70.3302C93.6501 70.5491 93.922 70.6585 94.2715 70.6585C94.6211 70.6585 94.9036 70.5491 95.1225 70.3302C95.3414 70.1112 95.4509 69.8076 95.4509 69.4192ZM98.4345 70.6126H97.9437L96.5808 68.0209H96.5667V70.6126H96.0758V67.0993H96.5667L97.9296 69.684H97.9437V67.0993H98.4345V70.6126ZM99.1478 70.6126H99.6385V67.0993H99.1478V70.6126ZM102.389 67.4736H101.457V70.6126H100.966V67.4736H100.041V67.0958H102.389V67.4736ZM103.876 68.8118H103.862H103.858L103.124 67.0993H102.58L103.614 69.3132V70.6126H104.105V69.3485L105.161 67.0993H104.61L103.876 68.8118ZM108.258 69.7281C108.257 69.5665 108.211 69.4365 108.12 69.3344C108.028 69.232 107.866 69.1367 107.636 69.052C107.308 68.9496 107.054 68.8154 106.877 68.653C106.7 68.4905 106.612 68.2752 106.612 68.0033C106.612 67.7314 106.711 67.4983 106.905 67.3183C107.099 67.1382 107.35 67.0499 107.657 67.0499C107.982 67.0499 108.243 67.1488 108.438 67.35C108.632 67.5513 108.731 67.7985 108.724 68.1021V68.1163H108.247C108.247 67.9115 108.191 67.7455 108.085 67.6149C107.979 67.4842 107.83 67.4242 107.654 67.4242C107.477 67.4242 107.347 67.4807 107.248 67.5866C107.152 67.6961 107.103 67.8338 107.103 67.9962C107.103 68.148 107.152 68.2752 107.255 68.374C107.357 68.4729 107.527 68.5682 107.767 68.6565C108.088 68.7624 108.332 68.8966 108.498 69.0661C108.664 69.2356 108.748 69.4545 108.748 69.7228C108.748 70.0088 108.65 70.2384 108.452 70.4078C108.254 70.5773 107.996 70.6621 107.675 70.6621C107.354 70.6621 107.096 70.5703 106.87 70.3867C106.644 70.203 106.531 69.9418 106.538 69.5957V69.5816H107.015C107.015 69.8182 107.078 69.9983 107.205 70.1148C107.332 70.2313 107.488 70.2913 107.675 70.2913C107.862 70.2913 108 70.2419 108.102 70.1395C108.204 70.0374 108.257 69.9003 108.258 69.7281ZM109.783 68.9813H110.976V68.6106H109.783V67.4771H111.174V67.0993H109.292V70.6126H111.188V70.2419H109.783V68.9813ZM112.17 69.0978V70.6126H111.679V67.0993H112.714C113.053 67.0993 113.314 67.1841 113.497 67.3571C113.681 67.5301 113.773 67.7773 113.773 68.0986C113.773 68.2822 113.731 68.4411 113.642 68.5788C113.558 68.7165 113.434 68.8224 113.272 68.9001C113.452 68.9601 113.582 69.0625 113.66 69.2038C113.738 69.345 113.78 69.5215 113.78 69.7299V70.0371C113.78 70.1465 113.791 70.2454 113.812 70.3372C113.833 70.429 113.868 70.5032 113.921 70.5561V70.6126H113.416C113.36 70.5596 113.324 70.4784 113.31 70.369C113.293 70.2595 113.286 70.1501 113.286 70.0335V69.7369C113.286 69.5392 113.24 69.3838 113.148 69.2709C113.056 69.1579 112.933 69.0978 112.77 69.0978H112.17ZM112.17 68.7236H112.692C112.894 68.7236 113.046 68.6706 113.141 68.5611C113.236 68.4552 113.286 68.3034 113.286 68.1056C113.286 67.9079 113.24 67.749 113.144 67.636C113.049 67.5266 112.908 67.4701 112.717 67.4701H112.173V68.72L112.17 68.7236ZM115.397 70.0194L115.348 69.804H115.344L114.613 67.0958H114.091L115.164 70.6091H115.641L116.714 67.0958H116.192L115.461 69.8076L115.411 70.0194H115.397ZM117.636 70.6126H117.145V67.0993H117.636V70.6126ZM120.552 69.5675V69.5534H120.083C120.083 69.8111 120.03 69.9983 119.924 70.1148C119.818 70.2313 119.666 70.2913 119.447 70.2913C119.228 70.2913 119.055 70.2101 118.935 70.0477C118.815 69.8853 118.755 69.6522 118.755 69.345V68.3634C118.755 68.0633 118.815 67.8303 118.932 67.6678C119.052 67.5054 119.214 67.4242 119.433 67.4242C119.652 67.4242 119.814 67.4807 119.924 67.6007C120.03 67.7208 120.086 67.9044 120.086 68.1551H120.563V68.141C120.57 67.7808 120.471 67.5125 120.27 67.3253C120.069 67.1382 119.786 67.0464 119.429 67.0464C119.073 67.0464 118.79 67.1629 118.579 67.3959C118.367 67.629 118.261 67.9503 118.261 68.367V69.3415C118.261 69.7582 118.367 70.083 118.582 70.3125C118.797 70.542 119.094 70.6585 119.444 70.6585C119.793 70.6585 120.065 70.5632 120.266 70.3725C120.468 70.1819 120.563 69.9135 120.552 69.5675ZM122.77 68.9813H121.576V70.2419H122.982V70.6126H121.085V67.0993H122.967V67.4771H121.576V68.6106H122.77V68.9813ZM124.941 69.3344C125.033 69.4365 125.079 69.5665 125.079 69.7281C125.079 69.9003 125.026 70.0374 124.924 70.1395C124.821 70.2419 124.684 70.2913 124.496 70.2913C124.309 70.2913 124.154 70.2313 124.027 70.1148C123.9 69.9983 123.836 69.8182 123.836 69.5816H123.359V69.5957C123.352 69.9418 123.465 70.203 123.691 70.3867C123.917 70.5703 124.175 70.6621 124.496 70.6621C124.818 70.6621 125.075 70.5773 125.273 70.4078C125.471 70.2384 125.57 70.0088 125.57 69.7228C125.57 69.4545 125.485 69.2356 125.319 69.0661C125.153 68.8966 124.91 68.7624 124.588 68.6565C124.348 68.5682 124.179 68.4729 124.076 68.374C123.974 68.2752 123.924 68.148 123.924 67.9962C123.924 67.8338 123.974 67.6961 124.069 67.5866C124.168 67.4807 124.299 67.4242 124.475 67.4242C124.652 67.4242 124.8 67.4842 124.906 67.6149C125.012 67.7455 125.068 67.9115 125.068 68.1163H125.545V68.1021C125.552 67.7985 125.453 67.5513 125.259 67.35C125.065 67.1488 124.804 67.0499 124.479 67.0499C124.172 67.0499 123.921 67.1382 123.727 67.3183C123.532 67.4983 123.434 67.7314 123.434 68.0033C123.434 68.2752 123.522 68.4905 123.698 68.653C123.875 68.8154 124.129 68.9496 124.458 69.052C124.687 69.1367 124.849 69.232 124.941 69.3344Z" fill="white"/>
<path d="M64.4491 69.1294H74.9395" stroke="white" stroke-miterlimit="10"/>
<path d="M27.1836 76.9966C42.0979 76.9966 54.1882 64.9062 54.1882 49.9919C54.1882 35.0777 42.0979 22.9873 27.1836 22.9873C12.2693 22.9873 0.178955 35.0777 0.178955 49.9919C0.178955 64.9062 12.2693 76.9966 27.1836 76.9966Z" fill="white"/>
<path d="M36.5582 27.7083C36.1204 27.2704 35.4107 27.2704 34.9729 27.7083L2.26575 60.4154C2.99665 62.1632 3.91117 63.8157 4.97751 65.3516L38.8004 31.5287C39.2382 31.0909 39.2382 30.3812 38.8004 29.9433L36.5618 27.7047L36.5582 27.7083Z" fill="#91B9B4"/>
<path fill-rule="evenodd" clip-rule="evenodd" d="M62.945 22.9203L56.8823 16.8577C56.4445 16.4198 55.7348 16.4198 55.2969 16.8577L51.0633 21.0913L58.7114 28.7393L62.945 24.5057C63.3828 24.0679 63.3828 23.3581 62.945 22.9203ZM49.6649 22.4975L25.7885 46.3739L33.436 54.0215L57.3125 30.145L49.6649 22.4975ZM20.0264 52.1318L24.3836 47.7746L24.3871 47.7781L32.0351 55.4262L27.6779 59.7833C27.2401 60.2212 26.5304 60.2212 26.0925 59.7833L20.0264 53.7172C19.5885 53.2793 19.5885 52.5696 20.0264 52.1318Z" fill="#6E1946"/>
<path fill-rule="evenodd" clip-rule="evenodd" d="M49.9582 41.1082C49.5204 40.6703 48.8106 40.6703 48.3728 41.1082L44.3487 45.1323L51.9967 52.7803L56.0208 48.7562C56.4587 48.3183 56.4587 47.6086 56.0208 47.1708L49.9582 41.1082ZM43.2249 46.256L43.5847 45.8963L51.2327 53.5443L50.8729 53.9041L43.2249 46.256ZM42.4609 47.0201L15.2561 74.2249C18.8541 75.9974 22.9006 77.0002 27.1801 77.0002C27.3171 77.0002 27.4526 76.997 27.5875 76.9939L27.5877 76.9939C27.6543 76.9923 27.7209 76.9908 27.7874 76.9896L50.1089 54.6681L42.4609 47.0201Z" fill="#6E1946"/>
<path fill-rule="evenodd" clip-rule="evenodd" d="M35.3788 11.2117C34.941 10.7738 34.2312 10.7738 33.7934 11.2117L30.4284 14.5767L38.0782 22.2265L41.445 18.8597C41.8828 18.4219 41.8828 17.7121 41.445 17.2743L35.3788 11.2081V11.2117ZM29.3043 15.7008L29.6644 15.3407L37.3141 22.9905L36.954 23.3506L29.3043 15.7008ZM28.5403 16.4648L0.800288 44.2048C0.411884 45.9844 0.200028 47.8311 0.182373 49.7237L4.58899 54.1303C5.02682 54.5681 5.73654 54.5681 6.17438 54.1303L36.19 24.1146L28.5403 16.4648Z" fill="#FF9619"/>
<path d="M130.513 69.1294H141" stroke="white" stroke-miterlimit="10"/>
</svg>
