<svg width="686" height="330" viewBox="0 0 686 330" fill="none" xmlns="http://www.w3.org/2000/svg">
<g opacity="0.08">
<path d="M534.471 334.049L339.597 139.174L144.722 334.049L339.597 528.923L534.471 334.049Z" stroke="white" stroke-width="3" stroke-miterlimit="10"/>
<path d="M480.721 334.049L339.597 192.924L198.472 334.049L339.597 475.173L480.721 334.049Z" stroke="white" stroke-width="3" stroke-miterlimit="10"/>
<path d="M422.265 334.049L339.597 251.381L256.928 334.049L339.597 416.718L422.265 334.049Z" stroke="white" stroke-width="3" stroke-miterlimit="10"/>
<path d="M342.887 293.671C423.706 293.671 489.223 228.154 489.223 147.335C489.223 66.5166 423.706 1 342.887 1C262.068 1 196.552 66.5166 196.552 147.335C196.552 228.154 262.068 293.671 342.887 293.671Z" stroke="white" stroke-miterlimit="10"/>
<path d="M147.336 489.135C228.154 489.135 293.671 423.618 293.671 342.799C293.671 261.98 228.154 196.464 147.336 196.464C66.5167 196.464 1 261.98 1 342.799C1 423.618 66.5167 489.135 147.336 489.135Z" stroke="white" stroke-miterlimit="10"/>
<path d="M538.352 489.135C619.171 489.135 684.688 423.618 684.688 342.799C684.688 261.98 619.171 196.464 538.352 196.464C457.534 196.464 392.017 261.98 392.017 342.799C392.017 423.618 457.534 489.135 538.352 489.135Z" stroke="white" stroke-miterlimit="10"/>
</g>
</svg>
