<svg width="64" height="64" viewBox="0 0 64 64" fill="none" xmlns="http://www.w3.org/2000/svg">
<path d="M26 56C22.3263 55.9986 18.702 55.1539 15.4063 53.5309C12.1106 51.9079 9.23142 49.5501 6.99065 46.6389C4.74988 43.7278 3.20732 40.3411 2.48181 36.7398C1.7563 33.1385 1.8672 29.4187 2.80598 25.867C3.74476 22.3153 5.48635 19.0265 7.89658 16.254C10.3068 13.4816 13.3213 11.2994 16.7079 9.87565C20.0944 8.45192 23.7626 7.82462 27.4299 8.04209C31.0971 8.25956 34.6654 9.316 37.86 11.13C37.9742 11.1949 38.0745 11.2817 38.1551 11.3854C38.2357 11.4891 38.2952 11.6077 38.33 11.7343C38.3648 11.861 38.3743 11.9933 38.358 12.1236C38.3417 12.254 38.2999 12.3798 38.235 12.494C38.1701 12.6082 38.0833 12.7085 37.9796 12.7891C37.8759 12.8697 37.7573 12.9292 37.6307 12.964C37.3749 13.0343 37.1016 13.0002 36.871 12.869C33.5392 10.9772 29.7711 9.98838 25.9397 10.0003C22.1083 10.0123 18.3465 11.0247 15.0265 12.9372C11.7066 14.8498 8.94373 17.5962 7.01137 20.9046C5.07901 24.213 4.04418 27.9688 4.00931 31.8C3.97444 35.6313 4.94074 39.4052 6.81257 42.7483C8.68439 46.0913 11.3968 48.8876 14.6814 50.8602C17.966 52.8329 21.7088 53.9135 25.5393 53.9952C29.3698 54.0769 33.1553 53.1568 36.521 51.326C36.7539 51.199 37.0276 51.1696 37.2821 51.2445C37.4081 51.2815 37.5256 51.343 37.6279 51.4255C37.7301 51.5079 37.8151 51.6097 37.878 51.725C37.9409 51.8403 37.9805 51.9669 37.9945 52.0975C38.0085 52.2281 37.9966 52.3601 37.9595 52.4861C37.9225 52.6121 37.861 52.7296 37.7785 52.8319C37.6961 52.9341 37.5943 53.0191 37.479 53.082C33.956 54.9971 30.0098 56.0003 26 56Z" fill="#6E1946"/>
<path d="M26 56C16.626 56 9 45.233 9 32C9 18.767 16.626 8 26 8C29.92 8 33.739 9.914 36.755 13.39C36.9192 13.5915 36.9985 13.8489 36.9761 14.1078C36.9537 14.3667 36.8314 14.6068 36.6351 14.7771C36.4388 14.9474 36.1839 15.0346 35.9244 15.0202C35.665 15.0058 35.4213 14.891 35.245 14.7C32.576 11.625 29.38 10 26 10C17.729 10 11 19.869 11 32C11 44.131 17.729 54 26 54C26.2652 54 26.5196 54.1054 26.7071 54.2929C26.8946 54.4804 27 54.7348 27 55C27 55.2652 26.8946 55.5196 26.7071 55.7071C26.5196 55.8946 26.2652 56 26 56Z" fill="#6E1946"/>
<path d="M26 56C20.8 56 18 43.635 18 32C18 20.365 20.8 8 26 8C27.431 8 29.51 8.979 31.292 13.643C31.3424 13.7664 31.3677 13.8986 31.3663 14.0319C31.3649 14.1652 31.3369 14.2969 31.2839 14.4192C31.2309 14.5415 31.1539 14.6519 31.0576 14.7441C30.9613 14.8362 30.8475 14.9082 30.723 14.9557C30.5984 15.0032 30.4657 15.0254 30.3324 15.0209C30.1992 15.0163 30.0682 14.9852 29.9472 14.9294C29.8262 14.8735 29.7176 14.794 29.6277 14.6955C29.5379 14.5971 29.4686 14.4816 29.424 14.356C28.381 11.628 27.1 10 26 10C23.5 10 20 18.37 20 32C20 45.63 23.5 54 26 54C28.04 54 30.722 48.709 31.675 38.9C31.6848 38.767 31.721 38.6374 31.7817 38.5186C31.8423 38.3999 31.926 38.2945 32.028 38.2086C32.13 38.1227 32.2481 38.058 32.3754 38.0184C32.5027 37.9788 32.6366 37.9651 32.7693 37.978C32.902 37.991 33.0308 38.0303 33.1481 38.0937C33.2653 38.1572 33.3687 38.2434 33.4522 38.3474C33.5356 38.4514 33.5975 38.571 33.634 38.6992C33.6705 38.8274 33.6811 38.9617 33.665 39.094C32.872 47.268 30.441 56 26 56Z" fill="#6E1946"/>
<path d="M26 22H6C5.73478 22 5.48043 21.8946 5.29289 21.7071C5.10536 21.5196 5 21.2652 5 21C5 20.7348 5.10536 20.4804 5.29289 20.2929C5.48043 20.1054 5.73478 20 6 20H26C26.2652 20 26.5196 20.1054 26.7071 20.2929C26.8946 20.4804 27 20.7348 27 21C27 21.2652 26.8946 21.5196 26.7071 21.7071C26.5196 21.8946 26.2652 22 26 22Z" fill="#6E1946"/>
<path d="M32 44H6C5.73478 44 5.48043 43.8946 5.29289 43.7071C5.10536 43.5196 5 43.2652 5 43C5 42.7348 5.10536 42.4804 5.29289 42.2929C5.48043 42.1054 5.73478 42 6 42H32C32.2652 42 32.5196 42.1054 32.7071 42.2929C32.8946 42.4804 33 42.7348 33 43C33 43.2652 32.8946 43.5196 32.7071 43.7071C32.5196 43.8946 32.2652 44 32 44Z" fill="#6E1946"/>
<path d="M26 33H3C2.73478 33 2.48043 32.8946 2.29289 32.7071C2.10536 32.5196 2 32.2652 2 32C2 31.7348 2.10536 31.4804 2.29289 31.2929C2.48043 31.1054 2.73478 31 3 31H26C26.2652 31 26.5196 31.1054 26.7071 31.2929C26.8946 31.4804 27 31.7348 27 32C27 32.2652 26.8946 32.5196 26.7071 32.7071C26.5196 32.8946 26.2652 33 26 33Z" fill="#6E1946"/>
<path d="M34 23H30C29.7348 23 29.4804 22.8946 29.2929 22.7071C29.1054 22.5196 29 22.2652 29 22V18C29 17.7348 29.1054 17.4804 29.2929 17.2929C29.4804 17.1054 29.7348 17 30 17H34C34.2652 17 34.5196 17.1054 34.7071 17.2929C34.8946 17.4804 35 17.7348 35 18V22C35 22.2652 34.8946 22.5196 34.7071 22.7071C34.5196 22.8946 34.2652 23 34 23ZM31 21H33V19H31V21Z" fill="#6E1946"/>
<path d="M40 30H36C35.7348 30 35.4804 29.8946 35.2929 29.7071C35.1054 29.5196 35 29.2652 35 29V25C35 24.7348 35.1054 24.4804 35.2929 24.2929C35.4804 24.1054 35.7348 24 36 24H40C40.2652 24 40.5196 24.1054 40.7071 24.2929C40.8946 24.4804 41 24.7348 41 25V29C41 29.2652 40.8946 29.5196 40.7071 29.7071C40.5196 29.8946 40.2652 30 40 30ZM37 28H39V26H37V28Z" fill="#6E1946"/>
<path d="M33 37H29C28.7348 37 28.4804 36.8946 28.2929 36.7071C28.1054 36.5196 28 36.2652 28 36V32C28 31.7348 28.1054 31.4804 28.2929 31.2929C28.4804 31.1054 28.7348 31 29 31H33C33.2652 31 33.5196 31.1054 33.7071 31.2929C33.8946 31.4804 34 31.7348 34 32V36C34 36.2652 33.8946 36.5196 33.7071 36.7071C33.5196 36.8946 33.2652 37 33 37ZM30 35H32V33H30V35Z" fill="#6E1946"/>
<path d="M47 18H41C40.7348 18 40.4804 17.8946 40.2929 17.7071C40.1054 17.5196 40 17.2652 40 17V11C40 10.7348 40.1054 10.4804 40.2929 10.2929C40.4804 10.1054 40.7348 10 41 10H47C47.2652 10 47.5196 10.1054 47.7071 10.2929C47.8946 10.4804 48 10.7348 48 11V17C48 17.2652 47.8946 17.5196 47.7071 17.7071C47.5196 17.8946 47.2652 18 47 18ZM42 16H46V12H42V16Z" fill="#6E1946"/>
<path d="M47 39H41C40.7348 39 40.4804 38.8946 40.2929 38.7071C40.1054 38.5196 40 38.2652 40 38V32C40 31.7348 40.1054 31.4804 40.2929 31.2929C40.4804 31.1054 40.7348 31 41 31H47C47.2652 31 47.5196 31.1054 47.7071 31.2929C47.8946 31.4804 48 31.7348 48 32V38C48 38.2652 47.8946 38.5196 47.7071 38.7071C47.5196 38.8946 47.2652 39 47 39ZM42 37H46V33H42V37Z" fill="#6E1946"/>
<path d="M41 50H35C34.7348 50 34.4804 49.8946 34.2929 49.7071C34.1054 49.5196 34 49.2652 34 49V43C34 42.7348 34.1054 42.4804 34.2929 42.2929C34.4804 42.1054 34.7348 42 35 42H41C41.2652 42 41.5196 42.1054 41.7071 42.2929C41.8946 42.4804 42 42.7348 42 43V49C42 49.2652 41.8946 49.5196 41.7071 49.7071C41.5196 49.8946 41.2652 50 41 50ZM36 48H40V44H36V48Z" fill="#6E1946"/>
<path d="M55 30H47C46.7348 30 46.4804 29.8946 46.2929 29.7071C46.1054 29.5196 46 29.2652 46 29V21C46 20.7348 46.1054 20.4804 46.2929 20.2929C46.4804 20.1054 46.7348 20 47 20H55C55.2652 20 55.5196 20.1054 55.7071 20.2929C55.8946 20.4804 56 20.7348 56 21V29C56 29.2652 55.8946 29.5196 55.7071 29.7071C55.5196 29.8946 55.2652 30 55 30ZM48 28H54V22H48V28Z" fill="#6E1946"/>
<path d="M55 56H47C46.7348 56 46.4804 55.8946 46.2929 55.7071C46.1054 55.5196 46 55.2652 46 55V47C46 46.7348 46.1054 46.4804 46.2929 46.2929C46.4804 46.1054 46.7348 46 47 46H55C55.2652 46 55.5196 46.1054 55.7071 46.2929C55.8946 46.4804 56 46.7348 56 47V55C56 55.2652 55.8946 55.5196 55.7071 55.7071C55.5196 55.8946 55.2652 56 55 56ZM48 54H54V48H48V54Z" fill="#6E1946"/>
<path d="M25 9H27V55H25V9Z" fill="#6E1946"/>
</svg>
