<svg width="56" height="56" viewBox="0 0 56 56" fill="none" xmlns="http://www.w3.org/2000/svg">
<path fill-rule="evenodd" clip-rule="evenodd" d="M19.8156 5.69724C24.3284 1.18345 31.6716 1.18345 36.1844 5.69724C36.5076 6.02006 37.0337 6.01993 37.3567 5.69724C37.6806 5.3734 37.6806 4.84835 37.3567 4.52438C32.1976 -0.634917 23.8023 -0.634917 18.6429 4.52438C18.319 4.84835 18.319 5.37353 18.6429 5.69724C18.9668 6.02019 19.4919 6.02019 19.8156 5.69724ZM22.4493 8.33072C25.5102 5.2696 30.49 5.2696 33.5509 8.33072C33.8746 8.65456 33.8746 9.17961 33.5509 9.50358C33.228 9.82614 32.7014 9.8264 32.3782 9.50358C29.9642 7.08912 26.0359 7.08912 23.6219 9.50358C23.2981 9.82652 22.773 9.82652 22.4493 9.50358C22.1255 9.17948 22.1255 8.65443 22.4493 8.33072ZM53.6342 49.4869H33.7286L33.4187 50.4409C33.0289 51.6403 31.9618 52.4163 30.7003 52.4163H25.3C24.0385 52.4163 22.9713 51.6403 22.5816 50.4409L22.2717 49.4869H2.36562C2.76204 51.867 4.83538 53.6865 7.32601 53.6865H48.6742C51.1647 53.6866 53.2378 51.867 53.6342 49.4869ZM24.0153 49.4869H31.985L31.8417 49.9291C31.6756 50.4398 31.2382 50.7581 30.7003 50.7581H25.3C24.7622 50.7581 24.3248 50.4398 24.1586 49.9291L24.0153 49.4869ZM24.426 26.3081C24.426 24.9615 23.3302 23.8649 21.9832 23.8649C20.6361 23.8649 19.5403 24.9615 19.5403 26.3081C19.5403 27.6742 20.6685 28.7512 21.9832 28.7512C23.3302 28.7513 24.426 27.6556 24.426 26.3081ZM18.0239 35.2637V47.8286H24.9898V37.8483C24.9898 37.2037 25.6972 36.8056 26.2474 37.1387C26.625 37.3675 27.0072 37.5918 27.3837 37.8063C28.2548 38.3038 29.2982 38.1436 29.9803 37.4083C31.5291 35.7378 33.0206 33.9746 34.4135 32.1682C34.6625 31.8452 34.2316 31.422 33.9134 31.6719L29.3645 35.2404C29.0303 35.5024 28.5526 35.4693 28.2573 35.1653C25.6918 32.5177 25.6237 32.4723 23.8777 31.3203C22.8167 30.6213 21.7073 30.301 20.4792 30.301H19.9929C18.2873 30.301 16.8135 30.9148 15.6121 32.125C14.0025 33.7481 12.4835 35.4937 11.0971 37.3132C10.4895 38.1115 10.5108 39.1671 11.1499 39.9398C12.6009 41.6953 14.1519 43.4067 15.759 45.0263C16.0452 45.314 16.5229 44.9459 16.3162 44.595L13.3795 39.6161C13.2056 39.3208 13.2308 38.9495 13.4427 38.6807L16.5438 34.7507C17.0289 34.1362 18.0239 34.4802 18.0239 35.2637ZM16.3658 37.6539V41.4146L15.0962 39.2622L16.3658 37.6539ZM5.1015 47.8286V16.5222C5.1015 15.5881 5.86182 14.8275 6.79622 14.8275H25.3433C25.7717 15.8744 26.8011 16.6141 27.9999 16.6141C29.1993 16.6141 30.2282 15.8743 30.6566 14.8275H49.2039C50.1383 14.8275 50.8984 15.5881 50.8984 16.5222V47.8286H26.648V39.2943C28.1634 40.109 30.0204 39.8028 31.1963 38.5347C32.7792 36.8279 34.3034 35.0272 35.7269 33.1797C36.1704 32.6049 36.255 31.8633 36.0043 31.2253L38.8158 28.414C39.1396 28.0902 39.1396 27.5651 38.8158 27.2423C38.4921 26.9184 37.9669 26.9184 37.6432 27.2423L34.821 30.0635C34.1864 29.8268 33.4582 29.9219 32.8902 30.3675L28.9283 33.475C26.8236 31.3104 26.5479 31.096 24.791 29.9362C24.6418 29.8379 24.4922 29.7472 24.3421 29.66C25.3947 28.9168 26.0844 27.6921 26.0844 26.3081C26.0844 24.0473 24.2445 22.2067 21.9833 22.2067C18.6178 22.2067 16.6957 26.0559 18.6868 28.7445C17.0699 28.9998 15.6436 29.7392 14.435 30.9578C12.7747 32.6302 11.2077 34.4313 9.77798 36.3093C8.71058 37.7111 8.74898 39.6391 9.87167 40.9967C11.3548 42.7909 12.9398 44.5397 14.5825 46.1945C15.0644 46.68 15.7356 46.8711 16.3658 46.7549V47.8283H5.1015V47.8286ZM26.7887 13.7442C26.7887 14.4119 27.332 14.9557 28.0001 14.9557C28.6681 14.9557 29.2116 14.4119 29.2116 13.7442C29.2116 13.0766 28.6681 12.5327 28.0001 12.5327C27.332 12.5326 26.7887 13.0766 26.7887 13.7442ZM55.361 48.6576C55.361 52.3447 52.3611 55.345 48.6741 55.345H7.32601C3.63871 55.345 0.63916 52.3457 0.63916 48.6576C0.63916 48.2 1.01036 47.8286 1.46822 47.8286H3.44338V16.5222C3.44338 14.6739 4.94738 13.1694 6.79622 13.1694H25.1882C25.4549 11.8616 26.6145 10.8745 27.9999 10.8745C29.3857 10.8745 30.5451 11.8617 30.8118 13.1694H49.2039C51.0525 13.1694 52.5567 14.6739 52.5567 16.5222V47.8286H54.5316C54.9896 47.8286 55.361 48.2013 55.361 48.6576ZM35.4664 22.2907C35.9259 22.2907 36.2955 21.9229 36.2955 21.4496C36.2955 20.9917 35.9243 20.6203 35.4664 20.6203C35.0069 20.6203 34.6374 20.9881 34.6374 21.4616C34.6372 21.9193 35.0086 22.2907 35.4664 22.2907ZM38.5607 22.2907C39.0202 22.2907 39.3898 21.9229 39.3898 21.4496C39.3898 20.9917 39.0186 20.6203 38.5607 20.6203C38.1012 20.6203 37.7316 20.9881 37.7316 21.4616C37.7316 21.9193 38.1028 22.2907 38.5607 22.2907ZM41.6552 22.2907C42.1147 22.2907 42.4843 21.9229 42.4843 21.4496C42.4843 20.9917 42.1131 20.6203 41.6552 20.6203C41.1957 20.6203 40.8259 20.9881 40.8259 21.4616C40.8259 21.9193 41.1974 22.2907 41.6552 22.2907ZM30.3861 24.8588L31.6959 24.3593C31.7903 24.3227 31.8904 24.305 31.9915 24.305H43.8621C44.0998 24.305 44.3011 24.1038 44.3011 23.8649V19.0462C44.3011 18.8085 44.0999 18.6072 43.8621 18.6072H33.2598C33.0219 18.6072 32.8205 18.8084 32.8205 19.0462V21.3733C32.8205 21.5545 32.7614 21.7303 32.6518 21.875L30.3861 24.8588ZM27.3078 27.1648C27.5316 27.4647 27.9247 27.5742 28.2671 27.4424L32.1444 25.9631H43.8621C45.0186 25.9631 45.9592 25.0226 45.9592 23.8649V19.0462C45.9592 17.8898 45.0184 16.9491 43.8621 16.9491H33.2598C32.1032 16.9491 31.1624 17.8899 31.1624 19.0462V21.0946L27.3109 26.1667C27.0872 26.4618 27.0858 26.8684 27.3078 27.1648ZM47.4422 39.3959H40.2758C39.8179 39.3959 39.4467 39.7674 39.4467 40.225C39.4467 40.6827 39.8179 41.0543 40.2758 41.0543H47.4422C47.9002 41.0543 48.2714 40.6827 48.2714 40.225C48.2714 39.7674 47.9002 39.3959 47.4422 39.3959ZM47.4422 35.6684H40.2758C39.8179 35.6684 39.4467 36.0386 39.4467 36.4975C39.4467 36.9552 39.8179 37.3266 40.2758 37.3266H47.4422C47.9002 37.3266 48.2714 36.9551 48.2714 36.4975C48.2714 36.0386 47.9002 35.6684 47.4422 35.6684ZM40.2759 31.9394C39.818 31.9394 39.4468 32.3107 39.4468 32.7685C39.4468 33.2265 39.818 33.5978 40.2759 33.5978H47.4424C47.9003 33.5978 48.2715 33.2263 48.2715 32.7685C48.2715 32.3107 47.9003 31.9394 47.4424 31.9394H40.2759Z" fill="#6E1946"/>
</svg>
