<svg width="64" height="64" viewBox="0 0 64 64" fill="none" xmlns="http://www.w3.org/2000/svg">
<g clip-path="url(#clip0_4_62)">
<path d="M60.704 18.206H59.7016C59.5948 17.8169 59.4131 17.4523 59.1669 17.1327L47.9666 3.13747C47.6297 2.71651 47.1894 2.39007 46.6887 2.18999C46.188 1.9899 45.6439 1.92301 45.1097 1.99584C44.5754 2.06866 44.0691 2.27872 43.6403 2.60551C43.2114 2.93231 42.8745 3.36468 42.6625 3.86047L37.281 16.4581L34.8789 18.38V18.206H3.296C2.42202 18.207 1.58415 18.5547 0.966236 19.1728C0.348321 19.7909 0.000826992 20.6289 0 21.5028L0 51.3543C0.00115776 52.2281 0.348798 53.0657 0.966677 53.6836C1.58456 54.3014 2.42224 54.6489 3.296 54.65H27.6787V57.5708H26.4639C25.6114 57.5708 24.7938 57.9095 24.191 58.5123C23.5882 59.1151 23.2495 59.9327 23.2495 60.7852C23.2495 61.6377 23.5882 62.4553 24.191 63.0581C24.7938 63.6609 25.6114 63.9996 26.4639 63.9996H37.5361C38.3886 63.9996 39.2062 63.6609 39.809 63.0581C40.4118 62.4553 40.7505 61.6377 40.7505 60.7852C40.7505 59.9327 40.4118 59.1151 39.809 58.5123C39.2062 57.9095 38.3886 57.5708 37.5361 57.5708H36.3213V54.65H60.704C61.5778 54.6489 62.4154 54.3014 63.0333 53.6836C63.6512 53.0657 63.9988 52.2281 64 51.3543V21.5028C63.9992 20.6289 63.6517 19.7909 63.0338 19.1728C62.4158 18.5547 61.578 18.207 60.704 18.206ZM45.3789 3.97659C45.5709 3.94858 45.7669 3.97176 45.9471 4.0438C46.1273 4.11583 46.2853 4.23417 46.4051 4.38684L57.6044 18.3827C57.7255 18.5337 57.8053 18.7135 57.8361 18.9045C57.8669 19.0956 57.8476 19.2914 57.7801 19.4728C57.7126 19.6542 57.5992 19.8149 57.451 19.9394C57.3028 20.0638 57.1248 20.1476 56.9345 20.1827L56.2762 20.3043L44.2375 5.26322L44.5015 4.64559C44.576 4.4668 44.6964 4.31082 44.8504 4.19336C45.0045 4.07591 45.1867 4.00114 45.3789 3.97659ZM41.9941 23.544L38.5909 26.2676L34.543 21.21L37.9463 18.4863L41.9941 23.544ZM32.6465 22.7275L32.9819 22.459L37.0289 27.5167L36.6934 27.7851C36.4616 27.9705 36.1658 28.0564 35.8708 28.0238C35.5758 27.9912 35.3058 27.8429 35.1201 27.6113L32.4716 24.3017C32.3796 24.1869 32.311 24.0551 32.27 23.9138C32.229 23.7725 32.2162 23.6245 32.2325 23.4783C32.2487 23.332 32.2937 23.1904 32.3647 23.0616C32.4358 22.9328 32.5316 22.8192 32.6466 22.7275H32.6465ZM43.2429 25.106L48.577 31.7715C48.669 31.8862 48.7375 32.0179 48.7786 32.1591C48.8196 32.3003 48.8323 32.4483 48.8161 32.5944C48.7998 32.7406 48.7549 32.8821 48.6838 33.0108C48.6128 33.1396 48.517 33.253 48.402 33.3447L46.7476 34.668C46.633 34.7601 46.5013 34.8286 46.3602 34.8698C46.219 34.9109 46.0711 34.9237 45.925 34.9076C45.7788 34.8914 45.6373 34.8466 45.5085 34.7756C45.3797 34.7047 45.2662 34.609 45.1745 34.4941L39.8402 27.8283L43.2429 25.106ZM43.8054 22.6081L39.2574 16.9237L43.3469 7.34997L54.0444 20.7167L43.8054 22.6081ZM37.5358 59.5706C37.8578 59.5706 38.1667 59.6985 38.3944 59.9263C38.6222 60.154 38.7501 60.4629 38.7501 60.785C38.7501 61.107 38.6222 61.4159 38.3944 61.6437C38.1667 61.8714 37.8578 61.9993 37.5358 61.9993H26.4639C26.1418 61.9993 25.8329 61.8714 25.6052 61.6437C25.3774 61.4159 25.2495 61.107 25.2495 60.785C25.2495 60.4629 25.3774 60.154 25.6052 59.9263C25.8329 59.6985 26.1418 59.5706 26.4639 59.5706H37.5361H37.5358ZM34.3209 57.5706H29.6787V54.65H34.3213L34.3209 57.5706ZM62 51.3543C61.9997 51.6979 61.863 52.0273 61.62 52.2703C61.377 52.5132 61.0476 52.6497 60.704 52.65H3.296C2.95242 52.6497 2.62296 52.5132 2.37998 52.2703C2.13699 52.0273 2.00033 51.6979 2 51.3543V21.5028C2.00026 21.1591 2.13685 20.8296 2.37978 20.5865C2.62272 20.3433 2.95218 20.2065 3.29588 20.206H32.5959L31.9084 20.756L31.3959 21.166C30.75 21.6831 30.3358 22.4356 30.2444 23.2579C30.153 24.0803 30.3918 24.9053 30.9084 25.5517L33.5584 28.8613C34.0762 29.5061 34.8285 29.9193 35.6505 30.0102C36.4724 30.1012 37.2969 29.8625 37.9431 29.3466L38.278 29.0786L43.6125 35.7441C43.8679 36.0648 44.1844 36.3317 44.5437 36.5293C44.9029 36.7269 45.2977 36.8514 45.7054 36.8955C45.8212 36.908 45.9375 36.9141 46.054 36.914C46.7612 36.9145 47.4473 36.673 47.9981 36.2295L49.6525 34.9062C50.2977 34.3887 50.7112 33.6364 50.8023 32.8144C50.8935 31.9924 50.6549 31.1677 50.1387 30.5215L45.225 24.3798L57.2977 22.15C57.8218 22.0549 58.3124 21.8261 58.722 21.4856C59.1315 21.1451 59.4461 20.7045 59.6353 20.2066H60.7036C61.0473 20.207 61.3768 20.3437 61.6198 20.5867C61.8628 20.8297 61.9996 21.1592 62 21.5028V51.3543ZM7.64275 33.3163H22.0361C22.8883 33.3153 23.7053 32.9762 24.3079 32.3735C24.9104 31.7708 25.2492 30.9537 25.25 30.1015V26.464C25.2492 25.6118 24.9104 24.7948 24.3078 24.1922C23.7053 23.5897 22.8883 23.2508 22.0361 23.25H7.64275C6.79063 23.2508 5.97365 23.5897 5.37111 24.1922C4.76857 24.7947 4.4297 25.6117 4.42887 26.4638V30.1013C4.42964 30.9536 4.76845 31.7707 5.37097 32.3735C5.97349 32.9762 6.79051 33.3153 7.64275 33.3163ZM6.42887 26.4638C6.42934 26.142 6.55738 25.8336 6.78492 25.606C7.01247 25.3785 7.32095 25.2504 7.64275 25.25H22.0361C22.3579 25.2504 22.6664 25.3785 22.894 25.606C23.1215 25.8336 23.2495 26.142 23.25 26.4638V30.1013C23.2497 30.4233 23.1218 30.732 22.8942 30.9597C22.6667 31.1875 22.3581 31.3157 22.0361 31.3162H7.64275C7.3208 31.3157 7.0122 31.1875 6.78464 30.9597C6.55708 30.732 6.42914 30.4233 6.42887 30.1013V26.4638ZM29.584 36.5361H7.84387C5.961 36.5361 4.42887 37.9775 4.42887 39.7498V46.3925C4.42887 48.1648 5.961 49.6072 7.84387 49.6072H29.584C31.4678 49.6072 33 48.1648 33 46.3925V39.75C33 37.9775 31.4678 36.5361 29.584 36.5361ZM31 46.3925C31 47.0623 30.3652 47.6072 29.584 47.6072H7.84387C7.06362 47.6072 6.42887 47.0623 6.42887 46.3925V39.75C6.42887 39.081 7.06362 38.5362 7.84387 38.5362H29.584C30.3652 38.5362 31 39.081 31 39.75V46.3925ZM13.1789 15.2861H30.8926C31.7449 15.285 32.562 14.946 33.1647 14.3433C33.7673 13.7406 34.1063 12.9235 34.1074 12.0712V3.21397C34.1063 2.36174 33.7673 1.54473 33.1646 0.942192C32.5619 0.339651 31.7448 0.000792512 30.8926 -3.44949e-05H13.1789C12.3266 0.000759427 11.5095 0.339603 10.9068 0.942148C10.3041 1.54469 9.96503 2.36172 9.964 3.21397V12.0712C9.96502 12.9235 10.3041 13.7407 10.9067 14.3433C11.5094 14.946 12.3266 15.2851 13.1789 15.2861ZM11.964 3.21397C11.9645 2.89199 12.0927 2.58336 12.3204 2.35578C12.5482 2.12819 12.8569 2.00023 13.1789 1.99997H30.8926C31.2146 2.00026 31.5232 2.12822 31.7509 2.35578C31.9787 2.58333 32.1068 2.89191 32.1074 3.21384V12.0712C32.107 12.3933 31.979 12.7021 31.7512 12.9299C31.5235 13.1576 31.2147 13.2857 30.8926 13.2861H13.1789C12.8568 13.2858 12.548 13.1577 12.3202 12.9299C12.0924 12.7021 11.9643 12.3933 11.964 12.0712V3.21397ZM19.6924 11.2515C19.9568 11.406 20.2575 11.4875 20.5638 11.4877C20.8701 11.4879 21.1709 11.4067 21.4355 11.2525L25.4855 8.91372C25.7504 8.76069 25.9703 8.54066 26.1232 8.27573C26.2761 8.01079 26.3566 7.71029 26.3566 7.4044C26.3566 7.09852 26.2761 6.79801 26.1232 6.53308C25.9703 6.26815 25.7504 6.04812 25.4855 5.89509L21.4355 3.55622C21.1705 3.40339 20.87 3.32297 20.5642 3.32302C20.2583 3.32308 19.9578 3.40362 19.6929 3.55655C19.428 3.70948 19.208 3.92942 19.055 4.19428C18.902 4.45914 18.8214 4.75959 18.8213 5.06547V9.74222C18.8194 10.0484 18.8991 10.3496 19.0522 10.6147C19.2053 10.8799 19.4263 11.0995 19.6924 11.251V11.2515ZM20.8213 5.51134L24.1 7.40434L20.8213 9.29697V5.51134ZM59.5713 48.6077C59.5713 48.8729 59.4659 49.1273 59.2784 49.3148C59.0908 49.5024 58.8365 49.6077 58.5713 49.6077H36.4287C36.1635 49.6077 35.9092 49.5024 35.7216 49.3148C35.5341 49.1273 35.4287 48.8729 35.4287 48.6077C35.4287 48.3425 35.5341 48.0881 35.7216 47.9006C35.9092 47.7131 36.1635 47.6077 36.4287 47.6077H58.5711C58.8363 47.6077 59.0905 47.713 59.2781 47.9004C59.4656 48.0879 59.571 48.3421 59.5711 48.6072L59.5713 48.6077ZM59.5713 44.1791C59.5713 44.4443 59.4659 44.6987 59.2784 44.8862C59.0908 45.0737 58.8365 45.1791 58.5713 45.1791H36.4287C36.1635 45.1791 35.9092 45.0737 35.7216 44.8862C35.5341 44.6987 35.4287 44.4443 35.4287 44.1791C35.4287 43.9139 35.5341 43.6595 35.7216 43.472C35.9092 43.2844 36.1635 43.1791 36.4287 43.1791H58.5711C58.8363 43.1791 59.0905 43.2844 59.2781 43.4718C59.4656 43.6592 59.571 43.9135 59.5711 44.1786L59.5713 44.1791ZM59.5713 39.7503C59.5713 40.0156 59.4659 40.2699 59.2784 40.4574C59.0908 40.645 58.8365 40.7503 58.5713 40.7503H36.4287C36.1635 40.7503 35.9092 40.645 35.7216 40.4574C35.5341 40.2699 35.4287 40.0156 35.4287 39.7503C35.4287 39.4851 35.5341 39.2308 35.7216 39.0432C35.9092 38.8557 36.1635 38.7503 36.4287 38.7503H58.5711C58.7024 38.7502 58.8325 38.776 58.9538 38.8262C59.0752 38.8764 59.1854 38.95 59.2783 39.0429C59.3712 39.1357 59.4449 39.246 59.4951 39.3673C59.5453 39.4886 59.5712 39.6186 59.5711 39.75L59.5713 39.7503ZM56.6297 6.40147L60.1434 3.58997C60.246 3.50789 60.3637 3.44682 60.4899 3.41026C60.6161 3.37369 60.7483 3.36234 60.8789 3.37685C61.0094 3.39136 61.1359 3.43144 61.251 3.49482C61.3661 3.5582 61.4675 3.64362 61.5496 3.74622C61.6317 3.84881 61.6928 3.96657 61.7293 4.09276C61.7659 4.21896 61.7773 4.35112 61.7627 4.4817C61.7482 4.61228 61.7081 4.73873 61.6448 4.85382C61.5814 4.96891 61.496 5.07039 61.3934 5.15247L57.8797 7.96397C57.6726 8.12973 57.408 8.20639 57.1443 8.17708C56.8805 8.14778 56.6393 8.01492 56.4735 7.80772C56.3077 7.60051 56.2311 7.33595 56.2604 7.07223C56.2897 6.80851 56.4226 6.56723 56.6297 6.40147ZM53.2557 4.74722L55.0224 0.607466C55.0739 0.486641 55.1488 0.377156 55.2427 0.28526C55.3365 0.193364 55.4476 0.120857 55.5695 0.0718803C55.6914 0.0229032 55.8217 -0.00158548 55.9531 -0.00018749C56.0844 0.0012105 56.2142 0.0284678 56.3351 0.080028C56.4559 0.131588 56.5654 0.206442 56.6573 0.300315C56.7492 0.394188 56.8217 0.505242 56.8706 0.627136C56.9196 0.74903 56.9441 0.879378 56.9427 1.01074C56.9413 1.14209 56.9141 1.27189 56.8625 1.39272L55.0956 5.53234C54.9915 5.77632 54.7947 5.96895 54.5486 6.06786C54.3025 6.16676 54.0271 6.16383 53.7831 6.05972C53.5391 5.9556 53.3465 5.75883 53.2476 5.51269C53.1487 5.26655 53.1516 4.9912 53.2557 4.74722ZM58.3925 9.65147L62.8182 8.83597C63.0791 8.7878 63.3483 8.8452 63.5668 8.99556C63.7853 9.14592 63.9351 9.37691 63.9832 9.63772C64.0314 9.89852 63.974 10.1678 63.8237 10.3863C63.6733 10.6047 63.4423 10.7545 63.1815 10.8027L58.7557 11.6181C58.6955 11.6294 58.6344 11.6349 58.5731 11.6347C58.3239 11.6343 58.0838 11.5408 57.8999 11.3726C57.716 11.2044 57.6015 10.9736 57.5789 10.7254C57.5563 10.4772 57.6272 10.2295 57.7777 10.0308C57.9282 9.83219 58.1474 9.69689 58.3925 9.65147Z" fill="#6E1946"/>
</g>
<defs>
<clipPath id="clip0_4_62">
<rect width="64" height="64" fill="white"/>
</clipPath>
</defs>
</svg>
