<svg width="64" height="64" viewBox="0 0 64 64" fill="none" xmlns="http://www.w3.org/2000/svg">
<path d="M41 31C40.2089 31 39.4355 31.2346 38.7777 31.6741C38.1199 32.1136 37.6072 32.7384 37.3045 33.4693C37.0017 34.2002 36.9225 35.0044 37.0769 35.7804C37.2312 36.5563 37.6122 37.269 38.1716 37.8284C38.731 38.3878 39.4437 38.7688 40.2196 38.9231C40.9956 39.0775 41.7998 38.9983 42.5307 38.6955C43.2616 38.3928 43.8864 37.8801 44.3259 37.2223C44.7654 36.5645 45 35.7911 45 35C45 33.9391 44.5786 32.9217 43.8284 32.1716C43.0783 31.4214 42.0609 31 41 31ZM41 37C40.6044 37 40.2178 36.8827 39.8889 36.6629C39.56 36.4432 39.3036 36.1308 39.1522 35.7654C39.0009 35.3999 38.9613 34.9978 39.0384 34.6098C39.1156 34.2219 39.3061 33.8655 39.5858 33.5858C39.8655 33.3061 40.2219 33.1156 40.6098 33.0384C40.9978 32.9613 41.3999 33.0009 41.7654 33.1522C42.1308 33.3036 42.4432 33.56 42.6629 33.8889C42.8827 34.2178 43 34.6044 43 35C43 35.5304 42.7893 36.0391 42.4142 36.4142C42.0391 36.7893 41.5304 37 41 37Z" fill="#6E1946"/>
<path d="M56 20.0001H54.92C54.9764 19.6698 55.0032 19.3351 55 19.0001C54.9979 17.1442 54.2597 15.3649 52.9474 14.0527C51.6351 12.7404 49.8559 12.0022 48 12.0001C46.5218 11.995 45.0811 12.4647 43.89 13.3401C42.5366 11.9494 40.8391 10.9419 38.97 10.4201C38.8223 8.67186 38.0245 7.04258 36.7341 5.85397C35.4436 4.66536 33.7544 4.00385 32 4.00006C30.5218 3.99496 29.0811 4.46468 27.89 5.34006C26.4246 3.82939 24.5565 2.77084 22.5075 2.29003C20.4585 1.80922 18.3145 1.92633 16.3301 2.62747C14.3456 3.32861 12.604 4.58434 11.3118 6.24564C10.0196 7.90695 9.23116 9.90409 9.04 12.0001H8C6.4087 12.0001 4.88258 12.6322 3.75736 13.7574C2.63214 14.8826 2 16.4088 2 18.0001C2 19.5914 2.63214 21.1175 3.75736 22.2427C4.88258 23.3679 6.4087 24.0001 8 24.0001H18.35C18.0264 24.9045 17.9252 25.8735 18.0551 26.8253C18.185 27.777 18.5421 28.6835 19.0963 29.4682C19.6504 30.2528 20.3853 30.8925 21.2388 31.3332C22.0924 31.7739 23.0394 32.0026 24 32.0001H32.88L32.76 32.0301C32.5432 32.0837 32.3506 32.2083 32.2128 32.3841C32.0751 32.5599 32.0002 32.7767 32 33.0001V34.0001H7C6.44666 33.999 5.90392 34.1518 5.43241 34.4414C4.96091 34.731 4.57923 35.146 4.33 35.6401C4.11659 36.0619 4.00365 36.5273 4 37.0001V56.0001H3.12C2.97475 56.0009 2.83141 56.0333 2.69996 56.0951C2.56851 56.1569 2.4521 56.2466 2.35883 56.3579C2.26556 56.4693 2.19767 56.5996 2.15988 56.7399C2.12209 56.8801 2.1153 57.0269 2.14 57.1701L2.6 59.7301C2.60088 59.7675 2.60763 59.8047 2.62 59.8401C2.80475 60.4615 3.1845 61.0069 3.70312 61.3959C4.22174 61.7849 4.85173 61.9967 5.5 62.0001H40.5C41.1483 61.9967 41.7783 61.7849 42.2969 61.3959C42.8155 61.0069 43.1952 60.4615 43.38 59.8401C43.3924 59.8047 43.3991 59.7675 43.4 59.7301L43.86 57.1701C43.8847 57.0269 43.8779 56.8801 43.8401 56.7399C43.8023 56.5996 43.7344 56.4693 43.6412 56.3579C43.5479 56.2466 43.4315 56.1569 43.3 56.0951C43.1686 56.0333 43.0253 56.0009 42.88 56.0001H42V44.0001H43C43.2233 43.9999 43.4402 43.925 43.616 43.7872C43.7918 43.6495 43.9164 43.4569 43.97 43.2401L44.14 42.5701L44.73 42.9301C44.921 43.0444 45.1448 43.0918 45.3658 43.0646C45.5868 43.0375 45.7924 42.9373 45.95 42.7801L48.78 39.9501C48.9373 39.7924 49.0374 39.5868 49.0646 39.3658C49.0918 39.1448 49.0444 38.9211 48.93 38.7301L48.57 38.1401L49.24 37.9701C49.4568 37.9165 49.6494 37.7918 49.7872 37.616C49.9249 37.4402 49.9998 37.2234 50 37.0001V33.0001C49.9998 32.7767 49.9249 32.5599 49.7872 32.3841C49.6494 32.2083 49.4568 32.0837 49.24 32.0301L49.12 32.0001H56C57.5913 32.0001 59.1174 31.3679 60.2426 30.2427C61.3679 29.1175 62 27.5914 62 26.0001C62 24.4088 61.3679 22.8826 60.2426 21.7574C59.1174 20.6322 57.5913 20.0001 56 20.0001ZM19.54 22.0001H8C6.93913 22.0001 5.92172 21.5786 5.17157 20.8285C4.42143 20.0783 4 19.0609 4 18.0001C4 16.9392 4.42143 15.9218 5.17157 15.1716C5.92172 14.4215 6.93913 14.0001 8 14.0001H10C10.2652 14.0001 10.5196 13.8947 10.7071 13.7072C10.8946 13.5196 11 13.2653 11 13.0001C11.0009 11.1379 11.5794 9.32193 12.6558 7.80238C13.7321 6.28284 15.2533 5.13456 17.0096 4.51584C18.7659 3.89712 20.671 3.83842 22.4621 4.34783C24.2532 4.85723 25.8421 5.90967 27.01 7.36006C27.0996 7.46875 27.2107 7.55773 27.3363 7.6214C27.4619 7.68508 27.5994 7.72207 27.74 7.73006C27.8783 7.73626 28.0163 7.71369 28.1454 7.66377C28.2745 7.61385 28.3919 7.53767 28.49 7.44006C29.1333 6.80479 29.937 6.35614 30.8154 6.14202C31.6938 5.9279 32.6138 5.95635 33.4773 6.22432C34.3408 6.4923 35.1153 6.98974 35.7181 7.66354C36.3209 8.33734 36.7294 9.1622 36.9 10.0501C36.6 10.0201 36.3 10.0001 36 10.0001C33.2561 10.0032 30.612 11.0299 28.5851 12.8794C26.5581 14.7288 25.294 17.2679 25.04 20.0001H24C23.1579 20.0018 22.3255 20.1807 21.5571 20.5253C20.7887 20.8699 20.1014 21.3724 19.54 22.0001ZM6 37.0001C6.00317 36.8438 6.04073 36.6902 6.11 36.5501C6.192 36.3843 6.31888 36.2448 6.47622 36.1476C6.63356 36.0504 6.81504 35.9992 7 36.0001H32V37.0001C32.0002 37.2234 32.0751 37.4402 32.2128 37.616C32.3506 37.7918 32.5432 37.9165 32.76 37.9701L33.43 38.1401L33.07 38.7301C32.9556 38.9211 32.9082 39.1448 32.9354 39.3658C32.9626 39.5868 33.0627 39.7924 33.22 39.9501L36.05 42.7801C36.2076 42.9373 36.4132 43.0375 36.6342 43.0646C36.8552 43.0918 37.079 43.0444 37.27 42.9301L37.86 42.5701L38.03 43.2401C38.0836 43.4569 38.2082 43.6495 38.384 43.7872C38.5598 43.925 38.7767 43.9999 39 44.0001H40V56.0001H26C25.7348 56.0001 25.4804 56.1054 25.2929 56.293C25.1054 56.4805 25 56.7348 25 57.0001H21C21 56.7348 20.8946 56.4805 20.7071 56.293C20.5196 56.1054 20.2652 56.0001 20 56.0001H6V37.0001ZM41.45 59.3201C41.3811 59.5175 41.2528 59.6889 41.0828 59.8106C40.9127 59.9324 40.7091 59.9985 40.5 60.0001H5.5C5.29085 59.9985 5.0873 59.9324 4.91723 59.8106C4.74715 59.6889 4.61889 59.5175 4.55 59.3201L4.32 58.0001H19C19 58.2653 19.1054 58.5196 19.2929 58.7072C19.4804 58.8947 19.7348 59.0001 20 59.0001H26C26.2652 59.0001 26.5196 58.8947 26.7071 58.7072C26.8946 58.5196 27 58.2653 27 58.0001H41.68L41.45 59.3201ZM48 36.2201L46.78 36.5201C46.6287 36.5589 46.4884 36.6324 46.3704 36.7348C46.2524 36.8372 46.1598 36.9657 46.1 37.1101C46.0403 37.2546 46.0146 37.411 46.025 37.5671C46.0354 37.7231 46.0816 37.8747 46.16 38.0101L46.81 39.0901L45.09 40.8101L44.01 40.1601C43.8746 40.0817 43.7231 40.0355 43.567 40.0251C43.4109 40.0146 43.2546 40.0403 43.11 40.1001C42.9656 40.1599 42.8372 40.2524 42.7348 40.3705C42.6324 40.4885 42.5588 40.6287 42.52 40.7801L42.22 42.0001H39.78L39.48 40.7801C39.4412 40.6287 39.3676 40.4885 39.2652 40.3705C39.1628 40.2524 39.0344 40.1599 38.89 40.1001C38.7454 40.0403 38.5891 40.0146 38.433 40.0251C38.2769 40.0355 38.1254 40.0817 37.99 40.1601L36.91 40.8101L35.19 39.0901L35.84 38.0101C35.9184 37.8747 35.9646 37.7231 35.975 37.5671C35.9854 37.411 35.9597 37.2546 35.9 37.1101C35.8402 36.9657 35.7476 36.8372 35.6296 36.7348C35.5116 36.6324 35.3713 36.5589 35.22 36.5201L34 36.2201V33.7801L35.22 33.4801C35.3713 33.4412 35.5116 33.3677 35.6296 33.2653C35.7476 33.1629 35.8402 33.0344 35.9 32.8901C35.9597 32.7455 35.9854 32.5891 35.975 32.4331C35.9646 32.277 35.9184 32.1254 35.84 31.9901L35.19 30.9101L36.91 29.1901L37.99 29.8301C38.1237 29.9123 38.2751 29.9616 38.4315 29.9737C38.588 29.9859 38.7452 29.9607 38.89 29.9001C39.0344 29.8403 39.1628 29.7477 39.2652 29.6297C39.3676 29.5116 39.4412 29.3714 39.48 29.2201L39.78 28.0001H42.22L42.52 29.2201C42.5588 29.3714 42.6324 29.5116 42.7348 29.6297C42.8372 29.7477 42.9656 29.8403 43.11 29.9001C43.2548 29.9607 43.412 29.9859 43.5685 29.9737C43.7249 29.9616 43.8763 29.9123 44.01 29.8301L45.09 29.1901L46.81 30.9101L46.16 31.9901C46.0816 32.1254 46.0354 32.277 46.025 32.4331C46.0146 32.5891 46.0403 32.7455 46.1 32.8901C46.1598 33.0344 46.2524 33.1629 46.3704 33.2653C46.4884 33.3677 46.6287 33.4412 46.78 33.4801L48 33.7801V36.2201ZM56 30.0001H48.73L45.95 27.2201C45.7924 27.0628 45.5868 26.9627 45.3658 26.9355C45.1448 26.9083 44.921 26.9557 44.73 27.0701L44.14 27.4301L43.97 26.7601C43.9164 26.5433 43.7918 26.3506 43.616 26.2129C43.4402 26.0752 43.2233 26.0002 43 26.0001H39C38.7767 26.0002 38.5598 26.0752 38.384 26.2129C38.2082 26.3506 38.0836 26.5433 38.03 26.7601L37.86 27.4301L37.27 27.0701C37.079 26.9557 36.8552 26.9083 36.6342 26.9355C36.4132 26.9627 36.2076 27.0628 36.05 27.2201L33.27 30.0001H24C22.9391 30.0001 21.9217 29.5786 21.1716 28.8285C20.4214 28.0783 20 27.0609 20 26.0001C20 24.9392 20.4214 23.9218 21.1716 23.1716C21.9217 22.4215 22.9391 22.0001 24 22.0001H26C26.2652 22.0001 26.5196 21.8947 26.7071 21.7072C26.8946 21.5196 27 21.2653 27 21.0001C27.0009 19.1379 27.5794 17.3219 28.6558 15.8024C29.7321 14.2828 31.2533 13.1346 33.0096 12.5158C34.7659 11.8971 36.671 11.8384 38.4621 12.3478C40.2532 12.8572 41.8421 13.9097 43.01 15.3601C43.0996 15.4687 43.2107 15.5577 43.3363 15.6214C43.4619 15.6851 43.5994 15.7221 43.74 15.7301C43.8783 15.7363 44.0163 15.7137 44.1454 15.6638C44.2745 15.6138 44.3919 15.5377 44.49 15.4401C45.192 14.7481 46.083 14.279 47.0508 14.0919C48.0187 13.9047 49.0202 14.0079 49.9296 14.3883C50.839 14.7687 51.6157 15.4095 52.162 16.23C52.7083 17.0506 52.9998 18.0143 53 19.0001C52.9953 19.5688 52.8974 20.133 52.71 20.6701C52.657 20.8205 52.6403 20.9813 52.6611 21.1394C52.682 21.2975 52.7398 21.4485 52.83 21.5801C52.9246 21.709 53.048 21.8141 53.1903 21.8871C53.3327 21.96 53.4901 21.9987 53.65 22.0001H56C57.0609 22.0001 58.0783 22.4215 58.8284 23.1716C59.5786 23.9218 60 24.9392 60 26.0001C60 27.0609 59.5786 28.0783 58.8284 28.8285C58.0783 29.5786 57.0609 30.0001 56 30.0001Z" fill="#6E1946"/>
<path d="M55 46C55 46.7956 54.6839 47.5587 54.1213 48.1213C53.5587 48.6839 52.7956 49 52 49H44V51H52C53.3256 50.9984 54.5964 50.4711 55.5338 49.5338C56.4711 48.5964 56.9984 47.3256 57 46V34H55V46Z" fill="#6E1946"/>
<path d="M24 45H22V47H24V45Z" fill="#6E1946"/>
<path d="M28 45H26V47H28V45Z" fill="#6E1946"/>
<path d="M20 45H18V47H20V45Z" fill="#6E1946"/>
</svg>
