<svg width="64" height="64" viewBox="0 0 64 64" fill="none" xmlns="http://www.w3.org/2000/svg">
<g clip-path="url(#clip0_4_17)">
<path fill-rule="evenodd" clip-rule="evenodd" d="M28.1209 50.6955V42.8457C28.1209 42.2886 27.6676 41.8352 27.1105 41.8352C26.5526 41.8352 26.0999 42.2886 26.0999 42.8457V50.6955C26.0999 51.2534 26.5526 51.706 27.1105 51.706C27.6675 51.7061 28.1209 51.2534 28.1209 50.6955ZM20.7306 42.8458V50.6956C20.7306 51.2535 21.1833 51.7061 21.7411 51.7061C22.2988 51.7061 22.7515 51.2534 22.7515 50.6956V42.8458C22.7515 42.2887 22.2988 41.8353 21.7411 41.8353C21.1833 41.8352 20.7306 42.2886 20.7306 42.8458Z" fill="#6E1946"/>
<path fill-rule="evenodd" clip-rule="evenodd" d="M17.8163 51.706H31.0346C31.5925 51.706 32.0451 51.2533 32.0451 50.6955C32.0451 50.1377 31.5924 49.6851 31.0346 49.6851H17.8163C17.2585 49.6851 16.8058 50.1378 16.8058 50.6955C16.8057 51.2533 17.2584 51.706 17.8163 51.706Z" fill="#6E1946"/>
<path fill-rule="evenodd" clip-rule="evenodd" d="M41.6344 41.8351H3.15491C2.58425 41.8351 2.1215 41.373 2.1215 40.8024V9.85938C2.1215 9.28873 2.58436 8.82661 3.15491 8.82661H13.1005C13.6583 8.82661 14.111 8.37389 14.111 7.81614C14.111 7.25838 13.6583 6.80566 13.1005 6.80566C13.1005 6.80566 6.57786 6.80566 3.15491 6.80566C1.468 6.80556 0.100342 8.17248 0.100342 9.85938V40.8024C0.100342 42.4893 1.46789 43.8562 3.1548 43.8562H41.6343C42.1921 43.8562 42.6447 43.4035 42.6447 42.8457C42.6448 42.2885 42.1921 41.8351 41.6344 41.8351ZM46.7294 21.9669V31.2308C46.7294 31.7879 47.1821 32.2412 47.7399 32.2412C48.2978 32.2412 48.7504 31.7879 48.7504 31.2308V21.9669C48.7504 21.409 48.2977 20.9564 47.7399 20.9564C47.1821 20.9563 46.7294 21.409 46.7294 21.9669Z" fill="#6E1946"/>
<path fill-rule="evenodd" clip-rule="evenodd" d="M41.4471 33.7151H1.11094C0.553074 33.7151 0.100464 34.1672 0.100464 34.7256V40.8022C0.100464 41.612 0.422458 42.3888 0.995116 42.962C1.56777 43.5347 2.34449 43.8561 3.15492 43.8561H41.6344C42.1923 43.8561 42.6449 43.4034 42.6449 42.8456C42.6449 42.2885 42.1922 41.8351 41.6344 41.8351H3.15492C2.88069 41.8351 2.61798 41.7267 2.42396 41.5327C2.23057 41.3393 2.12152 41.0766 2.12152 40.8025V35.7364H41.4471C42.005 35.7364 42.4576 35.2836 42.4576 34.7259C42.4576 34.1681 42.0049 33.7151 41.4471 33.7151Z" fill="#6E1946"/>
<path fill-rule="evenodd" clip-rule="evenodd" d="M47.74 30.2202C43.0909 30.2202 39.3169 33.9942 39.3169 38.6433C39.3169 43.2924 43.0909 47.0664 47.74 47.0664C52.3891 47.0664 56.1638 43.2924 56.1638 38.6433C56.1638 33.9942 52.389 30.2202 47.74 30.2202ZM47.74 32.2413C51.2735 32.2413 54.1427 35.1098 54.1427 38.6433C54.1427 42.1768 51.2735 45.0454 47.74 45.0454C44.2065 45.0454 41.3379 42.1768 41.3379 38.6433C41.3379 35.1098 44.2065 32.2413 47.74 32.2413Z" fill="#6E1946"/>
<path fill-rule="evenodd" clip-rule="evenodd" d="M34.6145 64C40.714 64 54.7691 64 60.8692 63.9798C61.9088 63.9798 62.8781 63.4435 63.434 62.561C63.9891 61.6778 64.0518 60.5717 63.5997 59.6318C63.5991 59.6304 63.5991 59.6298 63.5983 59.6284C60.7447 53.7445 54.7125 49.6848 47.7399 49.6848C40.7685 49.6848 34.7377 53.7431 31.8645 59.6162C31.8631 59.6183 31.8625 59.6203 31.8611 59.6223C31.4064 60.5688 31.4697 61.6831 32.0288 62.5717C32.588 63.4611 33.5643 64 34.6145 64ZM34.6145 61.9789C34.6145 61.9789 34.6145 61.9789 34.6138 61.9789C34.2588 61.9789 33.9287 61.7963 33.7394 61.4959C33.5507 61.1961 33.5292 60.8202 33.6821 60.5002C36.2273 55.3008 41.5669 51.706 47.7399 51.706C53.9122 51.706 59.2518 55.3001 61.7788 60.5084C61.9291 60.8216 61.9081 61.1908 61.7229 61.4852C61.5376 61.7796 61.2136 61.9589 60.866 61.9589C60.8646 61.9589 60.8633 61.9589 60.8626 61.9589C54.7644 61.9789 40.7127 61.9789 34.6145 61.9789Z" fill="#6E1946"/>
<path fill-rule="evenodd" clip-rule="evenodd" d="M26.6219 11.328V3.05382C26.6219 2.48317 27.0848 2.02105 27.6553 2.02105H50.1173C50.3907 2.02105 50.6535 2.13022 50.8476 2.3235C51.0416 2.51752 51.15 2.78023 51.15 3.05382V16.2297C51.15 16.5032 51.0416 16.7659 50.8476 16.96C50.6536 17.1534 50.3909 17.2625 50.1173 17.2625H35.2181C34.661 17.2625 34.2076 17.7152 34.2076 18.273C34.2076 18.8307 34.661 19.2834 35.2181 19.2834H50.1173C50.9271 19.2834 51.7038 18.9614 52.2764 18.3888C52.8491 17.8161 53.1711 17.0394 53.1711 16.2296C53.1711 12.9077 53.1711 6.37564 53.1711 3.05372C53.1711 2.24392 52.8491 1.46721 52.2764 0.894547C51.7039 0.321995 50.9272 0 50.1174 0C45.1712 0 32.6009 0 27.6554 0C25.9685 0 24.601 1.36755 24.601 3.05382V11.328C24.601 11.8858 25.0543 12.3385 25.6114 12.3385C26.1692 12.3385 26.6219 11.8858 26.6219 11.328Z" fill="#6E1946"/>
<path fill-rule="evenodd" clip-rule="evenodd" d="M45.4117 4.70215H36.7273C36.1694 4.70215 35.7168 5.15486 35.7168 5.71262C35.7168 6.27038 36.1695 6.72309 36.7273 6.72309H45.4117C45.9688 6.72309 46.4222 6.27038 46.4222 5.71262C46.4222 5.15486 45.9688 4.70215 45.4117 4.70215Z" fill="#6E1946"/>
<path fill-rule="evenodd" clip-rule="evenodd" d="M45.4118 8.6311H38.3973C37.8395 8.6311 37.3868 9.08382 37.3868 9.64158C37.3868 10.1993 37.8396 10.6521 38.3973 10.6521H45.4117C45.9688 10.6521 46.4221 10.1993 46.4221 9.64158C46.4222 9.08382 45.9689 8.6311 45.4118 8.6311Z" fill="#6E1946"/>
<path fill-rule="evenodd" clip-rule="evenodd" d="M45.4117 12.5601H40.3388C39.781 12.5601 39.3284 13.0128 39.3284 13.5705C39.3284 14.1284 39.7811 14.581 40.3388 14.581H45.4117C45.9688 14.581 46.4222 14.1283 46.4222 13.5705C46.4222 13.0128 45.9688 12.5601 45.4117 12.5601Z" fill="#6E1946"/>
<path fill-rule="evenodd" clip-rule="evenodd" d="M17.3838 3.1792C14.4297 3.1792 12.0314 5.57752 12.0314 8.53158C12.0314 11.4856 14.4297 13.8847 17.3838 13.8847C20.3386 13.8847 22.7369 11.4858 22.7369 8.53158C22.7369 5.57741 20.3386 3.1792 17.3838 3.1792ZM17.3838 5.20025C19.2229 5.20025 20.7158 6.69314 20.7158 8.53158C20.7158 10.3708 19.2229 11.8636 17.3838 11.8636C15.5453 11.8636 14.0524 10.3708 14.0524 8.53158C14.0524 6.69314 15.5453 5.20025 17.3838 5.20025Z" fill="#6E1946"/>
<path fill-rule="evenodd" clip-rule="evenodd" d="M25.0025 15.6409H14.297C11.3894 15.6409 8.90685 17.7387 8.4218 20.6059C8.02636 22.947 7.55346 25.7435 7.26306 27.4573C7.14724 28.1458 7.33989 28.8512 7.79059 29.3841C8.2413 29.9177 8.90484 30.2255 9.60283 30.2255H20.6856C21.9959 30.2255 23.0583 29.1631 23.0583 27.8528V22.3677H25.5947C26.9502 22.3677 28.2537 21.8435 29.2319 20.9051C30.0451 20.1243 31.123 19.0909 32.0177 18.2326C32.661 17.6148 33.0329 16.7673 33.0518 15.8753C33.07 14.9928 32.7406 14.1386 32.135 13.4972C32.1289 13.4905 32.1032 13.4635 32.0966 13.4575C31.4808 12.8255 30.6414 12.4611 29.7589 12.4429C28.8669 12.4241 28.0047 12.7609 27.3606 13.378L25.0025 15.6409ZM25.4087 17.6619C25.6694 17.6619 25.92 17.5609 26.1079 17.3803C26.1079 17.3803 27.5395 16.0073 28.7596 14.8364C29.0162 14.5905 29.3604 14.4558 29.7169 14.4632C30.0686 14.4706 30.4041 14.6161 30.6493 14.868C30.652 14.8707 30.6628 14.8816 30.6654 14.8842C30.9066 15.1403 31.0379 15.4811 31.0305 15.8334C31.0231 16.1891 30.8749 16.5273 30.6183 16.7739C29.7236 17.6322 28.6464 18.6656 27.8326 19.4465C27.2303 20.0238 26.4287 20.3465 25.5946 20.3465H22.0477C21.4899 20.3465 21.0372 20.7986 21.0372 21.357V27.8527C21.0372 28.0467 20.8795 28.2043 20.6855 28.2043H9.60273C9.49969 28.2043 9.40131 28.1585 9.33388 28.0798C9.2672 28.0009 9.23888 27.8959 9.25568 27.7941C9.54608 26.0803 10.019 23.2838 10.4144 20.9427C10.7351 19.0484 12.3756 17.6619 14.2968 17.6619H25.4087Z" fill="#6E1946"/>
<path fill-rule="evenodd" clip-rule="evenodd" d="M13.502 29.3834L14.5745 23.042C14.6675 22.4916 14.2963 21.9701 13.7465 21.8772C13.1968 21.7836 12.6747 22.1548 12.5818 22.7046L11.5093 29.0466C11.4163 29.5963 11.7875 30.1185 12.3372 30.2114C12.887 30.3044 13.4091 29.9338 13.502 29.3834Z" fill="#6E1946"/>
<path fill-rule="evenodd" clip-rule="evenodd" d="M32.4473 14.6499L34.5634 8.87978C34.7554 8.35563 34.4859 7.77494 33.9625 7.58293C33.4384 7.39091 32.8577 7.66039 32.6657 8.18391L30.5496 13.954C30.3576 14.4782 30.6271 15.0589 31.1505 15.2509C31.6746 15.4428 32.2553 15.1733 32.4473 14.6499Z" fill="#6E1946"/>
<path fill-rule="evenodd" clip-rule="evenodd" d="M23.0251 39.7966H25.8256C26.3834 39.7966 26.8361 39.3439 26.8361 38.7861C26.8361 38.2282 26.3834 37.7756 25.8256 37.7756H23.0251C22.4674 37.7756 22.0146 38.2284 22.0146 38.7861C22.0146 39.3439 22.4674 39.7966 23.0251 39.7966Z" fill="#6E1946"/>
</g>
<defs>
<clipPath id="clip0_4_17">
<rect width="64" height="64" fill="white"/>
</clipPath>
</defs>
</svg>
