<svg width="64" height="64" viewBox="0 0 64 64" fill="none" xmlns="http://www.w3.org/2000/svg">
<path d="M16.1488 42.1862C23.7325 42.1862 29.9013 36.0175 29.9013 28.4338C29.9013 27.9513 29.875 27.47 29.825 26.9937C31.87 28.36 34.28 29.2225 36.875 29.3988V40.8775C36.875 41.43 37.3225 41.8775 37.875 41.8775H40.9762V45.4712C40.9762 45.8937 41.2425 46.2712 41.6413 46.4137C41.7513 46.4525 41.8638 46.4712 41.9762 46.4712C42.2712 46.4712 42.5588 46.34 42.7513 46.1025L46.1925 41.8763H57.555C58.1075 41.8763 58.555 41.4288 58.555 40.8763V26.245C58.555 25.6925 58.1075 25.245 57.555 25.245H48.0687C50.7425 22.6088 52.4038 18.9463 52.4038 14.9038C52.4038 6.8925 45.8862 0.375 37.875 0.375C29.8638 0.375 23.3463 6.8925 23.3463 14.9038C23.3463 15.5413 23.3875 16.17 23.4688 16.7875C21.2938 15.4163 18.7712 14.68 16.1488 14.68C8.565 14.68 2.39625 20.8488 2.39625 28.4325C2.39625 36.0163 8.565 42.185 16.1488 42.185V42.1862ZM56.555 27.2463V39.8775H45.7175C45.4162 39.8775 45.1325 40.0125 44.9425 40.2463L42.9762 42.66V40.8775C42.9762 40.325 42.5288 39.8775 41.9762 39.8775H38.875V29.3988C41.3063 29.2325 43.5762 28.465 45.535 27.245C47.4938 26.025 56.555 27.2463 56.555 27.2463ZM37.875 2.37625C44.7837 2.37625 50.4038 7.99625 50.4038 14.905C50.4038 21.8137 44.7837 27.4338 37.875 27.4338C30.9662 27.4338 25.3463 21.8137 25.3463 14.905C25.3463 7.99625 30.9662 2.37625 37.875 2.37625ZM16.1488 16.6812C19.1737 16.6812 22.0412 17.8263 24.2337 19.9062C24.9287 21.7962 26.0063 23.5025 27.3713 24.9325C27.7238 26.0613 27.9025 27.24 27.9025 28.4338C27.9025 34.9137 22.63 40.1862 16.15 40.1862C9.67 40.1862 4.3975 34.9137 4.3975 28.4338C4.3975 21.9538 9.67 16.6812 16.15 16.6812H16.1488ZM61.8763 43.2562C60.3488 42.1925 58.05 42.1125 55.7262 43.0412L41.0737 48.8988C41.08 48.7275 41.0787 48.5537 41.065 48.3775C40.9837 47.2825 40.305 44.73 35.7612 44.6875C31.9775 44.6525 27.9875 44.56 24.4513 43.8713C23.895 43.7625 23.36 43.6438 22.8412 43.5288C19.7625 42.8438 16.8463 42.1963 10.47 44.0187C10.4075 42.6937 9.3125 41.6338 7.97125 41.6338H2.88C1.49875 41.6338 0.375 42.7575 0.375 44.1387V60.6888C0.375 62.07 1.49875 63.1937 2.88 63.1937H7.9725C9.18375 63.1937 10.1962 62.33 10.4275 61.1862C12.5837 61.335 13.76 61.5812 14.475 61.76C19.6112 63.045 23.88 63.625 27.6787 63.625C37.0725 63.625 43.5825 60.0763 53.15 54.86C56.92 52.805 61.765 49.8775 63.43 47.6063C63.55 47.4412 63.6175 47.245 63.6237 47.0412C63.6662 45.415 63.045 44.0713 61.8775 43.2575L61.8763 43.2562ZM8.47625 60.6875C8.47625 60.9613 8.245 61.1925 7.97125 61.1925H2.88C2.60625 61.1925 2.375 60.9613 2.375 60.6875V44.1375C2.375 43.8638 2.60625 43.6325 2.88 43.6325H7.9725C8.24625 43.6325 8.4775 43.8638 8.4775 44.1375V60.6875H8.47625ZM52.1925 53.1025C38.7738 60.4175 32.0375 64.09 14.96 59.8187C14.1613 59.6187 12.8462 59.3438 10.4762 59.185V46.1012C16.7487 44.2238 19.375 44.8063 22.4062 45.4813C22.9375 45.5988 23.485 45.7212 24.0688 45.835C27.7712 46.5562 31.8662 46.6512 35.7412 46.6875C37.8612 46.7075 38.9813 47.325 39.07 48.525C39.1225 49.2338 38.9125 49.7975 38.41 50.2988C36.3337 52.3688 29.9838 52.675 24.735 52.2713C24.1838 52.2288 23.7037 52.6413 23.6612 53.1912C23.6187 53.7425 24.0312 54.2225 24.5812 54.265C25.7862 54.3575 27.2475 54.4338 28.7962 54.4338C32.905 54.4338 37.6313 53.8975 39.8213 51.715C39.905 51.6312 39.9837 51.545 40.0588 51.4575L56.4675 44.8988C58.1138 44.24 59.7887 44.24 60.7325 44.8988C61.2775 45.2788 61.575 45.875 61.6188 46.6738C60.3263 48.2013 56.93 50.5212 52.1912 53.105L52.1925 53.1025ZM10.0675 34.2962C9.9475 34.9212 10.1938 35.5412 10.7075 35.9137C11.2213 36.2875 11.8875 36.3288 12.4438 36.0225L16.1475 33.9837L19.8512 36.0225C20.0987 36.1587 20.3687 36.2262 20.6362 36.2262C20.97 36.2262 21.3025 36.1213 21.5875 35.9137C22.1012 35.54 22.3475 34.92 22.2275 34.2962L21.4325 30.1437L24.5163 27.2512C24.98 26.8162 25.1463 26.17 24.95 25.5662C24.7537 24.9613 24.24 24.5363 23.6087 24.4575L19.4137 23.93L17.6162 20.1025C17.3462 19.5275 16.7825 19.17 16.1475 19.17C15.5125 19.17 14.9488 19.5275 14.6788 20.1025L12.8813 23.93L8.68625 24.4575C8.055 24.5363 7.54125 24.9613 7.345 25.5662C7.14875 26.1712 7.315 26.8162 7.77875 27.2512L10.8625 30.1437L10.0675 34.2962ZM9.7325 26.3412L13.6775 25.845C14.0175 25.8025 14.3125 25.5888 14.4575 25.2775L16.1488 21.6787L17.84 25.2775C17.9862 25.5875 18.28 25.8012 18.62 25.845L22.565 26.3412L19.665 29.0613C19.415 29.2963 19.3025 29.6425 19.3675 29.9788L20.115 33.8838L16.6313 31.9662C16.3313 31.8012 15.9675 31.8012 15.6663 31.9662L12.1838 33.8838L12.9312 29.9788C12.9962 29.6425 12.8837 29.2963 12.6337 29.0613L9.73375 26.3412H9.7325ZM30.81 22.6413H32.8013C33.3162 22.6413 33.7775 22.4075 34.0863 22.04C34.4313 22.1 34.725 22.185 35.0462 22.2787C35.3925 22.3787 35.7863 22.4925 36.27 22.5812C36.8112 22.68 37.9712 22.7938 39.2837 22.7938C41.315 22.7938 43.71 22.52 44.7375 21.4925C44.7425 21.4875 44.7475 21.4825 44.7525 21.4775C45.995 20.1825 46.7712 14.9575 46.5812 13.6812C46.4712 12.9462 46.3475 12.1125 45.5337 11.535C44.8462 11.0462 43.825 10.865 42.0137 10.91H41.7225C42.0762 7.23875 41.48 5.10875 39.91 4.41375C38.7125 3.88375 37.3587 4.47125 36.64 5.3275C35.3612 6.85 35.1575 8.4075 35.01 9.545C34.855 10.735 34.79 11.2275 33.915 11.4838C33.6188 11.22 33.2288 11.0575 32.8013 11.0575H30.81C29.885 11.0575 29.1338 11.81 29.1338 12.7338V20.9638C29.1338 21.8888 29.8862 22.64 30.81 22.64V22.6413ZM36.9925 9.80375C37.1275 8.76375 37.2675 7.68875 38.1712 6.61375C38.3875 6.355 38.85 6.1325 39.1 6.2425C39.1488 6.26375 40.2812 6.82625 39.6075 11.775C39.5687 12.0612 39.655 12.35 39.845 12.5675C40.035 12.785 40.31 12.91 40.5988 12.91H42.0275H42.0525C43.7025 12.8675 44.2175 13.0525 44.3775 13.1663C44.4837 13.2413 44.53 13.4825 44.6037 13.9762C44.7612 15.0362 43.91 19.4137 43.315 20.0875C42.5537 20.815 38.4888 20.9513 36.6287 20.6125C36.245 20.5425 35.9325 20.4525 35.6025 20.3563C35.2563 20.2563 34.9037 20.155 34.4787 20.0775V13.3938C36.6087 12.745 36.8213 11.13 36.9938 9.8025L36.9925 9.80375ZM31.1325 13.0588H32.4762V20.6425H31.1325V13.0588ZM44.01 33.5625C44.01 34.4075 43.325 35.0913 42.4813 35.0913C41.6375 35.0913 40.9525 34.4062 40.9525 33.5625C40.9525 32.7188 41.6375 32.0337 42.4813 32.0337C43.325 32.0337 44.01 32.7188 44.01 33.5625ZM51.4175 33.5625C51.4175 32.7175 52.1025 32.0337 52.9463 32.0337C53.79 32.0337 54.475 32.7188 54.475 33.5625C54.475 34.4062 53.79 35.0913 52.9463 35.0913C52.1025 35.0913 51.4175 34.4062 51.4175 33.5625ZM46.185 33.5625C46.185 32.7175 46.87 32.0337 47.7137 32.0337C48.5575 32.0337 49.2425 32.7188 49.2425 33.5625C49.2425 34.4062 48.5575 35.0913 47.7137 35.0913C46.87 35.0913 46.185 34.4062 46.185 33.5625Z" fill="#6E1946"/>
</svg>
