<svg width="64" height="64" viewBox="0 0 64 64" fill="none" xmlns="http://www.w3.org/2000/svg">
<path d="M59.6512 4.61938H4.34875C2.01975 4.61938 0.125 6.51401 0.125 8.84301V47.6493C0.125 49.9781 2.01975 51.873 4.34875 51.873H18.6245L15.5646 57.1238C15.2904 57.5943 15.2867 58.154 15.5551 58.621C15.8243 59.0896 16.3249 59.3808 16.8614 59.3808H47.1387C47.6751 59.3808 48.1756 59.0898 48.4449 58.6213C48.7131 58.1543 48.7097 57.5946 48.4356 57.124L45.3758 51.873H59.6512C61.9802 51.873 63.875 49.9783 63.875 47.6493V8.84301C63.875 6.51401 61.9802 4.61938 59.6512 4.61938ZM4.34875 6.61938H59.6512C60.8775 6.61938 61.875 7.61688 61.875 8.84301V44.4753H2.125V8.84301C2.125 7.61688 3.1225 6.61938 4.34875 6.61938ZM46.2704 57.3806H17.7296L20.9393 51.8729H43.0607L46.2704 57.3806ZM59.6512 49.8729H4.34875C3.1225 49.8729 2.125 48.8754 2.125 47.6491V46.4751H61.875V47.6491C61.875 48.8754 60.8775 49.8729 59.6512 49.8729ZM25.0882 20.9371L29.3876 22.9965V28.2661C29.3876 28.9624 29.7776 29.5818 30.4056 29.8825L38.4291 33.726C39.5039 34.2408 40.6091 34.4981 41.7145 34.4981C42.8199 34.4981 43.9252 34.2408 44.9999 33.726L53.0236 29.8825C53.6514 29.5818 54.0415 28.9625 54.0415 28.2661V22.9966L55.6639 22.2195V27.5813L53.7665 29.3424C53.5626 29.5316 53.4468 29.7971 53.4468 30.0753V34.1909C53.4468 34.7431 53.8945 35.1909 54.4468 35.1909H58.8807C59.433 35.1909 59.8807 34.7431 59.8807 34.1909V30.0753C59.8807 29.7971 59.7649 29.5315 59.561 29.3424L57.6637 27.5814V21.2614L58.4174 20.9004C58.8245 20.7053 59.0773 20.316 59.0773 19.8845C59.0771 19.4276 58.8019 19.023 58.3408 18.802L42.4926 11.2108C42.1053 11.0251 41.4976 10.9419 41.0129 11.174L25.0116 18.8386C25.0115 18.8386 25.0114 18.8386 25.0114 18.8388C24.6042 19.034 24.3515 19.4233 24.3516 19.8549C24.3518 20.312 24.6274 20.7165 25.0882 20.9371ZM57.8806 33.191H55.4466V30.5115L56.6635 29.3819L57.8805 30.5115V33.191H57.8806ZM52.0414 28.1354L44.1357 31.9223C42.5518 32.6809 40.8773 32.681 39.293 31.9223L31.3876 28.1354V23.9546L40.9369 28.5288C41.1574 28.6344 41.4492 28.7068 41.749 28.7068C41.9759 28.7068 42.2074 28.6653 42.416 28.5653L52.0415 23.9546V28.1354H52.0414ZM41.7144 13.0556L55.2948 19.5606L41.7655 18.8709C41.216 18.843 40.744 19.267 40.716 19.8188C40.6877 20.3704 41.1121 20.8403 41.6637 20.8684L52.6824 21.4301L41.7146 26.6836L27.4893 19.8696L41.7144 13.0556ZM6.03975 37.9423H12.7656C13.5927 37.9423 14.2656 37.2694 14.2656 36.4423V32.817C14.2656 31.9899 13.5927 31.317 12.7656 31.317H6.03975C5.21263 31.317 4.53975 31.9899 4.53975 32.817V36.4423C4.53975 37.2693 5.21263 37.9423 6.03975 37.9423ZM6.53975 33.3169H12.2656V35.9421H6.53975V33.3169ZM29.8215 36.678L30.1211 36.3783C30.4985 36.0011 30.6256 35.4528 30.453 34.947C30.2814 34.444 29.8461 34.0894 29.317 34.0216L26.7379 33.691V32.817C26.7379 31.9899 26.065 31.317 25.2379 31.317H18.512C17.6849 31.317 17.012 31.9899 17.012 32.817V36.4423C17.012 37.2694 17.6849 37.9423 18.512 37.9423H23.4715L23.6901 39.6483C23.758 40.1775 24.1126 40.6129 24.6157 40.7845C25.1216 40.9573 25.6701 40.8298 26.0467 40.4526L26.3464 40.1529L29.2717 43.0783C29.5656 43.372 29.9515 43.5188 30.3372 43.5188C30.7232 43.5188 31.1092 43.3719 31.403 43.0781L32.7465 41.7344C33.3339 41.1469 33.3339 40.1909 32.7465 39.6033L29.8215 36.678ZM23.486 33.8174C23.1803 34.1233 23.0363 34.545 23.0914 34.9745L23.2154 35.9423H19.0123V33.317H24.7381V33.4346L24.643 33.4224C24.2136 33.3679 23.7919 33.5114 23.486 33.8174ZM30.3376 41.3154L27.0537 38.0315C26.8585 37.8363 26.6025 37.7386 26.3466 37.7386C26.0906 37.7386 25.8347 37.8363 25.6395 38.0315L25.5154 38.1558L25.1759 35.5071L27.8245 35.8466L27.7001 35.971C27.3096 36.3616 27.3096 36.9946 27.7001 37.3851L30.984 40.669L30.3376 41.3154ZM7.01125 13.1513C7.01125 12.599 7.459 12.1513 8.01125 12.1513H23.2666C23.8189 12.1513 24.2666 12.599 24.2666 13.1513C24.2666 13.7035 23.8189 14.1513 23.2666 14.1513H8.01125C7.459 14.1513 7.01125 13.7036 7.01125 13.1513ZM7.01125 26.8091C7.01125 26.2569 7.459 25.8091 8.01125 25.8091H23.2666C23.8189 25.8091 24.2666 26.2569 24.2666 26.8091C24.2666 27.3614 23.8189 27.8091 23.2666 27.8091H8.01125C7.459 27.8091 7.01125 27.3614 7.01125 26.8091ZM7.01125 22.2565C7.01125 21.7043 7.459 21.2565 8.01125 21.2565H23.2666C23.8189 21.2565 24.2666 21.7043 24.2666 22.2565C24.2666 22.8088 23.8189 23.2565 23.2666 23.2565H8.01125C7.459 23.2565 7.01125 22.8088 7.01125 22.2565ZM7.01125 17.7039C7.01125 17.1516 7.459 16.7039 8.01125 16.7039H23.2666C23.8189 16.7039 24.2666 17.1516 24.2666 17.7039C24.2666 18.2561 23.8189 18.7039 23.2666 18.7039H8.01125C7.459 18.7039 7.01125 18.2563 7.01125 17.7039Z" fill="#6E1946"/>
</svg>
