<svg width="104" height="57" viewBox="0 0 104 57" fill="none" xmlns="http://www.w3.org/2000/svg">
<path fill-rule="evenodd" clip-rule="evenodd" d="M47.0685 35.4914C47.0685 41.1371 51.658 45.7813 57.3324 45.7813C62.9782 45.7813 67.539 41.1398 67.539 35.4914C67.539 29.843 63.064 25.0323 57.3324 25.0323C51.6007 25.0323 47.0685 29.8456 47.0685 35.4914ZM49.5167 35.4888C49.5167 31.1516 52.938 27.4233 57.3324 27.4233C61.7267 27.4233 65.1194 31.1777 65.1194 35.4888C65.1194 39.7998 61.6721 43.3877 57.3324 43.3877C52.9927 43.3877 49.5167 39.8259 49.5167 35.4888ZM71.8475 31.2895C71.8475 29.2055 73.4346 27.3687 75.5758 27.3687C76.9938 27.3687 78.0501 28.0634 78.8852 29.1483V26.1173C77.7743 25.4226 76.8559 25.0323 75.4926 25.0323C72.0426 25.0323 69.5684 28.0087 69.5684 31.3468C69.5684 34.3161 71.0828 35.5843 72.5113 36.7806C73.7864 37.8484 74.993 38.8589 74.993 40.9706C74.993 43.0286 73.9913 44.3633 72.3236 45.4196H75.6877C76.744 44.2801 77.2721 42.36 77.2721 40.8301C77.2721 37.6138 75.6732 36.3155 74.2115 35.1286C72.9809 34.1293 71.8475 33.209 71.8475 31.2895ZM91.319 42.8049C90.3459 44.6417 88.6756 45.7813 86.563 45.7813C84.6429 45.7813 82.5589 44.5845 81.7784 42.8049C81.1384 41.3583 81.1384 39.7452 81.1384 38.2154V38.2154V25.394H83.4461V38.244L83.4459 38.4581C83.4442 39.541 83.442 40.8965 83.8077 41.8865C84.224 42.9714 85.4495 43.5542 86.5604 43.5542C87.6713 43.5542 88.8421 42.9974 89.287 41.8865C89.6714 40.8771 89.6615 39.8056 89.6517 38.7441C89.6502 38.5771 89.6487 38.4103 89.6487 38.244V25.394H91.9564V38.6603C91.9564 38.8056 91.9572 38.9484 91.9579 39.0891V39.0891C91.965 40.4289 91.971 41.5711 91.3164 42.8049H91.319ZM96.9622 31.2895C96.9622 29.2055 98.5493 27.3687 100.69 27.3687C102.108 27.3687 103.165 28.0634 104 29.1483V26.1173C102.889 25.4226 101.971 25.0323 100.607 25.0323C97.1573 25.0323 94.6831 28.0087 94.6831 31.3468C94.6831 34.3161 96.1975 35.5843 97.626 36.7806C98.9011 37.8484 100.108 38.8589 100.108 40.9706C100.108 43.0286 99.106 44.3633 97.4383 45.4196H100.802C101.859 44.2801 102.387 42.36 102.387 40.8301C102.387 37.6138 100.788 36.3155 99.3262 35.1286C98.0955 34.1293 96.9622 33.209 96.9622 31.2895Z" fill="#0F2837"/>
<path fill-rule="evenodd" clip-rule="evenodd" d="M60.8655 51.5129V51.5233C60.8733 51.7783 60.8031 51.976 60.6548 52.1165C60.5065 52.257 60.3062 52.3273 60.0486 52.3273C59.791 52.3273 59.5725 52.2414 59.4138 52.0723C59.2551 51.9032 59.177 51.6638 59.177 51.3568V50.6387C59.177 50.3317 59.2551 50.095 59.4112 49.9233C59.5673 49.7515 59.7754 49.6657 60.0382 49.6657C60.301 49.6657 60.5091 49.7333 60.6574 49.8712C60.8057 50.0091 60.8785 50.2068 60.8733 50.4722V50.4826H60.5221C60.5221 50.2979 60.4805 50.1626 60.4024 50.0742C60.3218 49.9857 60.2021 49.9441 60.0408 49.9441C59.8795 49.9441 59.7598 50.0039 59.6713 50.1236C59.5855 50.2433 59.5412 50.415 59.5412 50.6361V51.3594C59.5412 51.5858 59.5855 51.7575 59.6739 51.8772C59.7624 51.9968 59.8899 52.0567 60.0512 52.0567C60.2125 52.0567 60.3244 52.0125 60.4024 51.9266C60.4805 51.8407 60.5195 51.7028 60.5195 51.5129H60.8655ZM63.0042 51.3568C63.0042 51.6638 62.9209 51.9032 62.7544 52.0749C62.5879 52.2466 62.3667 52.3325 62.0884 52.3325C61.81 52.3325 61.594 52.2466 61.4327 52.0749C61.2714 51.9032 61.1882 51.6638 61.1882 51.3568V50.6465C61.1882 50.3395 61.2688 50.1002 61.4327 49.9285C61.5966 49.7567 61.8126 49.6683 62.0884 49.6683C62.3641 49.6683 62.5905 49.7541 62.757 49.9285C62.9235 50.1002 63.0068 50.3395 63.0068 50.6465V51.3568H63.0042ZM62.6451 50.6387C62.6451 50.4124 62.5957 50.2433 62.4994 50.1262C62.4032 50.0091 62.2653 49.9519 62.0858 49.9519C61.9062 49.9519 61.7788 50.0091 61.6877 50.1262C61.594 50.2433 61.5472 50.415 61.5472 50.6387V51.3542C61.5472 51.5832 61.594 51.7549 61.6877 51.872C61.7814 51.989 61.914 52.0489 62.0884 52.0489C62.2627 52.0489 62.4058 51.9916 62.502 51.8746C62.5983 51.7575 62.6451 51.5858 62.6451 51.3568V50.6413V50.6387ZM64.5184 51.8173H64.5106L63.8914 49.7047H63.4204V52.2934H63.7795V50.3967H63.7899L64.3935 52.2934H64.6407L65.2339 50.428H65.2443V52.2934H65.6033V49.7047H65.1402L64.5184 51.8173ZM67.167 51.8173H67.1748L67.7966 49.7047H68.2597V52.2934H67.9007V50.428H67.8902L67.297 52.2934H67.0499L66.4463 50.3967H66.4359V52.2934H66.0768V49.7047H66.5477L67.167 51.8173ZM70.4374 51.4141V49.7021H70.0757V51.4141C70.0757 51.6144 70.0289 51.7731 69.9352 51.885C69.8416 51.9968 69.7167 52.0541 69.5684 52.0541C69.4201 52.0541 69.303 51.9994 69.2119 51.885C69.1209 51.7705 69.0767 51.6144 69.0767 51.4141V49.7021H68.715V51.4141C68.715 51.7002 68.7931 51.924 68.9518 52.0853C69.1105 52.2466 69.3108 52.3273 69.5684 52.3273C69.826 52.3273 70.0341 52.2466 70.1954 52.0853C70.3567 51.924 70.4374 51.7002 70.4374 51.4141ZM72.6358 52.2934H72.2742L71.2699 50.3837H71.2595V52.2934H70.8979V49.7047H71.2595L72.2638 51.6092H72.2742V49.7047H72.6358V52.2934ZM73.1614 52.2934H73.523V49.7047H73.1614V52.2934ZM75.5498 49.9805H74.8629V52.2934H74.5013V49.9805H73.8196V49.7021H75.5498V49.9805ZM76.6451 50.9665H76.6347H76.6321L76.091 49.7047H75.6903L76.4526 51.336V52.2934H76.8142V51.362L77.5922 49.7047H77.1863L76.6451 50.9665ZM79.8739 51.6417C79.8736 51.5226 79.8398 51.4268 79.7724 51.3516C79.7048 51.2762 79.5851 51.2059 79.416 51.1435C79.174 51.068 78.9867 50.9692 78.8566 50.8495C78.7265 50.7298 78.6615 50.5711 78.6615 50.3707C78.6615 50.1704 78.7343 49.9987 78.8774 49.866C79.0205 49.7333 79.2053 49.6683 79.4316 49.6683C79.671 49.6683 79.8635 49.7411 80.0066 49.8894C80.1497 50.0377 80.2225 50.2198 80.2173 50.4436V50.454H79.8661C79.8661 50.3031 79.8245 50.1808 79.7464 50.0846C79.6684 49.9883 79.5591 49.9441 79.429 49.9441C79.2989 49.9441 79.2027 49.9857 79.1298 50.0637C79.0596 50.1444 79.0231 50.2459 79.0231 50.3655C79.0231 50.4774 79.0596 50.5711 79.135 50.6439C79.2105 50.7168 79.3353 50.787 79.5123 50.8521C79.749 50.9301 79.9285 51.029 80.0508 51.1539C80.1731 51.2788 80.2355 51.4401 80.2355 51.6378C80.2355 51.8485 80.1627 52.0177 80.017 52.1425C79.8713 52.2674 79.6814 52.3299 79.4446 52.3299C79.2079 52.3299 79.0179 52.2622 78.8514 52.1269C78.6849 51.9916 78.6016 51.7991 78.6068 51.5441V51.5337H78.9581C78.9581 51.708 79.0049 51.8407 79.0986 51.9266C79.1922 52.0125 79.3067 52.0567 79.4446 52.0567C79.5825 52.0567 79.684 52.0203 79.7594 51.9448C79.8346 51.8696 79.8736 51.7686 79.8739 51.6417ZM80.9978 51.0914H81.8772V50.8182H80.9978V49.9831H82.0229V49.7047H80.6362V52.2934H82.0333V52.0202H80.9978V51.0914ZM82.7566 51.1773V52.2934H82.395V49.7047H83.1573C83.4071 49.7047 83.5996 49.7671 83.7349 49.8946C83.8702 50.0221 83.9378 50.2042 83.9378 50.441C83.9378 50.5763 83.9066 50.6933 83.8415 50.7948C83.7791 50.8963 83.688 50.9743 83.5684 51.0316C83.7011 51.0758 83.7973 51.1513 83.8546 51.2553C83.9118 51.3594 83.943 51.4895 83.943 51.643V51.8693C83.943 51.95 83.9508 52.0228 83.9664 52.0905C83.982 52.1581 84.0081 52.2128 84.0471 52.2518V52.2934H83.675C83.6334 52.2544 83.6074 52.1946 83.597 52.1139C83.584 52.0332 83.5788 51.9526 83.5788 51.8667V51.6482C83.5788 51.5025 83.545 51.388 83.4773 51.3048C83.4097 51.2215 83.3186 51.1773 83.1989 51.1773H82.7566ZM82.7566 50.9015H83.1417C83.29 50.9015 83.4019 50.8625 83.4721 50.7818C83.5424 50.7038 83.5788 50.5919 83.5788 50.4462C83.5788 50.3005 83.5449 50.1834 83.4747 50.1002C83.4045 50.0195 83.3004 49.9779 83.1599 49.9779H82.7592V50.8989L82.7566 50.9015ZM85.1346 51.8563L85.0982 51.6976H85.0956L84.557 49.7021H84.172L84.9629 52.2908H85.3142L86.1051 49.7021H85.72L85.1815 51.7002L85.145 51.8563H85.1346ZM86.7841 52.2934H86.4225V49.7047H86.7841V52.2934ZM88.9332 51.5233V51.5129H88.5871C88.5871 51.7028 88.5481 51.8407 88.4701 51.9266C88.392 52.0125 88.2801 52.0567 88.1188 52.0567C87.9575 52.0567 87.83 51.9968 87.7416 51.8772C87.6531 51.7575 87.6089 51.5858 87.6089 51.3594V50.6361C87.6089 50.415 87.6531 50.2433 87.739 50.1236C87.8274 50.0039 87.9471 49.9441 88.1084 49.9441C88.2697 49.9441 88.3894 49.9857 88.4701 50.0742C88.5481 50.1626 88.5897 50.2979 88.5897 50.4826H88.941V50.4722C88.9462 50.2068 88.8733 50.0091 88.725 49.8712C88.5767 49.7333 88.3686 49.6657 88.1058 49.6657C87.8431 49.6657 87.6349 49.7515 87.4788 49.9233C87.3227 50.095 87.2446 50.3317 87.2446 50.6387V51.3568C87.2446 51.6638 87.3227 51.9032 87.4814 52.0723C87.6401 52.2414 87.8587 52.3273 88.1162 52.3273C88.3738 52.3273 88.5741 52.257 88.7224 52.1165C88.8707 51.976 88.941 51.7783 88.9332 51.5233ZM90.5671 51.0914H89.6877V52.0202H90.7232V52.2934H89.326V49.7047H90.7128V49.9831H89.6877V50.8182H90.5671V51.0914ZM92.1671 51.3516C92.2345 51.4268 92.2684 51.5226 92.2686 51.6417C92.2684 51.7686 92.2293 51.8696 92.1541 51.9448C92.0787 52.0203 91.9772 52.0567 91.8393 52.0567C91.7014 52.0567 91.587 52.0125 91.4933 51.9266C91.3996 51.8407 91.3528 51.708 91.3528 51.5337H91.0016V51.5441C90.9964 51.7991 91.0796 51.9916 91.2461 52.1269C91.4126 52.2622 91.6026 52.3299 91.8393 52.3299C92.0761 52.3299 92.266 52.2674 92.4117 52.1425C92.5574 52.0177 92.6303 51.8485 92.6303 51.6378C92.6303 51.4401 92.5678 51.2788 92.4455 51.1539C92.3233 51.029 92.1437 50.9301 91.907 50.8521C91.7301 50.787 91.6052 50.7168 91.5297 50.6439C91.4543 50.5711 91.4178 50.4774 91.4178 50.3655C91.4178 50.2459 91.4543 50.1444 91.5245 50.0637C91.5974 49.9857 91.6936 49.9441 91.8237 49.9441C91.9538 49.9441 92.0631 49.9883 92.1411 50.0846C92.2192 50.1808 92.2608 50.3031 92.2608 50.454H92.612V50.4436C92.6172 50.2198 92.5444 50.0377 92.4013 49.8894C92.2582 49.7411 92.0657 49.6683 91.8263 49.6683C91.6 49.6683 91.4152 49.7333 91.2721 49.866C91.129 49.9987 91.0562 50.1704 91.0562 50.3707C91.0562 50.5711 91.1212 50.7298 91.2513 50.8495C91.3814 50.9692 91.5687 51.068 91.8107 51.1435C91.9798 51.2059 92.0995 51.2762 92.1671 51.3516Z" fill="#0F2837"/>
<path d="M47.594 51.2007H55.3238" stroke="#0F2837" stroke-miterlimit="10"/>
<path d="M64.4162 11.0247L58.6266 5.23516L52.837 11.0247L58.6266 16.8143L64.4162 11.0247Z" stroke="#0F2837" stroke-miterlimit="10"/>
<path d="M62.8193 11.0247L58.6266 6.83204L54.4339 11.0247L58.6266 15.2174L62.8193 11.0247Z" stroke="#0F2837" stroke-miterlimit="10"/>
<path d="M61.0826 11.0247L58.6266 8.56872L56.1706 11.0247L58.6266 13.4808L61.0826 11.0247Z" stroke="#0F2837" stroke-miterlimit="10"/>
<path d="M58.7244 9.82513C61.1254 9.82513 63.0719 7.87868 63.0719 5.47761C63.0719 3.07654 61.1254 1.13009 58.7244 1.13009C56.3233 1.13009 54.3768 3.07654 54.3768 5.47761C54.3768 7.87868 56.3233 9.82513 58.7244 9.82513Z" stroke="#6E1946" stroke-miterlimit="10"/>
<path d="M58.7244 21.4393C61.1254 21.4393 63.0719 19.4929 63.0719 17.0918C63.0719 14.6907 61.1254 12.7443 58.7244 12.7443C56.3233 12.7443 54.3768 14.6907 54.3768 17.0918C54.3768 19.4929 56.3233 21.4393 58.7244 21.4393Z" stroke="#6E1946" stroke-miterlimit="10"/>
<path d="M52.9147 15.6322C55.3157 15.6322 57.2622 13.6858 57.2622 11.2847C57.2622 8.88364 55.3157 6.93719 52.9147 6.93719C50.5136 6.93719 48.5671 8.88364 48.5671 11.2847C48.5671 13.6858 50.5136 15.6322 52.9147 15.6322Z" stroke="#FF9619" stroke-miterlimit="10"/>
<path d="M64.5315 15.6322C66.9325 15.6322 68.879 13.6858 68.879 11.2847C68.879 8.88364 66.9325 6.93719 64.5315 6.93719C62.1304 6.93719 60.184 8.88364 60.184 11.2847C60.184 13.6858 62.1304 15.6322 64.5315 15.6322Z" stroke="#91B9B4" stroke-miterlimit="10"/>
<path d="M20.1352 56.9974C31.1247 56.9974 40.0334 48.0887 40.0334 37.0992C40.0334 26.1098 31.1247 17.2011 20.1352 17.2011C9.14577 17.2011 0.237061 26.1098 0.237061 37.0992C0.237061 48.0887 9.14577 56.9974 20.1352 56.9974Z" fill="#0F2837"/>
<path d="M27.0428 20.6796C26.7202 20.357 26.1973 20.357 25.8746 20.6796L1.77466 44.7796C2.31322 46.0675 2.98707 47.2851 3.7728 48.4168L28.6949 23.4947C29.0175 23.1721 29.0175 22.6491 28.6949 22.3265L27.0454 20.677L27.0428 20.6796Z" fill="#91B9B4"/>
<path fill-rule="evenodd" clip-rule="evenodd" d="M46.4857 17.1516L42.0185 12.6844C41.6959 12.3618 41.1729 12.3618 40.8503 12.6844L37.7308 15.8039L43.3662 21.4393L46.4857 18.3198C46.8083 17.9972 46.8083 17.4743 46.4857 17.1516ZM36.7004 16.8401L19.1072 34.4333L24.7423 40.0683L42.3354 22.4751L36.7004 16.8401ZM14.8615 38.6759L18.072 35.4653L18.0746 35.4679L23.71 41.1033L20.4995 44.3139C20.1768 44.6365 19.6539 44.6365 19.3313 44.3139L14.8615 39.8441C14.5389 39.5215 14.5389 38.9985 14.8615 38.6759Z" fill="#6E1946"/>
<path fill-rule="evenodd" clip-rule="evenodd" d="M36.9165 30.5532C36.5939 30.2306 36.071 30.2306 35.7483 30.5532L32.7832 33.5184L38.4186 39.1538L41.3837 36.1886C41.7063 35.866 41.7063 35.343 41.3837 35.0204L36.9165 30.5532ZM31.9552 34.3464L32.2203 34.0813L37.8556 39.7167L37.5905 39.9818L31.9552 34.3464ZM31.3922 34.9094L11.3466 54.955C13.9977 56.2611 16.9793 57 20.1327 57C20.2336 57 20.3334 56.9977 20.4328 56.9953H20.4329C20.4821 56.9942 20.5311 56.993 20.5802 56.9922L37.0276 40.5447L31.3922 34.9094Z" fill="#6E1946"/>
<path fill-rule="evenodd" clip-rule="evenodd" d="M26.1738 8.52425C25.8512 8.20163 25.3283 8.20163 25.0056 8.52425L22.5261 11.0038L28.1628 16.6404L30.6436 14.1596C30.9663 13.837 30.9663 13.3141 30.6436 12.9914L26.1738 8.52165V8.52425ZM21.6979 11.832L21.9632 11.5667L27.5999 17.2034L27.3345 17.4687L21.6979 11.832ZM21.1349 12.395L0.69493 32.835C0.408738 34.1463 0.252633 35.507 0.239624 36.9015L3.4866 40.1485C3.80922 40.4711 4.33217 40.4711 4.65479 40.1485L26.7716 18.0317L21.1349 12.395Z" fill="#FF9619"/>
<path d="M96.2727 51.2007H104" stroke="#0F2837" stroke-miterlimit="10"/>
</svg>
