<svg width="765" height="764" viewBox="0 0 765 764" fill="none" xmlns="http://www.w3.org/2000/svg">
<path d="M596.508 372.05L379.223 154.765L161.938 372.05L379.223 589.335L596.508 372.05Z" stroke="#657399" stroke-width="3" stroke-miterlimit="10"/>
<path d="M536.577 372.05L379.223 214.696L221.869 372.05L379.223 529.404L536.577 372.05Z" stroke="#657399" stroke-width="3" stroke-miterlimit="10"/>
<path d="M471.398 372.05L379.223 279.875L287.048 372.05L379.223 464.225L471.398 372.05Z" stroke="#657399" stroke-width="3" stroke-miterlimit="10"/>
<path d="M382.892 327.028C473.005 327.028 546.056 253.977 546.056 163.864C546.056 73.7508 473.005 0.699707 382.892 0.699707C292.779 0.699707 219.728 73.7508 219.728 163.864C219.728 253.977 292.779 327.028 382.892 327.028Z" stroke="#6E1946" stroke-miterlimit="10"/>
<path d="M382.892 762.914C473.005 762.914 546.056 689.863 546.056 599.75C546.056 509.637 473.005 436.585 382.892 436.585C292.779 436.585 219.728 509.637 219.728 599.75C219.728 689.863 292.779 762.914 382.892 762.914Z" stroke="#6E1946" stroke-miterlimit="10"/>
<path d="M164.852 544.971C254.965 544.971 328.016 471.92 328.016 381.807C328.016 291.694 254.965 218.643 164.852 218.643C74.7388 218.643 1.68762 291.694 1.68762 381.807C1.68762 471.92 74.7388 544.971 164.852 544.971Z" stroke="#FF9619" stroke-width="3" stroke-miterlimit="10"/>
<path d="M600.836 544.971C690.949 544.971 764 471.92 764 381.807C764 291.694 690.949 218.643 600.836 218.643C510.723 218.643 437.672 291.694 437.672 381.807C437.672 471.92 510.723 544.971 600.836 544.971Z" stroke="#91B9B4" stroke-miterlimit="10"/>
</svg>
