<svg width="21" height="14" viewBox="0 0 21 14" fill="none" xmlns="http://www.w3.org/2000/svg">
<path d="M0.174316 0.171265H20.662V13.8295H0.174316V0.171265Z" fill="#026C34"/>
<path d="M5.07833 3.66319C5.07833 3.66319 5.20243 3.48795 5.20243 3.32209C5.20243 3.15555 5.10068 3.18322 5.06303 3.21141C5.02479 3.24028 4.95011 3.31436 4.98888 3.35973C5.02652 3.40502 5.06888 3.32561 5.09475 3.32561C5.12122 3.32561 5.12827 3.33971 5.12827 3.40907C5.12827 3.4785 5.07833 3.66319 5.07833 3.66319Z" fill="white"/>
<path d="M4.78022 3.69681C4.78022 3.69681 4.78787 4.5556 4.97608 4.5556C4.97608 4.5556 5.05961 4.5556 5.08256 4.3326C5.1067 4.10967 5.20373 3.5521 5.43843 3.5521C5.67253 3.5521 5.32078 4.00327 5.50666 4.39851C5.50666 4.39851 5.5737 4.54495 5.70132 4.54495C5.70132 4.54495 5.67013 3.94853 5.62956 3.74975C5.58959 3.54977 5.61194 3.54977 5.61194 3.54977C5.61194 3.54977 5.52136 3.44037 5.57955 3.34162C5.63893 3.24279 5.6678 3.20455 5.72246 3.2904C5.776 3.37678 5.96894 3.6504 5.79242 3.7445L5.86538 4.51796C5.86538 4.51796 6.05007 4.40083 6.00538 4.18675C5.96061 3.97088 5.86651 3.65272 5.98063 3.48446C5.98063 3.48446 6.13352 3.58389 6.13352 3.73678C6.13352 3.89035 6.12183 4.50034 6.43001 4.50034C6.73706 4.50034 6.35472 3.81626 6.35472 3.69329C6.35472 3.69329 6.34063 3.65977 6.41411 3.58216C6.4876 3.50456 6.49652 3.47509 6.55298 3.53387C6.60884 3.59266 6.7106 3.69501 6.7106 3.79564C6.7106 3.89619 6.62422 3.8533 6.62422 3.8533C6.62422 3.8533 6.72829 4.18271 6.72829 4.40263C6.72829 4.62316 6.60067 4.80139 6.36425 4.80139C6.12895 4.80139 6.08373 4.51256 6.08373 4.51256C6.08373 4.51256 5.95311 4.72319 5.88668 4.7678L5.93722 5.73539C5.93722 5.73539 5.93137 5.8807 5.85136 5.95591C5.85136 5.95591 5.83374 5.96356 5.82662 5.86361C5.81957 5.76531 5.72779 4.876 5.72779 4.876C5.72779 4.876 5.31253 4.94776 5.31253 4.33252C5.31253 4.33252 5.31725 4.23084 5.32783 4.1108C5.3396 3.99135 5.32663 3.86253 5.28846 3.95791C5.25022 4.05321 5.23725 4.13779 5.17734 4.44132C5.11615 4.74366 5.03967 4.82839 4.94909 4.82839C4.85851 4.82839 4.69092 4.55072 4.69092 4.09842C4.69084 3.6456 4.78022 3.69681 4.78022 3.69681Z" fill="white"/>
<path d="M6.28896 3.24504C6.28896 3.24504 6.30305 3.4145 6.36424 3.4145C6.42663 3.4145 6.4348 3.29505 6.4348 3.29505C6.4348 3.29505 6.45827 3.3174 6.45827 3.39508C6.45827 3.47209 6.40061 3.50268 6.36949 3.50268C6.3371 3.50268 6.27823 3.46804 6.27823 3.43032C6.27823 3.43032 6.25064 3.49623 6.16591 3.49623C6.08185 3.49623 6.04541 3.39508 6.04541 3.33449C6.04541 3.27391 6.06948 3.22217 6.0889 3.22217C6.10832 3.22217 6.11717 3.31042 6.11717 3.32804C6.11717 3.34687 6.13239 3.40625 6.16883 3.40625C6.20527 3.40625 6.24014 3.37386 6.28896 3.24504Z" fill="white"/>
<path d="M4.77002 5.6301C4.77002 5.6301 5.06298 5.21897 5.52053 5.09839C5.52053 5.09839 5.59934 5.066 5.59934 5.14893C5.59934 5.23306 5.60991 5.23014 5.50291 5.26193C5.39531 5.29418 5.11239 5.41482 4.77002 5.6301Z" fill="white"/>
<path d="M8.16285 5.18309C8.16285 5.14545 8.15925 4.92898 8.1228 4.92665C8.08636 4.92545 7.99166 5.00013 8.00928 5.01896C8.0269 5.03898 8.08869 5.31544 7.94397 5.31544C7.79865 5.31544 7.75809 4.96189 7.75809 4.96189C7.67815 5.18714 7.5746 5.34303 7.4652 5.34303C7.35752 5.34303 7.32873 5.20304 7.32873 5.1696C7.32873 5.13548 7.35408 4.98424 7.29589 4.98424C7.23643 4.98424 7.11705 5.11606 7.11705 5.11606L7.03585 3.94669C7.11705 4.03435 7.16647 3.96784 7.16647 3.88498C7.16647 3.80205 7.00353 3.36677 6.96521 3.30086C6.92757 3.23623 6.85229 3.32088 6.78878 3.41618C6.72406 3.51149 6.79695 3.60027 6.79695 3.60027C6.79695 3.73374 6.81344 3.94204 6.86053 4.3531C6.90875 4.76484 6.94939 5.22546 6.94939 5.22546L6.7935 5.31776C6.7935 5.31776 6.69355 4.97779 6.42533 4.97779C6.15712 4.97779 6.15944 5.20424 6.15944 5.53889C6.15944 5.87354 6.67697 5.6159 6.67697 5.6159C6.67697 5.8353 6.35822 6.27995 5.93239 6.27995C5.50656 6.27995 5.61191 5.53432 5.61191 5.53432C5.36544 6.04308 5.51721 6.56009 5.92422 6.56009C6.33063 6.56009 6.70119 6.18247 6.78945 6.00551C6.87771 5.829 6.84179 5.55614 6.84179 5.55614L6.96176 5.4867C6.96176 5.4867 6.99236 5.89251 6.93477 6.1572C6.87771 6.42249 6.33483 6.79186 5.88305 6.79186C5.43135 6.79186 5.37901 6.36956 5.37901 6.24193C5.37901 6.11431 5.40901 5.96667 5.40901 5.87137C5.40901 5.77606 5.38546 5.73317 5.38546 5.73317C5.25604 5.90316 5.26076 6.30717 5.26076 6.30717C5.26076 7.05588 5.62428 7.08242 5.84781 7.08242C6.07126 7.08242 6.42773 7.03766 6.86826 6.73128C7.30819 6.42602 7.13827 5.41487 7.13827 5.41487L7.17119 5.37895C7.17119 5.37895 7.16647 5.52659 7.38647 5.52659C7.60587 5.52659 7.71467 5.36073 7.71467 5.36073C7.80293 5.49548 7.92282 5.49547 7.92282 5.49547C8.17994 5.49547 8.16285 5.22194 8.16285 5.18309ZM6.42773 5.43189C6.32185 5.43189 6.30423 5.23603 6.38836 5.23603C6.47302 5.23603 6.58122 5.3896 6.58122 5.3896C6.58122 5.3896 6.53533 5.43189 6.42773 5.43189Z" fill="white"/>
<path d="M4.97255 6.03656C4.97255 6.03656 5.00547 6.18008 4.95021 6.33072C4.89555 6.48129 4.86195 7.01352 5.13489 6.66477C5.13489 6.66477 5.23725 7.01352 4.97255 7.01352C4.70674 7.01352 4.81141 6.43592 4.8837 6.23954C4.95493 6.04316 4.97255 6.03656 4.97255 6.03656Z" fill="white"/>
<path d="M7.66625 5.92429C7.66625 5.92429 7.54688 5.99193 7.54688 5.85486C7.54688 5.71726 7.66505 5.73256 7.66505 5.73256C7.66505 5.73256 7.7674 5.74021 7.7674 5.93779C7.7674 6.13537 7.64623 6.23068 7.64623 6.23068C7.64623 6.23068 7.70621 6.03954 7.66625 5.92429Z" fill="white"/>
<path d="M8.26115 3.43102C8.26115 3.38573 8.24526 3.24274 8.13413 3.24274C8.02241 3.24274 7.91121 3.34921 7.91121 3.51035C7.91121 3.67149 7.99001 3.70801 7.99001 3.70801C7.77354 4.05323 7.0183 4.48086 7.50765 4.26911C7.99699 4.05676 8.11179 3.79087 8.11179 3.79087C8.27937 3.79859 8.18295 3.66497 8.18295 3.66497C8.18295 3.66497 8.26115 3.47511 8.26115 3.43102ZM8.07819 3.56622C8.0317 3.52737 8.04408 3.48441 8.05705 3.45329C8.07002 3.4209 8.13053 3.38798 8.13053 3.44909C8.13061 3.51148 8.07819 3.56622 8.07819 3.56622Z" fill="white"/>
<path d="M8.13722 4.40496C8.13722 4.40496 8.12425 4.65615 7.9161 4.65615C7.70667 4.65615 7.74671 4.3227 7.96379 4.16561C7.96379 4.16561 8.00375 4.16208 7.95726 4.24682C7.91145 4.33087 7.81847 4.53085 7.94729 4.53085C8.07664 4.53085 8.13722 4.40496 8.13722 4.40496Z" fill="white"/>
<path d="M9.44848 3.41151C9.44848 3.41151 9.40371 3.3768 9.44728 3.32221C9.48957 3.26799 9.52961 3.27392 9.5707 3.37335C9.61254 3.47217 9.64778 3.68745 9.55361 3.92102C9.55368 3.92087 9.5872 3.5662 9.44848 3.41151Z" fill="white"/>
<path d="M9.7004 4.89973C9.7004 4.89973 9.75327 5.10788 9.81101 5.10788C9.86807 5.10788 9.87744 4.892 9.87744 4.892C9.87744 4.892 9.9639 5.07376 10.0099 5.07376C10.0557 5.07376 10.0569 4.82849 10.0569 4.82849C10.0569 4.82849 10.1216 4.892 10.1216 5.02435C10.1216 5.15669 10.0351 5.17784 10.0069 5.17784C9.97807 5.17784 9.90278 5.11673 9.90278 5.11673C9.90278 5.11673 9.87744 5.23025 9.79458 5.23025C9.71158 5.23018 9.65219 5.06604 9.7004 4.89973Z" fill="white"/>
<path d="M11.9414 3.30984C11.9414 3.30984 11.9901 3.20456 12.0472 3.27692C12.105 3.34808 12.1685 3.49512 12.1685 3.65514C12.1685 3.81628 12.0671 3.89103 12.0671 3.89103C12.0671 3.89103 12.1119 3.61404 12.007 3.50989C11.9026 3.40507 11.8991 3.39509 11.9414 3.30984Z" fill="white"/>
<path d="M11.9906 4.12903C11.9906 4.12903 12.026 4.25081 12.063 4.25081C12.1 4.25081 12.1312 4.09259 12.1312 4.09259C12.1312 4.09259 12.1671 4.23259 12.2111 4.23259C12.2553 4.23259 12.2999 4.0473 12.2999 4.0473C12.2999 4.0473 12.3317 4.09957 12.3317 4.21841C12.3317 4.33666 12.2658 4.34836 12.2484 4.34836C12.2301 4.34836 12.1801 4.34716 12.147 4.28013C12.147 4.28013 12.1142 4.34956 12.039 4.34956C11.9641 4.34971 11.9576 4.20964 11.9906 4.12903Z" fill="white"/>
<path d="M15.3511 3.57324C15.3511 3.57324 15.3998 3.46804 15.4575 3.53913C15.514 3.61088 15.5775 3.7586 15.5775 3.91854C15.5775 4.07856 15.4763 4.15384 15.4763 4.15384C15.4763 4.15384 15.5211 3.87685 15.4169 3.7721C15.3115 3.66795 15.308 3.65797 15.3511 3.57324Z" fill="white"/>
<path d="M10.7511 6.78659C10.7511 6.78659 10.9162 6.64075 11.0025 6.64075C11.0885 6.64075 10.9932 6.79364 10.9932 6.8384C10.9932 6.88309 10.9728 6.97832 11.1107 6.91136C11.2496 6.84485 11.3753 6.79371 11.399 6.80256C11.4225 6.81313 11.2004 7.06313 10.9978 7.06313C10.7954 7.06313 10.8942 6.84665 10.9 6.81786C10.9071 6.78906 10.9141 6.74617 10.8017 6.79731C10.6887 6.8477 10.7511 6.78659 10.7511 6.78659Z" fill="white"/>
<path d="M14.5871 6.66949C14.5871 6.66949 14.7167 6.65839 14.7167 6.73127C14.7167 6.80476 14.592 6.89241 14.6992 6.89241C14.8063 6.89241 14.8027 6.97475 14.7137 7.01651C14.6238 7.05828 14.4355 7.15118 14.4355 7.03946C14.4355 6.92713 14.5696 6.96597 14.5696 6.86827C14.5696 6.77064 14.4709 6.82358 14.4709 6.75182C14.4706 6.68074 14.5871 6.66949 14.5871 6.66949Z" fill="white"/>
<path d="M14.1272 5.37903C14.1272 5.37903 14.1779 5.2973 14.2496 5.37843C14.3214 5.45784 14.3509 5.55082 14.3509 5.64845C14.3509 5.74428 14.2756 5.81251 14.2556 5.80959C14.2351 5.80546 14.2579 5.72426 14.2579 5.65895C14.2579 5.59311 14.1579 5.5107 14.1232 5.48431C14.0885 5.45784 14.1061 5.39785 14.1272 5.37903Z" fill="white"/>
<path d="M14.2649 4.94491C14.2649 4.94491 14.3379 4.88905 14.3379 5.02964C14.3379 5.17144 14.1957 5.13252 13.9168 5.34315C13.6369 5.55378 13.7155 5.41843 13.7285 5.39781C13.742 5.37832 14.2649 4.94491 14.2649 4.94491Z" fill="white"/>
<path d="M13.7452 4.5027C13.7452 4.5027 13.8328 4.62619 13.8857 4.73799C13.94 4.8486 13.9963 4.88384 13.9987 4.74564C14.0004 4.60677 13.9987 4.40739 13.9987 4.40739C13.9987 4.40739 13.9945 4.32274 14.0464 4.32274C14.0976 4.32274 14.0999 4.3903 14.134 4.35325C14.1669 4.31621 14.1346 4.26395 14.1259 4.23156C14.1151 4.19916 14.08 4.11623 13.9977 4.19219C13.9152 4.26747 13.9223 4.35445 13.933 4.45801C13.9437 4.56036 13.9565 4.73507 13.8902 4.58795C13.8226 4.44091 13.785 4.29972 13.695 4.29972C13.6056 4.29972 13.6274 4.54739 13.6849 4.54739C13.7417 4.54724 13.7452 4.5027 13.7452 4.5027Z" fill="white"/>
<path d="M11.2719 5.80721C11.0467 5.84717 9.97612 5.82603 9.97612 5.82603C10.3631 5.64367 10.6073 5.55841 10.6073 5.55841L10.6861 5.59898L10.6884 5.53434C10.6884 5.53434 11.1094 5.3714 11.1094 5.1544C11.1094 4.9368 10.813 4.75969 10.6211 4.75969C10.43 4.75969 10.3082 5.00316 10.3082 5.1373C10.3082 5.27198 10.3705 5.33609 10.3705 5.33609C10.3705 5.33609 9.70123 5.56546 9.61478 5.63017C9.52832 5.69421 9.47591 5.85482 9.47591 5.94773C9.47591 6.0407 9.71293 6.02188 9.71293 6.02188C10.1906 6.02188 10.2818 6.15655 10.2818 6.15655C9.80831 6.33711 9.92821 6.70123 9.92821 6.70123C9.56941 6.58658 9.49998 6.40482 9.44712 6.20604C9.39538 6.00839 9.34709 5.62252 9.28943 5.41257C9.23236 5.20194 9.03358 4.70203 8.99294 4.70203C8.95238 4.70203 8.83533 4.92495 8.88354 5.06315C8.93063 5.20194 9.19652 6.07182 9.19652 6.07182C8.92943 6.58419 8.54597 6.8659 8.29777 6.8659C8.04898 6.8659 8.08714 6.63712 8.08714 6.63712C8.58188 6.37888 8.80241 5.99302 8.80241 5.75479C8.80241 5.51545 8.68948 5.25713 8.68948 5.25713C8.68948 5.25713 8.76829 5.30242 8.76829 5.21889C8.76829 5.13483 8.53419 4.87479 8.49655 4.87479C8.45771 4.87479 8.35011 5.05827 8.35011 5.14008C8.35011 5.22121 8.44129 5.24536 8.44129 5.24536C8.44129 5.24536 8.63954 5.5129 8.63954 5.7353C8.63954 5.95762 8.13311 6.29407 8.13311 6.29407C8.13311 6.29407 8.18545 5.92403 8.11781 5.93588C8.0507 5.94758 7.91078 6.45461 7.91078 6.45461C7.91078 6.45461 7.33671 6.81281 7.30492 6.82811C7.2744 6.84168 6.72792 7.0787 6.94732 7.0787C7.16732 7.0787 7.90073 6.74697 7.90073 6.74697C7.90718 7.15106 8.2866 7.16163 8.2866 7.16163C8.80008 7.16163 9.27765 6.40287 9.27765 6.40287C9.58703 7.10105 10.2146 7.11927 10.3611 7.11927C10.5069 7.11927 10.5282 6.98985 10.5282 6.89927C10.5282 6.80869 10.1048 6.75867 10.1048 6.55809C10.1048 6.35691 10.9436 6.17755 11.1518 6.13871C11.3599 6.10047 11.3671 6.03816 11.3911 5.97112C11.4154 5.90476 11.4966 5.76657 11.2719 5.80721ZM10.5785 5.066C10.6061 5.066 10.8272 5.17772 10.8272 5.20299C10.8272 5.22833 10.5749 5.27775 10.5749 5.27775C10.5337 5.16302 10.5519 5.066 10.5785 5.066Z" fill="white"/>
<path d="M8.47795 3.51026C8.47795 3.51026 8.44736 3.8132 8.44736 3.98319C8.44736 4.1537 8.56388 4.38487 8.65971 4.38487C8.75501 4.38487 9.01206 3.44023 9.21436 3.44023C9.41667 3.44023 9.25553 3.68198 9.25553 4.16075C9.25553 4.63831 9.55554 4.47073 9.58838 4.45715C9.6225 4.44186 9.8455 4.31484 9.8455 4.01723C9.8455 3.71894 9.74134 3.42726 9.74134 3.37792C9.74134 3.32791 9.83193 3.11908 9.87894 3.16617C9.92603 3.21318 10.0096 3.50082 10.0096 3.7014C10.0096 3.90265 10.086 4.41546 10.3236 4.41546C10.5611 4.41546 10.3953 3.87318 10.3683 3.78493C10.3413 3.69495 10.2248 3.4703 10.2683 3.41444C10.3136 3.35857 10.3695 3.27384 10.3884 3.2374C10.4084 3.20096 10.473 3.24737 10.5272 3.30624C10.5814 3.36502 10.6895 3.50562 10.6895 3.63444C10.6895 3.76386 10.5289 3.60152 10.5289 3.60152C10.5289 3.60152 10.6342 3.9103 10.6342 4.18144C10.6342 4.45258 10.4907 4.64611 10.3188 4.64611C10.147 4.64611 9.9435 4.39492 9.9435 4.39492C9.9435 4.39492 9.77351 4.75491 9.42237 4.75491C9.07242 4.75491 9.10061 4.21608 9.10061 4.21608C9.10061 4.21608 9.12948 3.92432 9.09124 3.93789C9.053 3.95019 8.94007 4.29782 8.90003 4.41022C8.86006 4.52374 8.8201 4.64191 8.70717 4.64191C8.59417 4.64191 8.35303 4.36433 8.35303 4.01378C8.35325 3.66316 8.47795 3.51026 8.47795 3.51026Z" fill="white"/>
<path d="M11.1712 3.71092L11.4388 4.10271L11.3953 3.64329C11.3953 3.64329 11.3436 3.6004 11.3436 3.52864C11.3436 3.45748 11.3965 3.29222 11.4694 3.29222C11.5426 3.29222 11.752 3.80803 11.752 3.92335C11.752 4.0386 11.6461 3.95387 11.6461 3.95387L11.6672 4.47793C11.6672 4.47793 12.2361 5.30964 12.4367 5.82313C12.6379 6.33602 12.5149 6.32597 12.4613 6.20067C12.4067 6.07418 12.0014 5.21434 11.7003 4.8485C11.7003 4.8485 11.7931 5.81196 11.7931 6.04546C11.7931 6.28015 11.7214 6.74955 11.6143 6.74955C11.5063 6.74955 11.6592 6.4284 11.652 6.23546C11.6449 6.04081 11.5156 4.81558 11.4579 4.478L10.875 3.66691C10.875 3.66691 10.7604 3.6816 10.7604 3.51867C10.7604 3.35693 10.724 3.20111 10.798 3.20111C10.8721 3.20111 11.3146 3.61224 11.3146 3.6846C11.3142 3.75554 11.1712 3.71092 11.1712 3.71092Z" fill="white"/>
<path d="M12.6942 3.84913C12.6942 3.84913 12.6855 4.15619 12.7496 4.71077C12.813 5.2649 12.8225 5.66658 12.8225 5.88658C12.8225 6.10658 12.8897 7.16767 11.7868 7.16767C11.7868 7.16767 11.7192 7.1706 11.7192 7.14293C11.7192 7.11594 11.7858 7.09239 11.8829 7.05947C11.9799 7.02715 12.7146 6.80183 12.6533 5.92842C12.5932 5.05502 12.4915 3.6745 12.4439 3.62981C12.4439 3.62981 12.399 3.60634 12.399 3.52041C12.399 3.43403 12.5673 3.26929 12.612 3.26929C12.6562 3.26929 12.7979 3.74866 12.7979 3.84156C12.7978 3.93492 12.6942 3.84913 12.6942 3.84913Z" fill="white"/>
<path d="M13.227 3.9196C13.227 3.9196 13.4141 5.5771 13.4758 5.98891C13.5381 6.39997 13.3111 6.60123 13.2705 6.60123C13.2299 6.60123 13.2799 6.45943 13.2799 6.23531C13.2799 6.01006 13.0599 4.54488 13.0117 4.15729C12.9647 3.77023 12.9141 3.77195 12.9141 3.53785C12.9141 3.30376 13.0623 3.21558 13.1005 3.21558C13.1386 3.21558 13.1893 3.37492 13.1893 3.37492C13.1893 3.37492 13.2946 3.68902 13.3517 3.77668C13.4094 3.86553 13.4094 3.9037 13.4094 3.93309C13.4093 3.96144 13.2947 3.97681 13.227 3.9196Z" fill="white"/>
<path d="M13.108 6.01718C13.108 6.01718 13.0986 6.8036 13.335 6.8036C13.335 6.8036 13.4003 6.84477 13.5815 6.43303C13.7638 6.02197 13.8496 5.94542 13.9356 5.94542C14.0215 5.94542 14.1915 6.28719 14.3609 6.28719C14.5308 6.28719 14.5813 6.0243 14.5813 5.83369C14.5813 5.64143 14.4895 4.39911 14.4895 4.39911L13.9403 3.69329C13.9403 3.69329 13.9167 3.66982 13.9167 3.51565C13.9167 3.36156 13.8943 3.26214 13.952 3.26214C14.0098 3.26214 14.0944 3.39096 14.2032 3.48446C14.312 3.57804 14.3569 3.61096 14.3569 3.66502C14.3569 3.71856 14.2756 3.68512 14.2756 3.68512L14.4556 3.95093L14.428 3.63278C14.428 3.63278 14.378 3.56274 14.378 3.48926C14.378 3.4163 14.4651 3.23574 14.5199 3.23574C14.5751 3.23574 14.7464 3.71099 14.7464 3.80329C14.7464 3.89679 14.6717 3.79857 14.6717 3.79857L14.6983 4.30853L15.0359 4.7696C15.0359 4.7696 14.8959 3.8938 14.8959 3.51505C14.8959 3.51505 14.877 3.49743 14.877 3.4427C14.877 3.38796 14.9871 3.2074 15.0417 3.2074C15.097 3.2074 15.2453 3.71444 15.2453 3.82789C15.2453 3.93969 15.1553 3.862 15.1553 3.862L15.2465 5.06609C15.2465 5.06609 15.6794 5.67308 15.7535 5.84246C15.8276 6.01185 15.8207 6.25892 15.7935 6.24655C15.7675 6.23538 15.5595 5.82064 15.2777 5.48892C15.2777 5.48892 15.3582 6.17239 15.2076 6.28007C15.2076 6.28007 15.1935 5.99828 15.1935 5.85476C15.1935 5.71124 15.124 5.28541 15.124 5.28541L14.7341 4.73841C14.7341 4.73841 14.7948 5.77595 14.7948 6.05774C14.7948 6.33945 14.6577 6.59822 14.4042 6.59822C14.1507 6.59822 13.9284 6.28532 13.9284 6.28532C13.9284 6.28532 13.8419 6.3447 13.6636 6.70642C13.4842 7.06642 13.429 7.09821 13.3526 7.09821C13.2761 7.09821 12.9702 6.91585 12.9702 6.60595C12.9698 6.29416 13.108 6.01718 13.108 6.01718Z" fill="white"/>
<path d="M15.6892 3.50083C15.6892 3.50083 15.6681 3.48793 15.6681 3.42847C15.6681 3.36969 15.7728 3.20795 15.8211 3.20795C15.8687 3.20795 16.0915 3.69031 16.0915 3.78262C16.0915 3.87552 15.9886 3.76852 15.9886 3.76852C15.9886 3.76852 15.9863 3.85618 16.0445 4.57849C16.1016 5.29961 16.4315 6.60597 15.4799 6.99236C14.5283 7.37942 15.6716 6.73884 15.8327 6.33948C15.9928 5.93952 15.8987 5.41838 15.8445 4.87895C15.7905 4.34087 15.6892 3.50083 15.6892 3.50083Z" fill="white"/>
<path d="M14.392 10.1498H13.365L13.3615 10.0556C13.3615 10.0556 13.4315 9.98845 13.4315 9.94263C13.4315 9.89622 13.365 9.771 13.317 9.771C13.2693 9.771 13.1975 9.87567 13.1975 9.93618C13.1975 9.99685 13.2709 10.0572 13.2709 10.0572V10.1515L6.14209 10.129C6.48559 10.4732 6.51798 10.4797 8.06076 10.5179C9.60295 10.5568 13.2886 10.4461 13.2886 10.4461V10.5614C13.2886 10.5614 13.2145 10.6185 13.2145 10.679C13.2145 10.7394 13.2768 10.842 13.3327 10.842C13.3886 10.842 13.4227 10.7209 13.4227 10.7209H13.7862C13.7862 10.7209 13.7791 10.7943 13.8687 10.7943C13.9581 10.7943 13.9609 10.711 13.9609 10.711H14.3498C14.3498 10.711 14.4062 10.7978 14.4955 10.7978C14.5844 10.7978 14.6979 10.7551 14.6979 10.4398C14.6978 10.1256 14.392 10.1498 14.392 10.1498ZM14.3178 10.6185L13.9596 10.6227C13.9596 10.6227 13.9356 10.5574 13.8685 10.5574C13.8013 10.5574 13.7908 10.6334 13.7908 10.6334L13.4392 10.6386C13.4392 10.6386 13.4226 10.5845 13.3733 10.5546L13.3675 10.441L14.3311 10.4175C14.3307 10.4173 14.2796 10.5379 14.3178 10.6185Z" fill="white"/>
</svg>
