<svg width="24" height="26" viewBox="0 0 24 26" fill="none" xmlns="http://www.w3.org/2000/svg">
<path fill-rule="evenodd" clip-rule="evenodd" d="M5.25 9.64746C4.00736 9.64746 3 10.6548 3 11.8975V20.8975C3 22.1401 4.00736 23.1475 5.25 23.1475H18.75C19.9926 23.1475 21 22.1401 21 20.8975V11.8975C21 10.6548 19.9926 9.64746 18.75 9.64746H5.25ZM19.5 11.1475H4.5V21.6475H19.5V11.1475Z" fill="#657399"/>
<path fill-rule="evenodd" clip-rule="evenodd" d="M9 3.64746C7.75736 3.64746 6.75 4.65482 6.75 5.89746V11.1475H17.25V5.89746C17.25 4.65482 16.2426 3.64746 15 3.64746H9ZM15.75 5.14746H8.25V9.64746H15.75V5.14746Z" fill="#657399"/>
<path fill-rule="evenodd" clip-rule="evenodd" d="M12 13.3975C10.7574 13.3975 9.75 14.4048 9.75 15.6475V17.1475C9.75 18.3901 10.7574 19.3975 12 19.3975C13.2426 19.3975 14.25 18.3901 14.25 17.1475V15.6475C14.25 14.4048 13.2426 13.3975 12 13.3975ZM12.75 17.8975V14.8975H11.25V17.8975H12.75Z" fill="#657399"/>
</svg>
