<svg width="20" height="20" viewBox="0 0 20 20" fill="none" xmlns="http://www.w3.org/2000/svg">
<g clip-path="url(#clip0_16_424)">
<path d="M17.0132 15.6107C16.9679 15.5522 16.919 15.4968 16.8665 15.4447L14.4392 13.0253C14.1063 12.6941 13.6558 12.5082 13.1862 12.5082C12.7166 12.5082 12.2661 12.6941 11.9332 13.0253L11.7812 13.178C11.1558 13.804 10.3081 14.1571 9.42322 14.16C8.7528 14.1521 8.10203 13.9325 7.56388 13.5327C7.176 13.1892 6.80954 12.8223 6.46655 12.434C6.05787 11.9011 5.83769 11.2476 5.84055 10.576C5.84332 9.69213 6.1959 8.84531 6.82122 8.22065L6.97722 8.06532C7.30767 7.73229 7.4931 7.28214 7.4931 6.81299C7.4931 6.34383 7.30767 5.89369 6.97722 5.56065L4.55522 3.13332C4.5024 3.08073 4.44653 3.03132 4.38788 2.98532C4.01565 2.69724 3.54425 2.56876 3.07732 2.62814C2.61039 2.68753 2.18616 2.9299 1.89788 3.30199L1.45255 3.87865C-0.942118 7.02732 0.074549 12.2187 3.82055 15.9567L4.04588 16.182C6.13101 18.3946 8.99709 19.7065 12.0345 19.8387C13.5034 19.8701 14.9414 19.4154 16.1252 18.5453L16.6985 18.102C16.8828 17.9594 17.0372 17.7818 17.1529 17.5795C17.2685 17.3772 17.3432 17.1541 17.3726 16.9229C17.402 16.6918 17.3856 16.4571 17.3243 16.2322C17.2629 16.0074 17.1579 15.7969 17.0152 15.6127L17.0132 15.6107ZM16.0865 17.31L15.5165 17.7513C12.8079 19.8113 8.08055 18.81 4.75655 15.4787L4.52388 15.246C1.19055 11.918 0.190549 7.19065 2.24655 4.48665L2.68922 3.91332C2.75132 3.83283 2.82868 3.76537 2.91688 3.71481C3.00508 3.66425 3.10238 3.63157 3.20322 3.61865C3.2364 3.61466 3.26979 3.61266 3.30322 3.61265C3.47227 3.61305 3.63641 3.66957 3.76988 3.77332C3.79615 3.79395 3.82109 3.81621 3.84455 3.83999L6.26655 6.26665C6.41042 6.41195 6.49113 6.60817 6.49113 6.81265C6.49113 7.01713 6.41042 7.21335 6.26655 7.35865L6.11122 7.51332C5.29912 8.3237 4.84105 9.42273 4.83722 10.57C4.83331 11.4639 5.12617 12.3338 5.66988 13.0433C6.06649 13.5016 6.4956 13.9307 6.95388 14.3273C7.66679 14.8653 8.53477 15.1579 9.42788 15.1613C10.5759 15.1575 11.6756 14.6992 12.4865 13.8867L12.6392 13.7333C12.7847 13.5896 12.981 13.5089 13.1855 13.5089C13.3901 13.5089 13.5864 13.5896 13.7319 13.7333L16.1592 16.152C16.1825 16.1753 16.2032 16.2 16.2259 16.226C16.288 16.3062 16.3337 16.398 16.3603 16.4959C16.387 16.5938 16.3941 16.696 16.3812 16.7967C16.3687 16.8975 16.3362 16.9948 16.2856 17.083C16.235 17.1711 16.1673 17.2483 16.0865 17.31Z" fill="#657399"/>
<path d="M12.794 10.2367C12.8267 10.2433 12.86 10.2466 12.8933 10.2467C13.0086 10.2467 13.1203 10.2069 13.2096 10.134C13.2989 10.0611 13.3603 9.9596 13.3833 9.84667C13.4736 9.40354 13.4526 8.94495 13.3224 8.5119C13.1921 8.07884 12.9566 7.6848 12.6368 7.365C12.3171 7.04519 11.9231 6.80958 11.4901 6.67923C11.057 6.54888 10.5985 6.52784 10.1553 6.618C10.0909 6.63113 10.0297 6.65682 9.97528 6.69359C9.92081 6.73037 9.87413 6.77751 9.83788 6.83233C9.80163 6.88714 9.77654 6.94856 9.76403 7.01308C9.75152 7.0776 9.75184 7.14394 9.76498 7.20833C9.77811 7.27273 9.80379 7.3339 9.84057 7.38836C9.87734 7.44283 9.92448 7.48952 9.9793 7.52576C10.0341 7.56201 10.0955 7.5871 10.1601 7.59961C10.2246 7.61212 10.2909 7.6118 10.3553 7.59867C10.6364 7.54121 10.9273 7.55442 11.202 7.63711C11.4767 7.7198 11.7266 7.86938 11.9293 8.07243C12.1319 8.27549 12.281 8.52567 12.3632 8.80054C12.4453 9.07541 12.458 9.36638 12.4 9.64733C12.3871 9.71191 12.387 9.77839 12.3998 9.84298C12.4127 9.90757 12.4381 9.969 12.4747 10.0237C12.5113 10.0785 12.5583 10.1255 12.6131 10.162C12.6679 10.1985 12.7294 10.2239 12.794 10.2367Z" fill="#657399"/>
<path d="M15.9225 10.4666C15.9554 10.4731 15.9889 10.4762 16.0225 10.476C16.1376 10.4757 16.2491 10.4358 16.3382 10.363C16.4274 10.2901 16.4887 10.1887 16.5118 10.076C16.6959 9.17212 16.6532 8.23671 16.3875 7.35339C16.1218 6.47006 15.6413 5.66635 14.989 5.01409C14.3368 4.36184 13.5331 3.88137 12.6497 3.61564C11.7664 3.3499 10.831 3.30719 9.92715 3.49131C9.86274 3.50429 9.80152 3.52983 9.74699 3.56647C9.69246 3.60312 9.64569 3.65015 9.60935 3.70488C9.573 3.75961 9.5478 3.82097 9.53519 3.88545C9.52257 3.94992 9.52278 4.01625 9.53581 4.08065C9.56329 4.21003 9.6404 4.32347 9.75058 4.39664C9.86077 4.4698 9.99524 4.49685 10.1251 4.47198C10.8671 4.32026 11.6351 4.3548 12.3604 4.5725C13.0857 4.79021 13.7458 5.1843 14.2815 5.71952C14.8173 6.25474 15.212 6.91441 15.4304 7.63951C15.6488 8.36462 15.6841 9.13256 15.5331 9.87465C15.5198 9.93909 15.5193 10.0055 15.5316 10.0702C15.544 10.1348 15.5689 10.1964 15.6051 10.2514C15.6412 10.3063 15.6879 10.3537 15.7424 10.3906C15.7968 10.4275 15.858 10.4534 15.9225 10.4666Z" fill="#657399"/>
<path d="M10.0951 0.324009C10.0307 0.336982 9.96949 0.362521 9.91496 0.399166C9.86043 0.435811 9.81366 0.482844 9.77732 0.537576C9.74097 0.592307 9.71577 0.653665 9.70315 0.718141C9.69054 0.782618 9.69075 0.848948 9.70378 0.913342C9.73157 1.04255 9.80875 1.15578 9.91885 1.22889C10.0289 1.302 10.1632 1.32919 10.2931 1.30468C11.4462 1.06968 12.6395 1.12409 13.7664 1.46304C14.8933 1.80199 15.9187 2.41492 16.7508 3.24703C17.5829 4.07913 18.1958 5.10447 18.5348 6.23137C18.8737 7.35827 18.9281 8.55161 18.6931 9.70468C18.6668 9.83463 18.6931 9.96973 18.7664 10.0802C18.8397 10.1908 18.9538 10.2677 19.0838 10.294C19.1167 10.3004 19.1502 10.3035 19.1838 10.3033C19.299 10.3033 19.4106 10.2635 19.4998 10.1906C19.589 10.1177 19.6502 10.0162 19.6731 9.90334C19.941 8.58852 19.8789 7.22782 19.4924 5.94286C19.1059 4.6579 18.407 3.48873 17.4583 2.53985C16.5096 1.59097 15.3405 0.891952 14.0556 0.505278C12.7707 0.118605 11.41 0.0563265 10.0951 0.324009Z" fill="#657399"/>
</g>
<defs>
<clipPath id="clip0_16_424">
<rect width="20" height="20" fill="white"/>
</clipPath>
</defs>
</svg>
