<svg width="20" height="20" viewBox="0 0 20 20" fill="none" xmlns="http://www.w3.org/2000/svg">
<g clip-path="url(#clip0_16_521)">
<path d="M10 0C8.02219 0 6.08879 0.58649 4.4443 1.6853C2.79981 2.78412 1.51809 4.3459 0.761209 6.17317C0.00433286 8.00043 -0.193701 10.0111 0.192152 11.9509C0.578004 13.8907 1.53041 15.6725 2.92894 17.0711C4.32746 18.4696 6.10929 19.422 8.0491 19.8079C9.98891 20.1937 11.9996 19.9957 13.8268 19.2388C15.6541 18.4819 17.2159 17.2002 18.3147 15.5557C19.4135 13.9112 20 11.9778 20 10C19.997 7.34876 18.9424 4.80698 17.0677 2.93227C15.193 1.05756 12.6512 0.00302166 10 0ZM10 18.3333C8.35183 18.3333 6.74066 17.8446 5.37025 16.9289C3.99984 16.0132 2.93174 14.7117 2.30101 13.189C1.67028 11.6663 1.50525 9.99076 1.82679 8.37425C2.14834 6.75774 2.94201 5.27288 4.10745 4.10744C5.27289 2.94201 6.75774 2.14833 8.37425 1.82679C9.99076 1.50525 11.6663 1.67027 13.189 2.301C14.7118 2.93173 16.0132 3.99984 16.9289 5.37025C17.8446 6.74066 18.3333 8.35182 18.3333 10C18.3309 12.2094 17.4521 14.3276 15.8899 15.8899C14.3276 17.4521 12.2094 18.3309 10 18.3333Z" fill="#657399"/>
<path d="M15.8335 11.6667H14.894C15.0356 10.5601 15.0356 9.43994 14.894 8.33334H15.8335C16.0545 8.33334 16.2665 8.24554 16.4228 8.08926C16.579 7.93298 16.6668 7.72102 16.6668 7.50001C16.6668 7.27899 16.579 7.06703 16.4228 6.91075C16.2665 6.75447 16.0545 6.66667 15.8335 6.66667H14.574C14.3175 5.66341 13.9443 4.69365 13.4621 3.77726C13.3588 3.58181 13.1821 3.4354 12.9709 3.37024C12.7597 3.30507 12.5312 3.32648 12.3357 3.42976C12.1403 3.53304 11.9939 3.70973 11.9287 3.92095C11.8636 4.13218 11.885 4.36065 11.9882 4.55609C12.3366 5.23031 12.6176 5.93726 12.8272 6.66667H10.8335V5.83334C10.8335 5.61233 10.7457 5.40037 10.5894 5.24409C10.4331 5.0878 10.2212 5.00001 10.0002 5.00001C9.77915 5.00001 9.56719 5.0878 9.41091 5.24409C9.25463 5.40037 9.16683 5.61233 9.16683 5.83334V6.66667H7.17316C7.3827 5.93726 7.6637 5.23031 8.01208 4.55609C8.06322 4.45932 8.0948 4.35342 8.10501 4.24444C8.11522 4.13547 8.10387 4.02554 8.0716 3.92095C8.03933 3.81636 7.98678 3.71915 7.91694 3.63487C7.84711 3.5506 7.76135 3.4809 7.66458 3.42976C7.56781 3.37862 7.46191 3.34704 7.35293 3.33683C7.24395 3.32662 7.13403 3.33797 7.02944 3.37024C6.92485 3.4025 6.82764 3.45506 6.74336 3.52489C6.65908 3.59473 6.58939 3.68048 6.53825 3.77726C6.05601 4.69365 5.68283 5.66341 5.42633 6.66667H4.16683C3.94582 6.66667 3.73385 6.75447 3.57757 6.91075C3.42129 7.06703 3.3335 7.27899 3.3335 7.50001C3.3335 7.72102 3.42129 7.93298 3.57757 8.08926C3.73385 8.24554 3.94582 8.33334 4.16683 8.33334H5.10633C4.96477 9.43994 4.96477 10.5601 5.10633 11.6667H4.16683C3.94582 11.6667 3.73385 11.7545 3.57757 11.9108C3.42129 12.067 3.3335 12.279 3.3335 12.5C3.3335 12.721 3.42129 12.933 3.57757 13.0893C3.73385 13.2455 3.94582 13.3333 4.16683 13.3333H5.42633C5.68283 14.3366 6.05601 15.3064 6.53825 16.2228C6.58939 16.3195 6.65908 16.4053 6.74336 16.4751C6.82764 16.545 6.92485 16.5975 7.02944 16.6298C7.13403 16.662 7.24395 16.6734 7.35293 16.6632C7.46191 16.653 7.56781 16.6214 7.66458 16.5703C7.76135 16.5191 7.84711 16.4494 7.91694 16.3651C7.98678 16.2809 8.03933 16.1837 8.0716 16.0791C8.10387 15.9745 8.11522 15.8645 8.10501 15.7556C8.0948 15.6466 8.06322 15.5407 8.01208 15.4439C7.6637 14.7697 7.3827 14.0628 7.17316 13.3333H9.16683V14.1667C9.16683 14.3877 9.25463 14.5997 9.41091 14.7559C9.56719 14.9122 9.77915 15 10.0002 15C10.2212 15 10.4331 14.9122 10.5894 14.7559C10.7457 14.5997 10.8335 14.3877 10.8335 14.1667V13.3333H12.8272C12.6176 14.0628 12.3366 14.7697 11.9882 15.4439C11.885 15.6394 11.8636 15.8678 11.9287 16.0791C11.9939 16.2903 12.1403 16.467 12.3357 16.5703C12.5312 16.6735 12.7597 16.6949 12.9709 16.6298C13.1821 16.5646 13.3588 16.4182 13.4621 16.2228C13.9443 15.3064 14.3175 14.3366 14.574 13.3333H15.8335C16.0545 13.3333 16.2665 13.2455 16.4228 13.0893C16.579 12.933 16.6668 12.721 16.6668 12.5C16.6668 12.279 16.579 12.067 16.4228 11.9108C16.2665 11.7545 16.0545 11.6667 15.8335 11.6667ZM6.79925 11.6667C6.71532 11.115 6.67106 10.558 6.66683 10C6.67106 9.442 6.71532 8.88502 6.79925 8.33334H9.16683V11.6667H6.79925ZM10.8335 11.6667V8.33334H13.2011C13.285 8.88502 13.3293 9.442 13.3335 10C13.3293 10.558 13.285 11.115 13.2011 11.6667H10.8335Z" fill="#657399"/>
</g>
<defs>
<clipPath id="clip0_16_521">
<rect width="20" height="20" fill="white"/>
</clipPath>
</defs>
</svg>
