<svg width="121" height="18" viewBox="0 0 121 18" fill="none" xmlns="http://www.w3.org/2000/svg">
<g clip-path="url(#clip0_16_1066)">
<mask id="mask0_16_1066" style="mask-type:luminance" maskUnits="userSpaceOnUse" x="0" y="0" width="121" height="18">
<path d="M120.801 0.567627H0.80127V17.4325H120.801V0.567627Z" fill="white"/>
</mask>
<g mask="url(#mask0_16_1066)">
<path d="M59.5513 4.31711C58.1047 3.76349 56.6578 3.50796 54.9133 3.89127C53.5093 4.18938 52.4029 4.74299 51.6796 6.1484C52.0201 6.40394 52.2754 6.65946 52.573 6.915C53.0413 7.34091 53.5093 7.72418 54.1474 8.23526C54.658 7.51121 55.5517 6.70205 56.5303 6.65945C57.6364 6.61688 58.7002 7.25574 58.8703 8.15009C58.9555 8.53338 58.9981 10.0665 58.9981 10.0665L58.4023 10.1943C58.3597 10.1943 58.2322 10.2368 58.0621 10.1943C58.0195 10.1943 58.0195 10.1517 57.9769 10.1517C57.9343 10.1517 57.9343 10.1517 57.8917 10.1091C56.5729 9.64061 55.339 9.38511 54.1474 9.38511C53.722 9.38511 53.2966 9.42773 52.8709 9.47027C51.5518 9.68322 50.02 10.4072 50.02 12.7921C50.02 13.6865 50.233 14.3679 50.6158 14.9215C51.3391 15.9011 52.3603 16.4973 53.722 16.4973C55.2112 16.4973 56.5303 16.114 57.8068 15.0919C57.8494 15.0919 58.1047 14.8363 58.1896 14.7938L58.9981 14.155V15.1771V16.4973H62.3596V8.23526C62.2744 6.40394 61.2532 4.95593 59.5513 4.31711ZM58.4875 11.983C57.7642 13.2606 56.6152 13.9846 55.2538 13.9846C55.2112 13.9846 55.126 13.9846 55.0837 13.9846C54.8284 13.9846 54.5305 13.942 54.2326 13.8994C53.2114 13.6439 52.6582 12.8347 52.7008 11.7274L52.7434 11.259H58.9129L58.4875 11.983Z" fill="#1B1A1F"/>
<path d="M94.5435 4.31711C93.0969 3.76349 91.6506 3.50796 89.9055 3.89127C88.5012 4.18938 87.3954 4.74299 86.6721 6.1484C87.012 6.40394 87.2676 6.65946 87.5652 6.915C88.0335 7.34091 88.5012 7.72418 89.1396 8.23526C89.6502 7.51121 90.5439 6.70205 91.5228 6.65945C92.6286 6.61688 93.6924 7.25574 93.8631 8.15009C93.948 8.53338 93.9903 10.0665 93.9903 10.0665L93.3948 10.1943C93.3519 10.1943 93.2247 10.2368 93.0543 10.1943C93.012 10.1943 93.012 10.1517 92.9691 10.1517C92.9265 10.1517 92.9265 10.1517 92.8842 10.1091C91.5648 9.64061 90.3312 9.38511 89.1396 9.38511C88.7142 9.38511 88.2885 9.42773 87.8631 9.47027C86.5443 9.68322 85.0122 10.4072 85.0122 12.7921C85.0122 13.6865 85.2249 14.3679 85.6083 14.9215C86.3316 15.9011 87.3525 16.4973 88.7142 16.4973C90.2034 16.4973 91.5228 16.114 92.7993 15.0919C92.8413 15.0919 93.0969 14.8363 93.1821 14.7938L93.9903 14.155V15.1771V16.4973H97.3521V8.23526C97.2666 6.40394 96.2883 4.95593 94.5435 4.31711ZM93.4797 11.983C92.7564 13.2606 91.6077 13.9846 90.2463 13.9846C90.2034 13.9846 90.1185 13.9846 90.0756 13.9846C89.8206 13.9846 89.523 13.942 89.2251 13.8994C88.2036 13.6439 87.6504 12.8347 87.693 11.7274L87.7359 11.259H93.9051L93.4797 11.983Z" fill="#1B1A1F"/>
<path d="M117.442 4.31711C115.995 3.76349 114.549 3.50796 112.804 3.89127C111.4 4.18938 110.294 4.74299 109.571 6.1484C109.91 6.40394 110.166 6.65946 110.464 6.915C110.932 7.34091 111.4 7.72418 112.038 8.23526C112.549 7.51121 113.442 6.70205 114.421 6.65945C115.527 6.61688 116.591 7.25574 116.762 8.15009C116.846 8.53338 116.889 10.0665 116.889 10.0665L116.293 10.1943C116.25 10.1943 116.123 10.2368 115.953 10.1943C115.91 10.1943 115.91 10.1517 115.868 10.1517C115.825 10.1517 115.826 10.1517 115.783 10.1091C114.463 9.64061 113.23 9.38511 112.038 9.38511C111.613 9.38511 111.187 9.42773 110.762 9.47027C109.443 9.68322 107.911 10.4072 107.911 12.7921C107.911 13.6865 108.123 14.3679 108.507 14.9215C109.23 15.9011 110.251 16.4973 111.613 16.4973C113.102 16.4973 114.421 16.114 115.698 15.0919C115.74 15.0919 115.995 14.8363 116.081 14.7938L116.889 14.155V15.1771V16.4973H120.251V8.23526C120.165 6.40394 119.144 4.95593 117.442 4.31711ZM116.378 11.983C115.655 13.2606 114.506 13.9846 113.145 13.9846C113.102 13.9846 113.017 13.9846 112.974 13.9846C112.719 13.9846 112.421 13.942 112.124 13.8994C111.102 13.6439 110.549 12.8347 110.591 11.7274L110.634 11.259H116.804L116.378 11.983Z" fill="#1B1A1F"/>
<path d="M106.441 4.7395C105.378 4.7821 104.569 5.25058 104.058 6.18751C104.016 6.27268 103.633 6.99667 103.633 6.99667L102.824 6.82633V6.44302V4.90987H99.5903V16.4512H102.824V15.3865C102.824 14.3218 102.824 13.2145 102.824 12.1498V11.9369C102.824 11.5536 102.782 11.1703 102.824 10.7444C102.91 9.25387 104.058 8.14657 105.463 7.97623C105.93 7.9336 107.037 7.89106 107.164 7.89106V4.7395C106.952 4.7395 106.696 4.7395 106.441 4.7395Z" fill="#1B1A1F"/>
<path d="M47.484 13.7699C47.2287 13.7699 46.9308 13.7699 46.6329 13.6847C45.7821 13.557 45.2289 13.1311 45.0162 12.4497C44.931 12.1516 44.8458 11.8535 44.8458 11.5553V6.40218H45.3564C46.4202 6.35961 47.5692 6.27444 48.6753 5.9763L47.9946 3.63396L44.8884 4.10244V0.567627H41.2293V4.01727H38.6763V6.40218H41.1441C41.1441 6.40218 41.1441 11.2998 41.1441 12.5775C41.1441 13.3866 41.3568 14.1106 41.7825 14.7494C42.2931 15.5161 42.9738 15.9845 44.0376 16.24C45.1863 16.5381 46.2927 16.4956 47.5266 16.4956C47.6118 16.4956 47.7393 16.4956 47.8245 16.4956V13.7699C47.7819 13.7699 47.7393 13.7699 47.6967 13.7699C47.6541 13.7699 47.5692 13.7699 47.484 13.7699Z" fill="#1B1A1F"/>
<path d="M75.6098 9.94298C75.6098 8.79305 76.3757 7.85615 77.4395 7.77098C78.716 7.64318 79.6094 8.28206 79.8647 9.47447C79.907 9.68741 79.907 9.90035 79.907 10.1133C79.907 11.8594 79.907 13.563 79.907 15.3091V16.4589H83.1413V14.6702C83.1413 12.6686 83.1413 10.6669 83.1413 8.66534C83.1413 8.19689 83.0984 7.85615 83.0561 7.55801C82.8005 6.11003 82.0346 5.25827 80.7158 4.87499C79.3115 4.49168 76.9712 4.78982 75.8654 6.70625L75.3542 7.68581C75.0992 6.2378 74.2481 5.21567 72.9716 4.83239C71.5673 4.44911 69.4397 4.78982 68.3765 6.66368L67.9082 7.51541V4.91756H64.5044V16.4589H67.8656C67.8656 16.4589 67.8656 11.8594 67.8656 10.1985C67.8656 9.98552 67.8656 9.77258 67.9082 9.5597C68.036 8.70788 68.5895 8.06909 69.3977 7.85615C70.3337 7.60064 71.2697 7.89875 71.78 8.58017C72.1634 9.09116 72.2057 9.64487 72.2057 10.0707C72.2057 11.6891 72.2057 16.4589 72.2057 16.4589H75.6098" fill="#1B1A1F"/>
<path d="M2.33305 5.0427C1.65226 5.80929 1.14166 6.61845 0.80127 7.51284L11.5237 16.4137C12.0343 16.073 12.5449 15.7323 12.9704 15.2639L13.1832 15.0509C17.2679 10.7921 14.5873 6.19257 12.9704 4.65939C10.0345 1.806 5.35407 1.89119 2.5458 4.82976L2.33305 5.0427Z" fill="#1B1A1F"/>
<path d="M31.9593 9.97755C31.9593 14.1086 28.6403 17.4305 24.513 17.4305C20.3858 17.4305 17.0669 14.1086 17.0669 9.97755C17.0669 5.88912 20.3858 2.52466 24.513 2.52466C28.6403 2.56724 31.9593 5.88912 31.9593 9.97755Z" fill="#1B1A1F"/>
</g>
</g>
<defs>
<clipPath id="clip0_16_1066">
<rect width="120" height="18" fill="white" transform="translate(0.80127)"/>
</clipPath>
</defs>
</svg>
