<svg width="59" height="18" viewBox="0 0 59 18" fill="none" xmlns="http://www.w3.org/2000/svg">
<path d="M25.3216 10.3794H0.776855V17.9862H25.3216V10.3794Z" fill="#84B740"/>
<path d="M25.3216 0H0.776855V7.61356H25.3216V0Z" fill="#259BD6"/>
<path d="M49.8664 16.4407L49.7571 16.461C49.3781 16.5288 49.2397 16.5559 48.9627 16.5559C48.3214 16.5559 47.5635 16.2508 47.5635 14.8136C47.5635 14.0746 47.6947 13.0915 48.8898 13.0915H48.8971C49.1012 13.1051 49.3344 13.1254 49.7717 13.2475L49.8664 13.2746V16.4407ZM50.0632 9.27458L49.8664 9.30847V11.9661L49.6915 11.9186L49.6405 11.9051C49.4437 11.8508 48.9919 11.7288 48.5546 11.7288C46.1643 11.7288 45.6614 13.4102 45.6614 14.8203C45.6614 16.7525 46.8274 17.8644 48.8607 17.8644C49.7206 17.8644 50.3547 17.7831 50.996 17.5864C51.5863 17.4102 51.7976 17.1593 51.7976 16.6237V8.99661C51.2292 9.09153 50.6389 9.18644 50.0632 9.27458ZM56.9718 16.4881L56.8698 16.5153L56.5054 16.6034C56.1629 16.6847 55.8568 16.7322 55.6236 16.7322C55.0625 16.7322 54.7272 16.4746 54.7272 16.0339C54.7272 15.7492 54.8657 15.2678 55.784 15.2678H56.9718V16.4881ZM56.1338 11.6949C55.3977 11.6949 54.6398 11.8169 53.6997 12.0881L53.0875 12.2576L53.2916 13.5458L53.8892 13.3627C54.5159 13.1729 55.2957 13.0508 55.8787 13.0508C56.1411 13.0508 56.9427 13.0508 56.9427 13.8576V14.2102H55.8277C53.7944 14.2102 52.8543 14.8136 52.8543 16.1085C52.8543 17.2136 53.7216 17.878 55.1791 17.878C55.6309 17.878 56.2577 17.7966 56.7969 17.6746L56.8261 17.6678L56.8552 17.6746L57.0374 17.7017C57.6059 17.7966 58.1962 17.8915 58.7719 17.9932V13.7627C58.7719 12.3932 57.8828 11.6949 56.1338 11.6949ZM42.8119 16.4881L42.7099 16.5153L42.3455 16.6034C42.003 16.6847 41.7042 16.7322 41.4637 16.7322C40.9026 16.7322 40.5674 16.4746 40.5674 16.0339C40.5674 15.7492 40.7058 15.2678 41.6168 15.2678H42.8047L42.8119 16.4881ZM41.9812 11.6949C41.2378 11.6949 40.4872 11.8169 39.5471 12.0881L38.9349 12.2576L39.139 13.5458L39.7366 13.3627C40.3633 13.1729 41.1431 13.0508 41.7261 13.0508C41.9884 13.0508 42.7901 13.0508 42.7901 13.8576V14.2102H41.6751C39.6418 14.2102 38.6944 14.8136 38.6944 16.1085C38.6944 17.2136 39.5617 17.878 41.0265 17.878C41.4783 17.878 42.105 17.7966 42.6443 17.6746L42.6735 17.6678L42.7026 17.6746L42.8775 17.7017C43.4533 17.7966 44.0363 17.8915 44.612 18V13.7695C44.6193 12.3864 43.7302 11.6949 41.9812 11.6949ZM35.1381 11.7085C34.2125 11.7085 33.4473 11.9932 33.1631 12.1153L33.0902 12.1492L33.0246 12.1017C32.6311 11.8373 32.0554 11.7017 31.2537 11.7017C30.5468 11.7017 29.8837 11.7966 29.1622 11.9932C28.5427 12.1695 28.3022 12.4475 28.3022 12.9695V17.8034H30.2408V13.3356L30.3355 13.3085C30.729 13.1864 30.9622 13.1661 31.1882 13.1661C31.7493 13.1661 32.0335 13.4441 32.0335 13.9864V17.8102H33.9429V13.9119C33.9429 13.6814 33.8919 13.5458 33.8846 13.5186L33.819 13.4034L33.9502 13.3492C34.2417 13.2271 34.5623 13.1661 34.8976 13.1661C35.2838 13.1661 35.7429 13.3085 35.7429 13.9864V17.8102H37.645V13.8102C37.645 12.3932 36.8288 11.7085 35.1381 11.7085ZM55.5435 4.96271C55.2592 4.96271 54.7855 4.93559 54.4139 4.8678L54.3046 4.84746V2.23729C54.3046 2.02034 54.2608 1.88475 54.2536 1.86441L54.1953 1.75593L54.3191 1.70847C54.3483 1.69492 54.3774 1.68814 54.4139 1.67458L54.4357 1.66102C54.4795 1.64746 54.5232 1.6339 54.5669 1.62034C54.5888 1.61356 54.6034 1.60678 54.6179 1.60678C55.0479 1.49831 55.4414 1.51186 55.6163 1.49831H55.6236C56.8115 1.49831 56.95 2.48136 56.95 3.22034C56.9427 4.65763 56.1775 4.96271 55.5435 4.96271ZM55.5362 0C55.5216 0 55.4997 0 55.4852 0C54.3702 0 53.226 0.284746 52.8179 0.840678C52.5993 1.11186 52.4754 1.45085 52.4681 1.85085V4.54237C52.4681 4.77288 52.4171 4.86102 52.4098 4.88136L52.3442 4.99661H48.8243V3.12542H48.817C48.7732 1.15254 47.5198 0.0677966 45.7051 0.0677966H45.4938H43.9342C43.8614 0.549153 43.8031 0.888136 43.7302 1.36949H45.4938C46.4193 1.36949 46.9076 2.1017 46.9076 3.22712V5.11186L46.7837 5.05085C46.7619 5.04407 46.6088 4.99661 46.3683 4.99661H43.3221C43.2638 5.35593 43.1909 5.82373 43.1107 6.29153H52.4754C52.796 6.23051 53.1677 6.17627 53.4883 6.12881C53.962 6.34576 54.8439 6.46102 55.4487 6.46102C57.482 6.46102 58.801 5.19322 58.801 3.24068C58.7938 1.30847 57.5184 0.040678 55.5362 0ZM39.1171 7.08475H39.2046C41.2378 7.08475 42.1852 6.46102 42.1852 4.92203C42.1852 3.81695 41.318 2.93559 39.8605 2.93559H37.9875C37.4264 2.93559 37.0911 2.63729 37.0911 2.13559C37.0911 1.79661 37.2296 1.37627 38.1479 1.37627H42.2435C42.331 0.881356 42.3747 0.569492 42.4549 0.0745763H38.1989C36.2166 0.0745763 35.2182 0.847458 35.2182 2.13559C35.2182 3.41017 36.0855 4.07458 37.543 4.07458H39.4159C39.9771 4.07458 40.3123 4.48814 40.3123 4.92203C40.3123 5.20678 40.1738 5.79661 39.2629 5.79661H38.9495L32.9518 5.78305H31.8586C30.9331 5.78305 30.2845 5.29492 30.2845 4.16271V3.38305C30.2845 2.20339 30.7873 1.47119 31.8586 1.47119H33.6368C33.717 0.969492 33.768 0.650847 33.8409 0.176271H31.6254H31.4141C29.5994 0.176271 28.346 1.30847 28.3022 3.28136V3.35593V4.16271C28.346 6.13559 29.5994 7.07797 31.4141 7.07797H31.6254H33.185L36.4353 7.08475H38.3738H39.1171Z" fill="black"/>
</svg>
