<svg width="62" height="18" viewBox="0 0 62 18" fill="none" xmlns="http://www.w3.org/2000/svg">
<path fill-rule="evenodd" clip-rule="evenodd" d="M32.3269 7.79676V6.29359C32.3269 6.29359 32.2506 5.11462 31.0734 5.11462H29.2425V7.79676H27.3631V0.0641495H31.9264C31.9264 0.0641495 34.3086 -0.235793 34.3086 2.32845C34.3086 3.66346 33.2545 4.13157 33.2545 4.13157C33.2545 4.13157 34.1682 4.57889 34.1682 5.88788V7.79503H32.3269M29.2425 3.29763H31.1861C31.7513 3.29763 32.2142 2.97168 32.2142 2.56598C32.2142 2.15854 31.7513 1.83086 31.1861 1.83086H29.2443L29.2425 3.29763ZM54.5192 7.79676L51.5336 2.63013V7.79676H47.8494L47.1836 6.17569H43.749L43.0954 7.79676H40.148C40.148 7.79676 37.6167 7.4188 37.6167 4.14718C37.6167 -0.145637 40.4895 0.0260065 40.5901 0L42.9081 0.0641495V1.80659L41.0027 1.83086C41.0027 1.83086 39.7613 1.83086 39.6105 3.52129C39.594 3.69996 39.5859 3.87932 39.5862 4.05876C39.5932 6.67155 41.7604 5.86014 41.8297 5.8376L44.1616 0.0641495H46.797L49.6143 7.07898V0.0641495H52.2722L55.2196 5.1545V0.0641495H57.1129V7.79676H54.5192ZM44.5517 4.19919H46.3809L45.4793 1.89674L44.5517 4.19919ZM17.5725 7.79676V2.45849L15.2146 7.79676H13.6716L11.3015 2.48276V7.79503H7.59123L6.93933 6.17396H3.50473L2.83897 7.79503H0.782715L3.90523 0.0641495H6.55097L9.40995 7.16914V0.0641495H12.3799L14.4483 4.86669L16.5045 0.0641495H19.4762V7.79676H17.5725ZM4.3092 4.19919H6.13833L5.2229 1.89674L4.3092 4.19919ZM20.5165 7.79676V0.0641495H26.3853V1.87074H22.4098V3.0601H26.2847V4.81468H22.4098V6.12368H26.3853V7.79676H20.5165ZM35.0854 0.0641495H36.9769V7.82277H35.0871L35.0854 0.0641495ZM39.5862 18V16.4951C39.5862 16.4951 39.5099 15.3179 38.3327 15.3179H36.5018V18H34.6207V10.2674H39.1857C39.1857 10.2674 41.5679 9.96571 41.5679 12.5317C41.5679 13.8667 40.5138 14.3365 40.5138 14.3365C40.5138 14.3365 41.4153 14.7804 41.4153 16.0877V18H39.5862ZM36.5018 13.4991H38.4471C39.0089 13.4991 39.4735 13.1732 39.4735 12.7675C39.4735 12.36 39.0089 12.0341 38.4471 12.0341H36.5018V13.4991ZM27.0493 17.9861H25.4074L23.4136 15.6976L21.4076 17.9861H14.4119V10.2414H21.2568L23.4136 12.7033L25.5808 10.2552H27.0233V10.2414H31.5883C31.5883 10.2414 33.9705 9.96398 33.9705 12.5178C33.9705 14.7943 33.1782 15.5016 30.7475 15.5016H28.9045V17.9861H27.0493ZM24.6914 14.1805L27.0233 16.8765V11.4984L24.6914 14.1805ZM16.3069 16.313H20.2686L22.1237 14.1805L20.2686 12.0584H16.3052V13.2495H20.1663V15.004H16.3052V16.313M28.9045 13.487H30.8463C31.4115 13.487 31.8761 13.1576 31.8761 12.7519C31.8761 12.3479 31.4115 12.0202 30.848 12.0202H28.9062V13.4853M52.4126 17.9757H49.0647V16.1934H51.9983C51.9983 16.1934 53.0507 16.3252 53.0507 15.5797C53.0507 14.8861 51.4591 14.9382 51.4591 14.9382C51.4591 14.9382 48.8636 15.174 48.8636 12.6357C48.8636 10.1113 51.2077 10.2552 51.2077 10.2552H54.8191V12.0584H51.9116C51.9116 12.0584 50.906 11.8503 50.906 12.6097C50.906 13.2512 52.2722 13.1576 52.2722 13.1576C52.2722 13.1576 55.1451 12.9374 55.1451 15.2641C55.1451 17.7625 53.2951 17.9861 52.6398 17.9861C52.4976 17.9861 52.4126 17.9757 52.4126 17.9757ZM42.3446 17.9861V10.2674H48.21V12.0584H44.2379V13.2495H48.1112V15.004H44.2379V16.313H48.21V17.9861H42.3446ZM59.0443 17.9757H55.6947V16.1934H58.6178C58.6178 16.1934 59.6841 16.3252 59.6841 15.5797C59.6841 14.8861 58.0907 14.9382 58.0907 14.9382C58.0907 14.9382 55.497 15.174 55.497 12.6357C55.497 10.1113 57.8411 10.2552 57.8411 10.2552H61.4404V12.0584H58.5415C58.5415 12.0584 57.5394 11.8503 57.5394 12.6097C57.5394 13.2512 58.9056 13.1576 58.9056 13.1576C58.9056 13.1576 61.7767 12.9374 61.7767 15.2641C61.7767 17.7625 59.9268 17.9861 59.2714 17.9861C59.1293 17.9861 59.0443 17.9757 59.0443 17.9757Z" fill="#1194BE"/>
</svg>
