<svg width="25" height="18" viewBox="0 0 25 18" fill="none" xmlns="http://www.w3.org/2000/svg">
<path opacity="0.5" d="M5.05671 17.9604V16.7656C5.05671 16.3077 4.76667 16.0095 4.27003 16.0095C4.02172 16.0095 3.75305 16.0888 3.56681 16.3473C3.42128 16.1285 3.21469 16.0095 2.90429 16.0095C2.6765 15.9986 2.45851 16.103 2.3242 16.2873V16.0492H1.88965V17.9604H2.3242V16.905C2.3242 16.5661 2.51146 16.4064 2.80048 16.4064C3.09053 16.4064 3.23504 16.5865 3.23504 16.905V17.9604H3.67061V16.905C3.67061 16.5661 3.8772 16.4064 4.14588 16.4064C4.43592 16.4064 4.58043 16.5865 4.58043 16.905V17.9604H5.05671ZM11.4946 16.0492H10.7904V15.4711H10.3558V16.0492H9.96302V16.4267H10.3558V17.303C10.3558 17.7406 10.5421 18.0001 11.0387 18.0001C11.225 18.0001 11.4326 17.94 11.5771 17.8607L11.4529 17.5024C11.3405 17.5698 11.2115 17.6043 11.0804 17.6022C10.8728 17.6022 10.7904 17.4821 10.7904 17.2836V16.4267H11.4946V16.0492ZM15.1787 16.0084C14.969 16.0025 14.772 16.1088 14.6617 16.2873V16.0492H14.2261V17.9604H14.6617V16.8847C14.6617 16.5661 14.8062 16.387 15.0749 16.387C15.1583 16.387 15.2611 16.4074 15.3446 16.4277L15.4687 16.0288C15.3853 16.0084 15.2611 16.0084 15.1787 16.0084ZM9.61089 16.2079C9.40328 16.0685 9.11426 16.0095 8.80386 16.0095C8.30621 16.0095 7.97546 16.2476 7.97546 16.6262C7.97546 16.9447 8.22378 17.1249 8.65833 17.1839L8.86594 17.2042C9.09289 17.2439 9.21704 17.303 9.21704 17.4027C9.21704 17.5421 9.05218 17.6418 8.76214 17.6418C8.47209 17.6418 8.24413 17.5421 8.10063 17.4424L7.89303 17.7609C8.11997 17.9207 8.43037 18.0001 8.74178 18.0001C9.32187 18.0001 9.6516 17.7416 9.6516 17.3834C9.6516 17.0445 9.38293 16.8643 8.96975 16.8053L8.76214 16.7849C8.5759 16.7656 8.43037 16.7259 8.43037 16.6058C8.43037 16.4674 8.5759 16.387 8.80386 16.387C9.05218 16.387 9.3005 16.4868 9.42465 16.5468L9.61089 16.2079ZM21.1607 16.0095C20.9508 16.003 20.7534 16.1089 20.6427 16.2873V16.0492H20.2081V17.9604H20.6427V16.8847C20.6427 16.5661 20.7882 16.387 21.0569 16.387C21.1403 16.387 21.2431 16.4074 21.3266 16.4277L21.4507 16.0288C21.3673 16.0084 21.2431 16.0095 21.1607 16.0095ZM15.6143 17.0048C15.6143 17.5818 16.0275 18.0001 16.6686 18.0001C16.9586 18.0001 17.1663 17.94 17.3728 17.7813L17.1663 17.4424C17.0179 17.5572 16.8359 17.6201 16.6482 17.6215C16.2961 17.6215 16.0478 17.3834 16.0478 17.0048C16.0478 16.6465 16.2961 16.4074 16.6482 16.387C16.8345 16.387 17.0004 16.4471 17.1663 16.5661L17.3728 16.2283C17.1663 16.0685 16.9586 16.0095 16.6686 16.0095C16.0275 16.0095 15.6143 16.4267 15.6143 17.0048ZM19.6291 17.0048V16.0481H19.1945V16.2873C19.043 16.102 18.8129 15.999 18.5737 16.0095C18.014 16.0095 17.5794 16.4267 17.5794 17.0048C17.5794 17.5818 18.014 18.0001 18.5737 18.0001C18.8627 18.0001 19.0704 17.9003 19.1945 17.7212V17.9604H19.6291V17.0048ZM18.0354 17.0048C18.0354 16.6659 18.2633 16.387 18.6358 16.387C18.9869 16.387 19.2362 16.6465 19.2362 17.0048C19.2412 17.167 19.1801 17.3243 19.0669 17.4405C18.9537 17.5568 18.7981 17.6221 18.6358 17.6215C18.2633 17.6011 18.0354 17.3426 18.0354 17.0048ZM12.84 16.0095C12.26 16.0095 11.8457 16.4064 11.8457 17.0048C11.8457 17.6022 12.2599 18.0001 12.8604 18.0001C13.1504 18.0001 13.4405 17.9207 13.6674 17.7416L13.4608 17.4424C13.2927 17.5672 13.0901 17.6369 12.8807 17.6418C12.6121 17.6418 12.3434 17.5218 12.2803 17.1839H13.7509V17.0241C13.7712 16.4074 13.3988 16.0095 12.84 16.0095ZM12.84 16.3677C13.1087 16.3677 13.2949 16.5265 13.3367 16.8257H12.3017C12.3325 16.555 12.568 16.3547 12.84 16.3677ZM23.6235 17.0048V15.292H23.189V16.2873C23.0374 16.102 22.8073 15.999 22.5682 16.0095C22.0084 16.0095 21.5749 16.4267 21.5749 17.0048C21.5749 17.5818 22.0095 18.0001 22.5682 18.0001C22.8582 18.0001 23.0648 17.9003 23.189 17.7212V17.9604H23.6235V17.0048ZM22.0298 17.0048C22.0298 16.6659 22.2578 16.387 22.6303 16.387C22.9824 16.387 23.2307 16.6465 23.2307 17.0048C23.2307 17.3426 22.9824 17.6215 22.6303 17.6215C22.2578 17.6011 22.0298 17.3426 22.0298 17.0048ZM7.49918 17.0048V16.0481H7.06462V16.2873C6.91307 16.102 6.68299 15.999 6.44383 16.0095C5.8841 16.0095 5.45056 16.4267 5.45056 17.0048C5.45056 17.5818 5.88512 18.0001 6.44383 18.0001C6.73387 18.0001 6.94046 17.9003 7.06462 17.7212V17.9604H7.49918V17.0048ZM5.88511 17.0048C5.88511 16.6659 6.11308 16.387 6.48555 16.387C6.83666 16.387 7.08599 16.6465 7.08599 17.0048C7.09096 17.167 7.02984 17.3243 6.91663 17.4405C6.80342 17.5568 6.64784 17.6221 6.48555 17.6215C6.11308 17.6011 5.88511 17.3426 5.88511 17.0048Z" fill="black"/>
<path d="M9.46533 1.53369H15.9857V12.8036H9.46533V1.53369Z" fill="#FF5F00"/>
<path d="M9.87961 7.16869C9.87961 4.87888 10.9981 2.84756 12.7159 1.53372C11.3926 0.534264 9.77837 -0.00439909 8.12001 2.70602e-05C4.00141 2.70602e-05 0.668457 3.20579 0.668457 7.16869C0.668457 11.1306 4.00141 14.3363 8.12001 14.3363C9.77825 14.3411 11.3924 13.8028 12.7159 12.8037C10.9981 11.5092 9.87961 9.4585 9.87961 7.16869Z" fill="#EB001B"/>
<path d="M24.7828 7.16868C24.7828 11.1306 21.4508 14.3363 17.3312 14.3363C15.6733 14.3408 14.0595 13.8025 12.7363 12.8037C14.4745 11.4888 15.5716 9.45849 15.5716 7.16868C15.5716 4.87887 14.4542 2.84756 12.7363 1.53371C14.0594 0.534469 15.6732 -0.00418193 17.3312 2.44499e-05C21.4508 2.44499e-05 24.7828 3.22614 24.7828 7.16868Z" fill="#F79E1B"/>
</svg>
