<svg width="55" height="18" viewBox="0 0 55 18" fill="none" xmlns="http://www.w3.org/2000/svg">
<path d="M15.5493 0.320015L11.2174 12.207L10.7542 9.78999C9.63609 6.71594 7.46485 4.13753 4.62598 2.51247L8.58674 17.7318H13.2695L20.2351 0.321574H15.5493M19.259 17.7396L22.0284 0.305981H26.457L23.686 17.7396H19.259ZM39.738 0.734804C38.4744 0.241766 37.1289 -0.00744605 35.7726 0.000169402C31.3939 0.000169402 28.3173 2.36589 28.2908 5.74969C28.2627 8.26338 30.4895 9.65744 32.1673 10.4933C33.892 11.3478 34.4689 11.8967 34.4627 12.6592C34.4471 13.8225 33.0811 14.3542 31.8102 14.3542C30.0435 14.3542 29.1001 14.0954 27.6514 13.4389L27.0776 13.1676L26.4585 17.0659C27.4924 17.5587 29.4026 17.9735 31.3908 18C36.0377 18 39.0581 15.6594 39.094 12.0401C39.1127 10.0551 37.9307 8.54718 35.3734 7.30281C33.8327 6.49663 32.8753 5.96177 32.8909 5.14155C32.894 4.418 33.6924 3.64456 35.4295 3.64456C36.5695 3.61319 37.7017 3.84197 38.74 4.31353L39.1345 4.51624L39.738 0.734804ZM51.0823 0.321574H47.6642C46.6039 0.321574 45.8101 0.635005 45.3408 1.76866L38.7743 17.7427H43.4259C43.4259 17.7427 44.1853 15.5955 44.3553 15.123L50.0189 15.1323C50.1561 15.7421 50.5599 17.7427 50.5599 17.7427H54.6688L51.0823 0.321574ZM45.6277 11.5583C45.9988 10.5588 47.3929 6.68531 47.3929 6.68531C47.3648 6.73209 47.7515 5.67485 47.9808 5.02147L48.2771 6.52781C48.2771 6.52781 49.1269 10.6882 49.3015 11.5583H45.6277Z" fill="#00579F"/>
<path d="M7.20018 0.314209H0.0630042L0.0224609 0.613605C5.57065 2.05601 9.23046 5.60666 10.7524 9.79354L9.20551 1.78468C8.94042 0.677539 8.16074 0.354752 7.20018 0.314209Z" fill="#FAA619"/>
</svg>
