<svg width="20" height="21" viewBox="0 0 20 21" fill="none" xmlns="http://www.w3.org/2000/svg">
<path d="M19.8508 9.1153C19.491 6.49522 18.1052 4.12536 15.9981 2.52707C13.8911 0.928777 11.2354 0.232975 8.6153 0.592731C5.99522 0.952486 3.62536 2.33833 2.02707 4.44539C0.428778 6.55245 -0.267025 9.20813 0.0927308 11.8282C0.387975 13.9966 1.38389 16.009 2.92877 17.5589C4.47365 19.1088 6.48281 20.1113 8.65019 20.4136C9.09447 20.4713 9.54202 20.5002 9.99003 20.5C11.7975 20.5033 13.5711 20.0101 15.1175 19.0744C15.1967 19.0318 15.2665 18.9735 15.3226 18.9031C15.3786 18.8326 15.4198 18.7516 15.4436 18.6648C15.4674 18.578 15.4733 18.4872 15.461 18.3981C15.4486 18.3089 15.4183 18.2232 15.3719 18.1461C15.3254 18.069 15.2638 18.0021 15.1907 17.9496C15.1177 17.897 15.0347 17.8599 14.9468 17.8403C14.8589 17.8208 14.768 17.8193 14.6796 17.836C14.5911 17.8527 14.507 17.8871 14.4323 17.9373C12.6803 18.9904 10.6119 19.3886 8.59419 19.0613C6.57648 18.7339 4.74005 17.7022 3.41093 16.1492C2.08181 14.5962 1.34602 12.6225 1.33417 10.5784C1.32233 8.53438 2.0352 6.55225 3.34623 4.98397C4.65725 3.41568 6.48161 2.36271 8.49539 2.012C10.5092 1.66129 12.5821 2.03554 14.3461 3.06829C16.1101 4.10104 17.4511 5.72548 18.1309 7.6532C18.8108 9.58092 18.7855 11.6872 18.0597 13.5981C17.9411 13.9102 17.717 14.1709 17.4263 14.3349C17.1355 14.499 16.7964 14.556 16.468 14.496C16.1396 14.4361 15.8425 14.263 15.6285 14.0068C15.4144 13.7506 15.2969 13.4275 15.2962 13.0936V5.87867C15.2962 5.7024 15.2262 5.53336 15.1016 5.40872C14.9769 5.28408 14.8079 5.21406 14.6316 5.21406C14.4554 5.21406 14.2863 5.28408 14.1617 5.40872C14.037 5.53336 13.967 5.7024 13.967 5.87867V7.02578C13.2478 6.20734 12.2945 5.62961 11.2361 5.3708C10.1778 5.11198 9.06545 5.18456 8.0497 5.57873C7.03394 5.97289 6.16381 6.66961 5.55705 7.57458C4.9503 8.47954 4.63621 9.54908 4.65732 10.6384C4.67842 11.7278 5.03368 12.7843 5.67503 13.6651C6.31638 14.5459 7.21284 15.2084 8.2431 15.5629C9.27335 15.9175 10.3877 15.9469 11.4352 15.6473C12.4828 15.3477 13.413 14.7335 14.1 13.8878C14.2648 14.4385 14.5982 14.9237 15.0533 15.275C15.5083 15.6263 16.062 15.826 16.6365 15.8461C17.211 15.8662 17.7774 15.7057 18.2559 15.387C18.7343 15.0684 19.1008 14.6078 19.3038 14.0699C19.8971 12.49 20.0852 10.7866 19.8508 9.1153ZM9.9794 14.5185C9.19072 14.5185 8.41975 14.2847 7.76399 13.8465C7.10823 13.4083 6.59712 12.7856 6.29531 12.0569C5.99349 11.3283 5.91452 10.5265 6.06839 9.75296C6.22225 8.97943 6.60204 8.26891 7.15972 7.71122C7.7174 7.15354 8.42793 6.77376 9.20145 6.6199C9.97497 6.46603 10.7768 6.545 11.5054 6.84682C12.234 7.14863 12.8568 7.65973 13.295 8.3155C13.7332 8.97126 13.967 9.74223 13.967 10.5309C13.966 11.5882 13.5455 12.6018 12.7979 13.3494C12.0503 14.097 11.0367 14.5175 9.9794 14.5185Z" fill="white"/>
</svg>
