<svg width="20" height="20" viewBox="0 0 20 20" fill="none" xmlns="http://www.w3.org/2000/svg">
<g clip-path="url(#clip0_9_448)">
<path d="M11.7405 14.3252L11.7405 14.3252C11.3906 14.6996 11.0857 15.2504 10.8275 15.8222C10.5648 16.4041 10.3317 17.0508 10.1384 17.649C10.09 17.7988 10.044 17.946 10.0004 18.089C9.95715 17.9467 9.91138 17.8001 9.86329 17.651C9.67054 17.0534 9.43799 16.4073 9.17589 15.8262C8.91834 15.2551 8.6141 14.705 8.26473 14.3314L8.26455 14.3312C8.01458 14.0642 7.75861 13.7996 7.50195 13.5344C5.68492 11.6565 3.83331 9.74284 3.83331 6.66667C3.83331 3.26091 6.59422 0.5 9.99998 0.5C13.4057 0.5 16.1666 3.26091 16.1666 6.66667C16.1666 9.73752 14.3205 11.6473 12.5066 13.5239C12.2488 13.7906 11.9916 14.0566 11.7405 14.3252Z" stroke="white" stroke-linecap="round" stroke-linejoin="round"/>
<path d="M12.1666 6.66667C12.1666 7.86328 11.1966 8.83333 9.99998 8.83333C8.80336 8.83333 7.83331 7.86328 7.83331 6.66667C7.83331 5.47005 8.80336 4.5 9.99998 4.5C11.1966 4.5 12.1666 5.47005 12.1666 6.66667Z" stroke="white" stroke-linecap="round" stroke-linejoin="round"/>
</g>
<defs>
<clipPath id="clip0_9_448">
<rect width="20" height="20" fill="white"/>
</clipPath>
</defs>
</svg>
