<svg width="64" height="65" viewBox="0 0 64 65" fill="none" xmlns="http://www.w3.org/2000/svg">
<path d="M18.5444 13.7434C18.5444 9.335 22.1309 5.74862 26.5392 5.74862C27.0914 5.74862 27.5392 6.19637 27.5392 6.74862C27.5392 7.30087 27.0914 7.74862 26.5392 7.74862C23.2337 7.74862 20.5444 10.4379 20.5444 13.7434C20.5444 14.2956 20.0967 14.7434 19.5444 14.7434C18.9922 14.7434 18.5444 14.2956 18.5444 13.7434ZM62.3815 44.4356C62.3815 46.4232 60.7643 48.0405 58.7765 48.0405C56.7888 48.0405 55.1717 46.4232 55.1717 44.4356C55.1717 44.2432 55.1872 44.0546 55.2163 43.8704L45.8085 39.4581C45.7572 39.7453 45.5837 39.9996 45.326 40.1484L43.0692 41.4514L48.0977 46.4405C48.617 46.1501 49.2148 45.9837 49.8509 45.9837C51.8387 45.9837 53.4558 47.601 53.4558 49.5887C53.4558 51.5764 51.8385 53.1936 49.8509 53.1936C47.8633 53.1936 46.246 51.5764 46.246 49.5887C46.246 48.9626 46.4068 48.3735 46.6887 47.8597L41.2742 42.4876L37.9618 44.4L40.5978 51.1525C40.7058 51.1427 40.8149 51.1369 40.9255 51.1369C42.9133 51.1369 44.5304 52.7541 44.5304 54.7417C44.5304 56.7295 42.9132 58.3467 40.9255 58.3467C38.9379 58.3467 37.3207 56.7295 37.3207 54.7417C37.3207 53.5774 37.8762 52.5407 38.7354 51.8812L36.2098 45.4115L33 47.2649V56.4324C34.5027 56.8671 35.6049 58.2544 35.6049 59.8951C35.6049 61.8828 33.9877 63.5 31.9999 63.5C30.0122 63.5 28.395 61.8828 28.395 59.8951C28.395 58.2542 29.4973 56.867 30.9999 56.4324V47.265L27.79 45.4118L25.2645 51.8815C26.1238 52.541 26.6793 53.5776 26.6793 54.742C26.6793 56.7298 25.0622 58.347 23.0744 58.347C21.0867 58.347 19.4695 56.7298 19.4695 54.742C19.4695 52.7544 21.0868 51.1371 23.0744 51.1371C23.1849 51.1371 23.294 51.1429 23.402 51.1527L26.038 44.4002L22.7257 42.4879L17.3112 47.86C17.5932 48.3736 17.7538 48.9629 17.7538 49.589C17.7538 51.5766 16.1367 53.1939 14.1489 53.1939C12.1612 53.1939 10.5439 51.5766 10.5439 49.589C10.5439 47.6012 12.1612 45.984 14.1489 45.984C14.785 45.984 15.3828 46.1502 15.9022 46.4406L20.9307 41.4515L18.6739 40.1485C18.4162 39.9997 18.2428 39.7454 18.1914 39.4582L8.78366 43.8705C8.81278 44.0547 8.82828 44.2435 8.82828 44.4357C8.82828 46.4234 7.21103 48.0406 5.22341 48.0406C3.23578 48.0406 1.61853 46.4234 1.61853 44.4357C1.61853 42.448 3.23578 40.8307 5.22341 40.8307C6.30203 40.8307 7.27078 41.3076 7.93203 42.0607L18.1739 37.2573V28.9421H17.962C13.5314 28.9421 9.92691 25.3375 9.92691 20.907C9.92691 17.869 11.62 15.1354 14.2958 13.7616C14.2958 13.7555 14.2958 13.7495 14.2958 13.7434C14.2958 6.99237 19.7882 1.5 26.5392 1.5C29.5285 1.5 32.3684 2.57163 34.602 4.53013C35.6303 4.2245 36.6972 4.06975 37.782 4.06975C43.267 4.06975 47.8828 8.01725 48.7774 13.3555C51.9268 14.5024 54.0732 17.5173 54.0732 20.9069C54.0732 25.3374 50.4687 28.942 46.038 28.942H45.8262V37.2571L56.068 42.0606C56.7293 41.3074 57.698 40.8306 58.7767 40.8306C60.7644 40.8307 62.3815 42.4479 62.3815 44.4356ZM6.82828 44.4356C6.82828 43.5506 6.10828 42.8306 5.22341 42.8306C4.33853 42.8306 3.61853 43.5506 3.61853 44.4356C3.61853 45.3205 4.33853 46.0405 5.22341 46.0405C6.10828 46.0405 6.82828 45.3205 6.82828 44.4356ZM15.7539 49.5889C15.7539 48.7039 15.034 47.9839 14.149 47.9839C13.264 47.9839 12.544 48.7039 12.544 49.5889C12.544 50.4738 13.264 51.1937 14.149 51.1937C15.0339 51.1937 15.7539 50.4738 15.7539 49.5889ZM24.6793 54.742C24.6793 53.8571 23.9594 53.1371 23.0744 53.1371C22.1894 53.1371 21.4695 53.8571 21.4695 54.742C21.4695 55.627 22.1895 56.347 23.0744 56.347C23.9593 56.347 24.6793 55.627 24.6793 54.742ZM40.9257 53.1371C40.0407 53.1371 39.3208 53.8571 39.3208 54.742C39.3208 55.627 40.0408 56.347 40.9257 56.347C41.8105 56.347 42.5305 55.627 42.5305 54.742C42.5305 53.857 41.8105 53.1371 40.9257 53.1371ZM48.2462 49.5889C48.2462 50.4738 48.966 51.1937 49.851 51.1937C50.736 51.1937 51.4559 50.4738 51.4559 49.5889C51.4559 48.7039 50.7359 47.9839 49.851 47.9839C48.9662 47.9839 48.2462 48.7039 48.2462 49.5889ZM42.8262 24.4722L40.2728 22.998L29.4468 29.2485L32 30.7226L42.8262 24.4722ZM24.7272 28.833V32.3556L26.4467 33.3484V29.8258L24.7272 28.833ZM38.2728 21.8434L36.5532 20.8505L25.727 27.101L27.4468 28.0939L38.2728 21.8434ZM34.5533 19.6959L32 18.2216L21.1739 24.4721L23.7272 25.9463L34.5533 19.6959ZM18.1739 26.9421V24.4721C18.1739 24.1149 18.3645 23.7847 18.6739 23.6061L31.5 16.201C31.8095 16.0223 32.1905 16.0223 32.5 16.201L45.3262 23.6061C45.6355 23.7847 45.8262 24.1147 45.8262 24.4721V26.9421H46.038C49.3659 26.9421 52.0732 24.2347 52.0732 20.907C52.0732 18.1919 50.2382 15.7965 47.6108 15.0817C47.2138 14.9738 46.9234 14.6335 46.879 14.2244C46.376 9.57562 42.465 6.06987 37.782 6.06987C36.721 6.06987 35.6819 6.24963 34.6934 6.604C34.3348 6.73263 33.9343 6.64637 33.6605 6.38137C31.7402 4.52337 29.211 3.5 26.5392 3.5C20.8909 3.5 16.2958 8.09525 16.2958 13.7434C16.2958 13.9332 16.3017 14.1322 16.3133 14.3352C16.3377 14.7612 16.0889 15.1559 15.6939 15.3176C13.4055 16.2548 11.9269 18.4486 11.9269 20.9069C11.9269 24.2346 14.6343 26.942 17.962 26.942H18.1739V26.9421ZM20.1739 38.7051L31 44.9556V32.4546L28.4468 30.9805V35.0805C28.4468 35.4378 28.2562 35.7679 27.9468 35.9465C27.792 36.0359 27.6194 36.0805 27.4468 36.0805C27.2742 36.0805 27.1015 36.0359 26.9468 35.9465L23.2273 33.799C22.9179 33.6204 22.7273 33.2904 22.7273 32.933V27.6782L20.174 26.2041L20.1739 38.7051ZM31.9999 58.2901C31.1149 58.2901 30.395 59.0101 30.395 59.8951C30.395 60.78 31.1149 61.5 31.9999 61.5C32.8849 61.5 33.6049 60.78 33.6049 59.8951C33.6049 59.0101 32.8849 58.2901 31.9999 58.2901ZM43.8262 38.7051V26.2041L33 32.4546V44.9556L43.8262 38.7051ZM60.3815 44.4356C60.3815 43.5506 59.6615 42.8306 58.7765 42.8306C57.8915 42.8306 57.1717 43.5506 57.1717 44.4356C57.1717 45.3205 57.8915 46.0405 58.7765 46.0405C59.6617 46.0405 60.3815 45.3205 60.3815 44.4356Z" fill="#6E1946"/>
</svg>
