<svg width="64" height="65" viewBox="0 0 64 65" fill="none" xmlns="http://www.w3.org/2000/svg">
<path d="M46.0694 42.1131L45.0969 39.9231C45.7086 38.8463 46.1829 37.7024 46.5114 36.511L48.746 35.6509C49.132 35.5024 49.3867 35.1314 49.3867 34.7176V30.2822C49.3867 29.8685 49.132 29.4976 48.746 29.349L46.5121 28.4891C46.1832 27.297 45.7089 26.1528 45.0971 25.0758L46.0694 22.8866C46.2372 22.5086 46.1551 22.0661 45.8625 21.7736L42.7261 18.6374C42.4336 18.3449 41.9914 18.2626 41.6133 18.4306L39.4232 19.4032C38.3464 18.7914 37.2025 18.3173 36.0111 17.9885L35.151 15.754C35.0025 15.3679 34.6315 15.1132 34.2178 15.1132H29.7825C29.3687 15.1132 28.9979 15.368 28.8493 15.754L27.989 17.9886C26.7974 18.3174 25.6536 18.7915 24.5767 19.4034L22.3867 18.4307C22.0085 18.2628 21.5664 18.345 21.2738 18.6375L18.1375 21.7739C17.845 22.0664 17.7629 22.5088 17.9307 22.8869L18.9032 25.0765C18.2914 26.1535 17.8173 27.2973 17.4885 28.489L15.2541 29.3491C14.8681 29.4977 14.6134 29.8686 14.6134 30.2824V34.7176C14.6134 35.1314 14.8681 35.5023 15.2541 35.6509L17.4881 36.5107C17.8171 37.7033 18.2914 38.8474 18.9031 39.9241L17.9307 42.1131C17.7629 42.4911 17.845 42.9336 18.1375 43.2261L21.2739 46.3624C21.5665 46.6549 22.0086 46.7371 22.3869 46.5692L24.577 45.5966C25.6539 46.2084 26.7977 46.6826 27.9891 47.0112L28.8494 49.2459C28.9979 49.6319 29.3689 49.8866 29.7826 49.8866H34.2179C34.6316 49.8866 35.0025 49.6319 35.1511 49.2459L36.011 47.012C37.203 46.6833 38.3471 46.2089 39.4244 45.597L41.6135 46.5692C41.9916 46.7374 42.4339 46.6549 42.7265 46.3625L45.8628 43.2261C46.155 42.9336 46.2371 42.4912 46.0694 42.1131ZM44.6985 35.5314C44.3786 36.8749 43.8484 38.1541 43.1221 39.3338C42.9492 39.6145 42.926 39.9625 43.0597 40.2639L43.9629 42.2974L41.7977 44.4627L39.765 43.56C39.4639 43.4261 39.1156 43.4494 38.8349 43.6224C37.6551 44.3489 36.3755 44.8792 35.0314 45.199C34.7106 45.2752 34.448 45.5049 34.3296 45.8126L33.5312 47.8867H30.4692L29.6705 45.8119C29.5521 45.5042 29.2895 45.2746 28.9688 45.1982C27.6254 44.8785 26.3461 44.3483 25.1665 43.6219C24.8855 43.4489 24.5375 43.4258 24.2364 43.5594L22.2026 44.4626L20.0374 42.2974L20.9404 40.2646C21.0742 39.9631 21.0509 39.6151 20.8779 39.3343C20.1516 38.1554 19.6213 36.8759 19.3013 35.531C19.225 35.2102 18.9955 34.9476 18.6877 34.8293L16.6135 34.0309V30.9688L18.6881 30.1701C18.9959 30.0516 19.2254 29.7891 19.3016 29.4684C19.6214 28.1246 20.1518 26.8454 20.878 25.6659C21.051 25.385 21.0743 25.037 20.9405 24.7356L20.0374 22.7024L22.2026 20.537L24.2362 21.4401C24.5374 21.574 24.8855 21.5508 25.1664 21.3778C26.346 20.6514 27.6252 20.121 28.9688 19.8014C29.2894 19.725 29.552 19.4955 29.6704 19.1877L30.4691 17.113H33.5312L34.3299 19.1877C34.4482 19.4955 34.7109 19.725 35.0315 19.8014C36.375 20.1211 37.6542 20.6515 38.8339 21.3778C39.1146 21.5508 39.4629 21.574 39.764 21.4401L41.7976 20.537L43.9629 22.7022L43.06 24.735C42.9263 25.0364 42.9495 25.3844 43.1225 25.6653C43.8489 26.8448 44.3792 28.1243 44.6991 29.4685C44.7754 29.7892 45.0049 30.0519 45.3126 30.1702L47.3867 30.9686V34.0309L45.312 34.8295C45.0044 34.9481 44.7747 35.2106 44.6985 35.5314ZM32 22.5818C26.5311 22.5818 22.0819 27.0311 22.0819 32.5001C22.0819 37.969 26.5311 42.4183 32 42.4183C37.4689 42.4183 41.9183 37.969 41.9183 32.5001C41.9183 27.0311 37.4689 22.5818 32 22.5818ZM32 40.4183C27.6339 40.4183 24.0819 36.8661 24.0819 32.5001C24.0819 28.1339 27.6339 24.5818 32 24.5818C36.3661 24.5818 39.9183 28.1339 39.9183 32.5001C39.9183 36.8661 36.3661 40.4183 32 40.4183ZM53.1095 43.7189C47.6559 43.7189 43.219 48.1558 43.219 53.6094C43.219 59.063 47.6559 63.5 53.1095 63.5C58.5631 63.5 63 59.0631 63 53.6094C63 48.1559 58.5631 43.7189 53.1095 43.7189ZM53.1095 61.5C48.7586 61.5 45.219 57.9604 45.219 53.6094C45.219 49.2585 48.7586 45.7189 53.1095 45.7189C57.4604 45.7189 61 49.2586 61 53.6094C61 57.9604 57.4604 61.5 53.1095 61.5ZM56.9388 55.57C57.0369 56.3789 56.8181 57.1193 56.306 57.7113C55.801 58.2951 55.0133 58.7094 54.1095 58.8851V59.2354C54.1095 59.7876 53.6618 60.2354 53.1095 60.2354C52.5573 60.2354 52.1095 59.7876 52.1095 59.2354V58.8683C50.6992 58.5525 49.6213 57.5826 49.2871 56.2429C49.1536 55.707 49.4796 55.1642 50.0155 55.0308C50.5513 54.897 51.0941 55.2233 51.2277 55.7591C51.4595 56.6884 52.4375 56.9965 53.2018 56.9781C53.87 56.9622 54.5095 56.731 54.7933 56.4029C54.9339 56.2404 54.9832 56.0578 54.9533 55.811C54.9193 55.5305 54.8394 54.8734 52.9556 54.5641C50.2436 54.1189 49.6094 52.6882 49.5551 51.5666C49.4814 50.0491 50.5039 48.7757 52.1095 48.3681V47.9835C52.1095 47.4313 52.5573 46.9835 53.1095 46.9835C53.6618 46.9835 54.1095 47.4313 54.1095 47.9835V48.3591C55.1489 48.6112 56.1301 49.286 56.6489 50.5215C56.8628 51.0308 56.6232 51.6169 56.1141 51.8306C55.6052 52.0444 55.0187 51.8051 54.8049 51.2957C54.4102 50.3563 53.4419 50.115 52.6566 50.2934C52.4649 50.3369 51.5103 50.598 51.5526 51.4696C51.5639 51.7005 51.5936 52.3138 53.2795 52.5906C55.5121 52.9571 56.7431 53.9595 56.9388 55.57ZM20.781 11.3905C20.781 5.93687 16.3441 1.5 10.8905 1.5C5.43687 1.5 1 5.93687 1 11.3905C1 16.8441 5.43687 21.281 10.8905 21.281C16.3441 21.281 20.781 16.8441 20.781 11.3905ZM3 11.3905C3 7.03963 6.53963 3.5 10.8905 3.5C15.2414 3.5 18.781 7.03963 18.781 11.3905C18.781 15.7414 15.2414 19.281 10.8905 19.281C6.53963 19.281 3 15.7414 3 11.3905ZM10.8906 18.0164C10.3384 18.0164 9.89062 17.5686 9.89062 17.0164V16.6494C8.48012 16.3336 7.40225 15.3638 7.06812 14.0239C6.93462 13.488 7.26075 12.9453 7.79663 12.8118C8.33325 12.678 8.87525 13.0044 9.00875 13.5401C9.2405 14.4694 10.2196 14.7764 10.9827 14.7592C11.651 14.7434 12.2906 14.5121 12.5744 14.184C12.7149 14.0215 12.7642 13.8389 12.7343 13.5921C12.7002 13.3115 12.6204 12.6545 10.7366 12.3451C8.02462 11.8999 7.39037 10.4694 7.33612 9.34775C7.26237 7.83012 8.28487 6.55675 9.89062 6.14913V5.7645C9.89062 5.21225 10.3384 4.7645 10.8906 4.7645C11.4429 4.7645 11.8906 5.21225 11.8906 5.7645V6.14012C12.93 6.39225 13.9113 7.06712 14.4299 8.3025C14.6438 8.81175 14.4043 9.39787 13.895 9.61162C13.3861 9.82525 12.7997 9.58612 12.5859 9.07675C12.1914 8.13725 11.2225 7.89663 10.4377 8.07438C10.246 8.11788 9.29125 8.379 9.33362 9.25075C9.34487 9.48162 9.37463 10.0948 11.0605 10.3716C13.293 10.7381 14.5241 11.7405 14.7195 13.3511C14.8176 14.1599 14.5989 14.9003 14.0868 15.4923C13.5819 16.076 12.7941 16.4904 11.8904 16.6661V17.0164C11.8906 17.5688 11.4429 18.0164 10.8906 18.0164ZM27.16 8.97087C27.1793 8.66412 27.3388 8.38325 27.5921 8.20925L30.9256 5.92137C31.381 5.60887 32.0034 5.7245 32.316 6.18C32.6285 6.63538 32.5127 7.25787 32.0575 7.57037L31.2717 8.10962C31.5835 8.13275 31.8948 8.16062 32.2049 8.19325C40.2634 9.03988 47.5096 12.974 52.6091 19.2709C57.7086 25.5678 60.0508 33.4735 59.2041 41.5319C59.1501 42.0456 58.7163 42.4275 58.2109 42.4275C58.176 42.4275 58.1406 42.4256 58.1051 42.422C57.5558 42.3644 57.1574 41.8723 57.2151 41.323C58.0059 33.7959 55.8182 26.4114 51.055 20.5296C46.2918 14.648 39.5231 10.9733 31.9959 10.1824C31.6131 10.1421 31.2281 10.1095 30.8429 10.0848L31.843 10.9749C32.2556 11.3421 32.2924 11.9741 31.9251 12.3866C31.5581 12.7991 30.9261 12.836 30.5134 12.4689L27.4932 9.781C27.2636 9.57638 27.1407 9.27775 27.16 8.97087ZM39.8984 55.5886C39.9113 55.8958 39.782 56.1917 39.5481 56.3913L36.4721 59.015C36.2839 59.1756 36.0531 59.2542 35.8236 59.2542C35.5409 59.2542 35.2601 59.1351 35.0622 58.9031C34.7039 58.483 34.754 57.8517 35.1743 57.4934L35.8993 56.875C27.4496 57.1324 19.4621 53.954 13.5125 48.0044C7.78287 42.2749 4.6275 34.657 4.6275 26.5543C4.6275 26.002 5.07525 25.5543 5.6275 25.5543C6.17975 25.5543 6.6275 26.002 6.6275 26.5543C6.6275 42.1782 19.3385 54.8894 34.9626 54.8894C35.3471 54.8894 35.7339 54.8816 36.1195 54.8661L35.0317 54.0853C34.5831 53.7631 34.4805 53.1384 34.8025 52.6898C35.1245 52.2411 35.7494 52.1384 36.198 52.4605L39.4824 54.8181C39.732 54.9974 39.8855 55.2815 39.8984 55.5886Z" fill="#6E1946"/>
</svg>
