<svg width="64" height="65" viewBox="0 0 64 65" fill="none" xmlns="http://www.w3.org/2000/svg">
<path d="M53.5961 48.5967C53.0784 48.5967 52.6586 49.0164 52.6586 49.5342C52.6586 50.0519 53.0784 50.4717 53.5961 50.4717H53.6061C54.1239 50.4717 54.5386 50.0519 54.5386 49.5342C54.5386 49.0164 54.114 48.5967 53.5961 48.5967Z" fill="#6E1946"/>
<path d="M22.534 48.5967C22.0162 48.5967 21.5965 49.0164 21.5965 49.5342C21.5965 50.0519 22.0162 50.4717 22.534 50.4717H22.544C23.0617 50.4717 23.4765 50.0519 23.4765 49.5342C23.4765 49.0164 23.0519 48.5967 22.534 48.5967Z" fill="#6E1946"/>
<path d="M63.0238 38.1676L60.0257 36.0241L59.9824 26.9581C59.9757 25.5619 58.9347 24.5484 57.5072 24.5484H50.2297C50.3149 24.0542 50.2055 23.5682 49.9173 23.1924C49.6013 22.7807 49.1039 22.5444 48.5528 22.5444H42.0196C41.5019 22.5444 41.0821 22.9642 41.0821 23.4819C41.0821 23.9997 41.5019 24.4194 42.0196 24.4194L48.3329 24.4195L41.8546 48.5965H27.6172C27.6364 47.6575 27.3697 46.7775 26.8346 46.0802C26.0964 45.1183 24.9506 44.5884 23.608 44.5884C21.195 44.5884 18.7998 46.3003 17.8563 48.5965L13.7357 48.5964L15.5674 41.7603C15.7014 41.2602 15.4047 40.7462 14.9044 40.6121C14.4052 40.4786 13.8903 40.7748 13.7562 41.2751L11.8769 48.2894C11.7284 48.8434 11.8285 49.4026 12.1515 49.8235C12.4675 50.2352 12.9648 50.4715 13.516 50.4715H17.4509C17.4317 51.4105 17.6983 52.2903 18.2334 52.9877C18.9715 53.9497 20.1174 54.4794 21.46 54.4794C23.873 54.4794 26.2682 52.7676 27.2117 50.4715H48.5131C48.4938 51.4105 48.7604 52.2903 49.2955 52.9877C50.0337 53.9497 51.1795 54.4794 52.5221 54.4794C54.9351 54.4794 57.3303 52.7676 58.2738 50.4715H58.6062C60.1333 50.4715 61.6473 49.286 62.0528 47.7725L63.8966 40.8912C64.1877 39.8042 63.8534 38.7606 63.0238 38.1676ZM25.6364 49.2914C25.1552 51.0872 23.2427 52.6045 21.46 52.6045C20.7138 52.6045 20.0961 52.3352 19.7209 51.8463C19.3174 51.3206 19.2146 50.5856 19.4315 49.7766C19.9126 47.9806 21.8252 46.4634 23.608 46.4634C24.3542 46.4634 24.9718 46.7327 25.3471 47.2215C25.7504 47.7474 25.8533 48.4824 25.6364 49.2914ZM58.1484 35.5704H52.0764C51.9179 35.5704 51.7029 35.5365 51.5788 35.3748C51.4694 35.2323 51.4461 35.0033 51.515 34.7465L52.3204 31.7406C52.5073 31.0432 53.2715 30.4315 53.9557 30.4315H58.1238L58.1484 35.5704ZM56.6986 49.2914C56.2173 51.0872 54.3049 52.6045 52.5221 52.6045C51.7759 52.6045 51.1583 52.3352 50.783 51.8463C50.3795 51.3206 50.2768 50.5856 50.4937 49.7766C50.9748 47.9806 52.8874 46.4634 54.6701 46.4634C55.4163 46.4634 56.034 46.7327 56.4092 47.2215C56.8126 47.7474 56.9155 48.4824 56.6986 49.2914ZM60.2415 47.2874C60.0613 47.96 59.344 48.5514 58.6793 48.5926C58.6977 47.6551 58.4309 46.7766 57.8966 46.0803C57.1584 45.1184 56.0126 44.5886 54.67 44.5886C52.257 44.5886 49.8618 46.3004 48.9183 48.5966H43.7957L45.4412 42.4556H56.7458C57.2636 42.4556 57.6833 42.0358 57.6833 41.5181C57.6833 41.0003 57.2636 40.5806 56.7458 40.5806H45.9436L49.7369 26.4235H57.5069C57.7796 26.4235 58.1051 26.5179 58.1072 26.9673L58.1148 28.5566H53.9556C52.4285 28.5566 50.9145 29.7421 50.509 31.2555L49.7037 34.2614C49.4828 35.0857 49.624 35.9075 50.0912 36.5163C50.5443 37.1069 51.2679 37.4455 52.0763 37.4455H58.7897L61.9331 39.693C62.2004 39.884 62.1171 40.2871 62.0853 40.4061L62.0385 40.5806H60.7539C60.2362 40.5806 59.8164 41.0003 59.8164 41.5181C59.8164 42.0358 60.2362 42.4556 60.7539 42.4556H61.5361L60.2415 47.2874Z" fill="#6E1946"/>
<path d="M23.9836 40.4517C32.2356 40.4517 38.9492 33.7382 38.9492 25.4861C38.9492 17.2339 32.2356 10.5205 23.9836 10.5205C15.7316 10.5205 9.01801 17.2341 9.01801 25.4861C9.01801 33.7381 15.7316 40.4517 23.9836 40.4517ZM23.9836 12.3955C31.2017 12.3955 37.0742 18.2679 37.0742 25.4861C37.0742 32.7042 31.2019 38.5767 23.9836 38.5767C16.7653 38.5767 10.893 32.7042 10.893 25.4861C10.893 18.2679 16.7654 12.3955 23.9836 12.3955Z" fill="#6E1946"/>
<path d="M19.9756 30.4315C20.2155 30.4315 20.4555 30.34 20.6385 30.1569L22.6757 28.1197C23.07 28.3163 23.514 28.4276 23.9836 28.4276C25.6056 28.4276 26.9251 27.1079 26.9251 25.4861C26.9251 25.0165 26.8138 24.5725 26.6172 24.1782L31.6605 19.135C32.0266 18.7689 32.0266 18.1753 31.6605 17.8093C31.2944 17.4431 30.7008 17.4432 30.3348 17.8093L25.2915 22.8525C24.8972 22.6559 24.4532 22.5447 23.9836 22.5447C22.3616 22.5447 21.0421 23.8644 21.0421 25.4862C21.0421 25.9558 21.1534 26.3998 21.3499 26.7941L19.3126 28.8313C18.9465 29.1974 18.9465 29.791 19.3126 30.157C19.4958 30.34 19.7356 30.4315 19.9756 30.4315ZM23.9836 24.4196C24.5717 24.4196 25.0501 24.8981 25.0501 25.4861C25.0501 26.0741 24.5716 26.5526 23.9836 26.5526C23.3956 26.5526 22.9171 26.0741 22.9171 25.4861C22.9171 24.8981 23.3956 24.4196 23.9836 24.4196Z" fill="#6E1946"/>
<path d="M23.9836 17.4053C24.5014 17.4053 24.9211 16.9856 24.9211 16.4678V15.4658C24.9211 14.9481 24.5014 14.5283 23.9836 14.5283C23.4659 14.5283 23.0461 14.9481 23.0461 15.4658V16.4678C23.0461 16.9857 23.4659 17.4053 23.9836 17.4053Z" fill="#6E1946"/>
<path d="M23.9836 33.5664C23.4659 33.5664 23.0461 33.9862 23.0461 34.5039V35.5059C23.0461 36.0237 23.4659 36.4434 23.9836 36.4434C24.5014 36.4434 24.9211 36.0237 24.9211 35.5059V34.5039C24.9211 33.9862 24.5014 33.5664 23.9836 33.5664Z" fill="#6E1946"/>
<path d="M33.0016 26.4233H34.0036C34.5214 26.4233 34.9411 26.0036 34.9411 25.4858C34.9411 24.9681 34.5214 24.5483 34.0036 24.5483H33.0016C32.4839 24.5483 32.0641 24.9681 32.0641 25.4858C32.0641 26.0036 32.4839 26.4233 33.0016 26.4233Z" fill="#6E1946"/>
<path d="M15.9031 25.4858C15.9031 24.9681 15.4833 24.5483 14.9656 24.5483H13.9636C13.4458 24.5483 13.0261 24.9681 13.0261 25.4858C13.0261 26.0036 13.4458 26.4233 13.9636 26.4233H14.9656C15.4833 26.4233 15.9031 26.0036 15.9031 25.4858Z" fill="#6E1946"/>
<path d="M10.9575 37.5742H0.937489C0.419745 37.5742 0 37.994 0 38.5117C0 39.0295 0.419745 39.4492 0.937489 39.4492H10.9575C11.4752 39.4492 11.895 39.0295 11.895 38.5117C11.895 37.994 11.4752 37.5742 10.9575 37.5742Z" fill="#6E1946"/>
<path d="M9.95558 41.5825H3.94345C3.4257 41.5825 3.00595 42.0023 3.00595 42.52C3.00595 43.0378 3.4257 43.4575 3.94345 43.4575H9.95558C10.4733 43.4575 10.8931 43.0378 10.8931 42.52C10.8931 42.0023 10.4733 41.5825 9.95558 41.5825Z" fill="#6E1946"/>
<path d="M8.95355 45.5903H6.94955C6.4318 45.5903 6.01205 46.0101 6.01205 46.5278C6.01205 47.0456 6.4318 47.4653 6.94955 47.4653H8.95355C9.4713 47.4653 9.89105 47.0456 9.89105 46.5278C9.89105 46.0101 9.4713 45.5903 8.95355 45.5903Z" fill="#6E1946"/>
</svg>
