<svg width="64" height="64" viewBox="0 0 64 64" fill="none" xmlns="http://www.w3.org/2000/svg">
<g clip-path="url(#clip0_8_118)">
<path d="M54.6274 9.3726C48.5834 3.32854 40.5475 0 32 0C23.4525 0 15.4166 3.32854 9.3726 9.3726C3.32854 15.4165 0 23.4525 0 32C0 40.5475 3.32854 48.5835 9.3726 54.6274C15.4166 60.6715 23.4525 64 32 64C40.5475 64 48.5834 60.6715 54.6274 54.6274C60.6715 48.5835 64 40.5475 64 32C64 23.4525 60.6715 15.4165 54.6274 9.3726ZM32 61.9574C15.4813 61.9574 2.04255 48.5187 2.04255 32C2.04255 15.4813 15.4813 2.04255 32 2.04255C48.5187 2.04255 61.9574 15.4813 61.9574 32C61.9574 48.5187 48.5187 61.9574 32 61.9574Z" fill="#6E1946"/>
<path d="M40.6409 54.4978C41.0914 54.6211 41.5686 54.4233 41.7994 54.0166L44.0528 50.0422L48.5854 49.4714C49.0481 49.4131 49.4126 49.0486 49.471 48.5857L50.0418 44.0532L54.0164 41.7998C54.5071 41.5216 54.6792 40.8984 54.4011 40.4077C54.1229 39.917 53.4995 39.7449 53.0089 40.0229L48.5888 42.5289C48.3084 42.6878 48.1195 42.9699 48.0792 43.2897L47.5432 47.5439L43.2892 48.0797C42.9693 48.12 42.6874 48.3089 42.5284 48.5893L40.4145 52.3177L36.2816 51.1843C35.9715 51.0991 35.639 51.1652 35.385 51.3626L32 53.9921L28.6148 51.3625C28.3605 51.1652 28.0283 51.0991 27.7182 51.1841L23.5852 52.3176L21.4713 48.589C21.3122 48.3086 21.0304 48.1197 20.7105 48.0794L16.4564 47.5436L15.9204 43.2894C15.8801 42.9697 15.6911 42.6876 15.4109 42.5286L10.9909 40.0227C10.5003 39.7446 9.87693 39.9166 9.59874 40.4073C9.32054 40.8981 9.4928 41.5213 9.98342 41.7995L13.958 44.0529L14.5288 48.5854C14.5872 49.0483 14.9516 49.4128 15.4144 49.4711L19.947 50.0419L22.2003 54.0165C22.4309 54.4229 22.9084 54.6215 23.3589 54.4977L27.7653 53.2892L31.3734 56.0918C31.5578 56.2349 31.7788 56.3066 32 56.3066C32.2211 56.3066 32.4421 56.2351 32.6265 56.0918L36.2346 53.2892L40.6409 54.4978Z" fill="#6E1946"/>
<path d="M48.0795 20.7106C48.1198 21.0303 48.3088 21.3123 48.5891 21.4714L53.009 23.9773C53.168 24.0675 53.341 24.1103 53.5117 24.1103C53.8674 24.1103 54.213 23.9242 54.4011 23.5926C54.6793 23.1019 54.507 22.4786 54.0164 22.2004L50.0419 19.9471L49.471 15.4145C49.4126 14.9517 49.0482 14.5871 48.5854 14.5289L44.0528 13.958L41.7995 9.9835C41.5689 9.5769 41.0914 9.37864 40.6409 9.50228L36.2345 10.7108L32.6264 7.90813C32.2577 7.62177 31.7421 7.62177 31.3735 7.90813L27.7654 10.7108L23.359 9.50228C22.9084 9.37864 22.4312 9.57676 22.2005 9.9835L19.9471 13.9579L15.4146 14.5287C14.9519 14.587 14.5873 14.9515 14.5289 15.4144L13.9581 19.9469L9.98357 22.2003C9.49281 22.4785 9.32069 23.1017 9.59889 23.5924C9.87708 24.0831 10.5002 24.2552 10.9911 23.9772L15.4112 21.4712C15.6916 21.3123 15.8804 21.0302 15.9207 20.7104L16.4567 16.4562L20.7108 15.9204C21.0307 15.8801 21.3125 15.6912 21.4716 15.4108L23.5855 11.6824L27.7184 12.8158C28.0283 12.9007 28.3608 12.8348 28.6149 12.6375L32 10.008L35.3852 12.6376C35.6394 12.8349 35.9718 12.9008 36.2817 12.816L40.4147 11.6825L42.5287 15.4111C42.6877 15.6915 42.9696 15.8804 43.2894 15.9207L47.5435 16.4565L48.0795 20.7106Z" fill="#6E1946"/>
<path d="M30.315 40.6512C29.916 40.2523 29.2695 40.2523 28.8706 40.6512L26.913 42.6088L25.7239 41.4196C25.3249 41.0207 24.6784 41.0207 24.2795 41.4196C23.8807 41.8184 23.8807 42.4651 24.2795 42.8638L25.3536 43.9379C24.9024 44.1664 24.4007 44.2882 23.8803 44.2882C23.1417 44.2882 22.4407 44.045 21.8685 43.5961V43.5432C21.8685 42.9791 21.4114 42.5219 20.8472 42.5219C20.2831 42.5219 19.8259 42.9791 19.8259 43.5432V44.053C19.8259 44.3238 19.9335 44.5836 20.125 44.7751C21.128 45.7781 22.4616 46.3306 23.8803 46.3306C24.9519 46.3306 25.975 46.0148 26.8439 45.428L28.1025 46.6867C28.302 46.8861 28.5633 46.9858 28.8247 46.9858C29.086 46.9858 29.3475 46.8861 29.547 46.6867C29.9458 46.2878 29.9458 45.6411 29.547 45.2424L28.3577 44.0531L30.3154 42.0954C30.7138 41.6967 30.7138 41.05 30.315 40.6512Z" fill="#6E1946"/>
<path d="M34.4534 46.6865C34.6529 46.8859 34.9143 46.9857 35.1757 46.9857C35.437 46.9857 35.6984 46.886 35.8979 46.6865L37.1565 45.4279C38.0254 46.0147 39.0485 46.3305 40.1201 46.3305C41.5387 46.3305 42.8724 45.778 43.8754 44.775C44.0669 44.5835 44.1745 44.3237 44.1745 44.0529V43.5431C44.1745 42.979 43.7173 42.5218 43.1532 42.5218C42.589 42.5218 42.1319 42.979 42.1319 43.5431V43.596C41.5597 44.0447 40.8586 44.288 40.1201 44.288C39.5995 44.288 39.098 44.1663 38.6468 43.9378L39.7209 42.8637C40.1197 42.4649 40.1197 41.8182 39.7209 41.4195C39.3219 41.0206 38.6754 41.0206 38.2765 41.4195L37.0873 42.6087L33.4448 38.9661L34.0351 38.3758C36.5557 35.8552 39.7527 34.2888 43.2806 33.846C43.8402 33.7757 44.2368 33.2651 44.1667 32.7055C44.0964 32.1459 43.5857 31.7483 43.0261 31.8195C39.0438 32.3194 35.4353 34.0871 32.5906 36.9316L32 37.5216L31.4097 36.9313C28.565 34.0867 24.9565 32.319 20.9741 31.8192C20.4167 31.7484 19.9039 32.1455 19.8336 32.7053C19.7634 33.2649 20.16 33.7756 20.7197 33.8457C24.2476 34.2885 27.4447 35.8549 29.9652 38.3755L35.6426 44.0529L34.4533 45.2422C34.0546 45.641 34.0546 46.2877 34.4534 46.6865Z" fill="#6E1946"/>
<path d="M31.9999 15.3804C31.4358 15.3804 30.9787 15.8376 30.9787 16.4016V16.9632C30.4683 16.7961 29.9325 16.7067 29.3902 16.7067C28.7723 16.7067 28.1639 16.8183 27.5818 17.0387C24.9435 18.0371 23.6091 20.9956 24.6074 23.6341C24.7109 23.9076 24.9269 24.1237 25.2003 24.2275C25.4737 24.3312 25.7786 24.3129 26.0376 24.1766L28.7622 22.7446L28.0742 23.7306C27.7514 24.193 27.8647 24.8298 28.3272 25.1525C28.7899 25.4752 29.4263 25.3618 29.7491 24.8993L30.9784 23.1374V29.3446C30.3798 29.4653 29.8054 29.6904 29.2828 30.015C28.8036 30.3127 28.6564 30.9423 28.9541 31.4214C29.1476 31.7328 29.4811 31.9039 29.8226 31.9039C30.0066 31.9039 30.1928 31.8542 30.3605 31.7501C30.8512 31.4452 31.4182 31.2841 31.9997 31.2841C32.5811 31.2841 33.1479 31.4452 33.6386 31.7501C34.1179 32.0473 34.7476 31.9004 35.045 31.4212C35.3427 30.942 35.1953 30.3124 34.7163 30.0149C34.1937 29.6904 33.6194 29.4654 33.021 29.3448V23.1376L34.2503 24.8995C34.4488 25.1841 34.7661 25.3365 35.0887 25.3365C35.2904 25.3365 35.4942 25.2768 35.6722 25.1526C36.1346 24.8298 36.2481 24.1932 35.9252 23.7307L35.2371 22.7447L37.9618 24.1767C38.1099 24.2546 38.2732 24.2939 38.4369 24.2939C38.5593 24.2939 38.6821 24.2719 38.7991 24.2275C39.0726 24.1237 39.2886 23.9076 39.392 23.6341C40.3902 20.9958 39.0559 18.0371 36.4174 17.0387C35.8353 16.8185 35.2269 16.7067 34.6091 16.7067C34.0669 16.7067 33.531 16.7961 33.0207 16.9632V16.4016C33.0212 15.8376 32.5641 15.3804 31.9999 15.3804ZM28.3044 18.949C28.6548 18.8165 29.0201 18.7492 29.3902 18.7492C29.9506 18.7492 30.5004 18.9061 30.9787 19.1942V19.2721L26.3206 21.7203C26.3626 20.519 27.1117 19.4004 28.3044 18.949ZM35.6952 18.949C36.8882 19.4004 37.6374 20.5189 37.6793 21.7205L33.0212 19.2723V19.1938C33.8155 18.7163 34.8145 18.6159 35.6952 18.949Z" fill="#6E1946"/>
<path d="M32 3.4043C16.2323 3.4043 3.4043 16.2323 3.4043 32C3.4043 39.2689 6.13451 46.1969 11.0918 51.5076C16.0243 56.7916 22.6977 59.9915 29.8829 60.5176C29.9083 60.5195 29.9334 60.5205 29.9586 60.5205C30.4887 60.5205 30.9368 60.1109 30.9762 59.5737C31.0173 59.0112 30.5946 58.5218 30.0321 58.4805C16.246 57.4711 5.44685 45.8394 5.44685 32C5.44685 17.3586 17.3586 5.44685 32 5.44685C46.6415 5.44685 58.5532 17.3586 58.5532 32C58.5532 38.364 56.2669 44.5197 52.1154 49.3331C51.747 49.7603 51.7947 50.4052 52.2217 50.7736C52.6488 51.1418 53.2935 51.0944 53.6621 50.6672C58.1333 45.4831 60.5958 38.8536 60.5958 32C60.5958 16.2323 47.7677 3.4043 32 3.4043Z" fill="#6E1946"/>
<path d="M49.3331 52.1155C44.9896 55.8617 39.6763 58.0628 33.9679 58.4808C33.4054 58.5219 32.9829 59.0113 33.0239 59.574C33.0632 60.1112 33.5112 60.5208 34.0415 60.5208C34.0665 60.5208 34.0917 60.5198 34.1172 60.5179C40.2661 60.0676 45.9892 57.6972 50.6672 53.6624C51.0943 53.294 51.1419 52.6492 50.7735 52.222C50.405 51.7947 49.7601 51.7473 49.3331 52.1155Z" fill="#6E1946"/>
</g>
<defs>
<clipPath id="clip0_8_118">
<rect width="64" height="64" fill="white"/>
</clipPath>
</defs>
</svg>
