<svg width="64" height="64" viewBox="0 0 64 64" fill="none" xmlns="http://www.w3.org/2000/svg">
<path fill-rule="evenodd" clip-rule="evenodd" d="M56.7319 36.8211L45.0803 43.5484V57.0022L56.7319 50.2757V36.8211ZM55.9058 35.3903L44.2545 42.1176L41.4723 40.5117L53.1236 33.7844L55.9058 35.3903ZM43.4284 43.5482L40.6462 41.9424V48.1916C40.6462 48.4867 40.4887 48.76 40.2332 48.9072C39.9775 49.0552 39.6626 49.0552 39.4071 48.9072L34.9726 46.3466C34.7168 46.1994 34.5596 45.9274 34.5596 45.6322V38.4282L31.777 36.821V50.2755L43.4284 57.0021V43.5482ZM32.6033 35.3903L44.2545 28.6636L47.0368 30.2703L35.3855 36.9976L32.6033 35.3903ZM48.6888 31.2244L51.4714 32.8311L39.4071 39.7959C39.1514 39.9431 38.9942 40.2165 38.9942 40.5117V46.7609L36.2117 45.155V38.4285L48.6888 31.2244ZM58.3839 35.3903V50.7522C58.3839 51.0474 58.2265 51.32 57.971 51.468L44.6674 59.1479C44.5398 59.2215 44.3972 59.2586 44.2545 59.2586C44.1118 59.2586 43.9692 59.2215 43.8413 59.1479L30.538 51.468C30.2823 51.32 30.1251 51.0474 30.1251 50.7522V35.3903C30.1251 35.0951 30.2823 34.8233 30.538 34.6753L43.8413 26.9946C44.097 26.8474 44.4119 26.8474 44.6674 26.9946L57.971 34.6753C58.2265 34.8233 58.3839 35.0953 58.3839 35.3903ZM18.8624 21.3406L15.7687 19.5545L15.6675 23.8761C15.6593 24.2287 15.429 24.5356 15.0938 24.6437C15.0108 24.6695 14.9257 24.683 14.8419 24.683C14.5866 24.683 14.34 24.5638 14.1811 24.3529L12.6839 22.3593L11.5574 23.2376C11.3084 23.4304 10.9706 23.4654 10.6871 23.3273C10.4037 23.1886 10.2239 22.9004 10.2239 22.585V16.3526L7.26799 14.6464V28.0344L18.8624 34.7288V21.3406ZM8.09423 13.2156L19.6886 6.52195L22.6445 8.22883L11.0501 14.9218L8.09423 13.2156ZM24.2963 9.18281L26.5699 10.4943L14.5626 17.4277C14.5607 17.4284 14.5587 17.4298 14.5568 17.4305C14.528 17.448 14.5002 17.4656 14.4736 17.4866C14.4736 17.4866 14.4734 17.4866 14.4731 17.4866C14.4479 17.5069 14.4241 17.5279 14.4012 17.5497C14.3952 17.5559 14.3897 17.5616 14.3839 17.5672C14.3671 17.5847 14.3513 17.6023 14.3356 17.6211C14.3296 17.6288 14.3236 17.6364 14.3176 17.6442C14.3027 17.6638 14.2894 17.6842 14.2762 17.7045C14.2719 17.7116 14.2672 17.7179 14.2632 17.7255C14.2623 17.7269 14.2613 17.7283 14.2604 17.729C14.245 17.7556 14.232 17.783 14.2195 17.8103C14.2169 17.8173 14.2146 17.8236 14.2121 17.8306C14.2023 17.853 14.1936 17.8776 14.1861 17.9022C14.1834 17.9106 14.1813 17.9197 14.1788 17.9282C14.1722 17.9527 14.1671 17.9772 14.1626 18.0011C14.1613 18.0088 14.1599 18.0165 14.1587 18.0243C14.1538 18.0572 14.1508 18.0902 14.1499 18.1225C14.1499 18.1239 14.1497 18.1239 14.1497 18.1239L14.0716 21.4563L13.5002 20.6951C13.3672 20.5177 13.1685 20.4014 12.949 20.3727C12.7294 20.3426 12.507 20.4035 12.3324 20.5395L11.876 20.8949V16.3526L24.2963 9.18281ZM28.2218 11.4484L31.2826 13.2156L19.6885 19.91L16.6277 18.142L28.2218 11.4484ZM32.1087 14.6462L20.5146 21.3406V34.7287L32.1087 28.0343V14.6462ZM19.2757 36.8736L6.02908 29.2259C5.77359 29.0787 5.61615 28.8067 5.61615 28.5117V13.2156C5.61615 13.2135 5.61666 13.2114 5.61666 13.2093C5.61692 13.175 5.61884 13.1406 5.62332 13.1069C5.62357 13.1055 5.62409 13.1033 5.62447 13.1027C5.62857 13.0718 5.63484 13.0403 5.64277 13.0109C5.64469 13.0032 5.64687 12.9941 5.6493 12.9863C5.65647 12.9625 5.66466 12.9379 5.67388 12.9141C5.67695 12.9065 5.67989 12.8988 5.68322 12.891C5.69615 12.8615 5.7101 12.8315 5.72674 12.8027C5.74351 12.7739 5.76207 12.7466 5.78153 12.72C5.78652 12.7137 5.79189 12.7081 5.79714 12.701C5.81327 12.6807 5.83004 12.6617 5.84783 12.6429C5.85359 12.6373 5.85909 12.6324 5.86485 12.6254C5.88725 12.6036 5.91081 12.5826 5.93551 12.5637C5.93666 12.563 5.93769 12.5616 5.93884 12.5609C5.96597 12.5399 5.99439 12.5209 6.0237 12.504C6.02562 12.5034 6.02729 12.5006 6.02921 12.4998L19.2758 4.85219C19.5313 4.70422 19.8462 4.70422 20.1017 4.85219L33.348 12.4998C33.3502 12.5006 33.3518 12.5034 33.354 12.504C33.3831 12.5222 33.4112 12.5397 33.4381 12.5609C33.4396 12.5615 33.441 12.5637 33.4427 12.5651C33.4668 12.5833 33.4898 12.6036 33.5122 12.6254C33.518 12.631 33.5237 12.6373 33.5295 12.6429C33.5473 12.6619 33.5637 12.6808 33.5798 12.701C33.585 12.7081 33.5906 12.7137 33.5957 12.7214C33.615 12.7466 33.6334 12.774 33.6505 12.8027C33.6668 12.8315 33.6812 12.8615 33.694 12.891C33.6973 12.8987 33.7 12.9063 33.7031 12.9141C33.7124 12.9379 33.7209 12.9625 33.728 12.9863C33.7302 12.994 33.7324 13.0031 33.7346 13.0109C33.7422 13.0403 33.7486 13.0718 33.753 13.1027C33.7532 13.1033 33.7535 13.1055 33.7537 13.1069C33.7581 13.1406 33.7603 13.1749 33.7605 13.2093C33.7605 13.2114 33.7608 13.2135 33.7608 13.2156V28.5117C33.7608 28.8067 33.6036 29.0787 33.3479 29.2259L20.1015 36.8737C20.0996 36.8751 20.0974 36.8765 20.0953 36.8771C20.0659 36.8939 20.0356 36.9094 20.0044 36.9227C20.0025 36.9227 20.0005 36.9234 19.9986 36.9248C19.9702 36.936 19.9409 36.9458 19.9109 36.9536C19.903 36.9556 19.8948 36.9578 19.8869 36.9598C19.8623 36.9661 19.8373 36.9711 19.8121 36.9739C19.8037 36.9767 19.7955 36.9774 19.7869 36.9788C19.7546 36.9822 19.7218 36.9851 19.6886 36.9851C19.6552 36.9851 19.6227 36.9822 19.5903 36.9788C19.5818 36.9774 19.5737 36.9767 19.5651 36.9739C19.5396 36.9711 19.515 36.9662 19.4903 36.9598C19.4821 36.9577 19.4742 36.9556 19.466 36.9536C19.4362 36.9459 19.4069 36.936 19.3783 36.9248C19.3767 36.9234 19.3747 36.9227 19.3728 36.9227C19.3413 36.9094 19.3111 36.8939 19.2817 36.8771C19.2796 36.8764 19.2776 36.875 19.2757 36.8736ZM36.1226 11.7513C36.1265 11.7765 36.1314 11.8003 36.1376 11.8263C36.1395 11.8339 36.1415 11.841 36.1436 11.8487C36.1523 11.8809 36.1628 11.9118 36.1749 11.9412H36.1751C36.1879 11.9727 36.203 12.0021 36.2192 12.0309C36.2226 12.0372 36.2268 12.0443 36.2307 12.0491C36.2437 12.0715 36.2581 12.0925 36.2732 12.1136C36.2783 12.1213 36.2835 12.1277 36.289 12.134C36.3082 12.1586 36.3278 12.1816 36.3496 12.2034C36.3509 12.2048 36.3518 12.2068 36.3532 12.2082C36.376 12.2314 36.4008 12.2517 36.426 12.272C36.4328 12.2776 36.44 12.2818 36.4469 12.2873C36.4682 12.3035 36.4904 12.3182 36.5134 12.3315C36.5173 12.3343 36.5209 12.3371 36.525 12.3399L40.3762 14.5634C40.5064 14.6384 40.6485 14.6735 40.7886 14.6735C41.0739 14.6735 41.3516 14.5263 41.5047 14.2606C41.7328 13.8652 41.5975 13.3612 41.2023 13.1326L40.0209 12.4499H41.8944C46.6489 12.4499 50.517 16.3179 50.517 21.0726V26.0299C50.517 26.4856 50.8867 26.8556 51.3429 26.8556C51.7989 26.8556 52.169 26.4856 52.169 26.0299V21.0726C52.169 15.4073 47.5597 10.7983 41.8944 10.7983H40.0208L41.2022 10.1163C41.5973 9.88847 41.7326 9.38313 41.5045 8.98774C41.2764 8.59235 40.7712 8.45782 40.3761 8.68553L36.525 10.9094C36.5209 10.9115 36.5173 10.9136 36.5134 10.9179C36.4904 10.9305 36.4682 10.9459 36.4469 10.9614C36.44 10.967 36.4328 10.9712 36.426 10.9767C36.4008 10.9963 36.3762 11.0188 36.3532 11.0406C36.3518 11.0427 36.3507 11.0441 36.3493 11.0455C36.328 11.0672 36.3082 11.0904 36.2892 11.1148C36.2837 11.1211 36.2784 11.1288 36.2733 11.1352C36.2582 11.1562 36.244 11.1773 36.2308 11.1989C36.227 11.206 36.2229 11.2116 36.2193 11.2179C36.203 11.2467 36.1881 11.2768 36.1753 11.307C36.1753 11.307 36.1753 11.307 36.175 11.307C36.163 11.3371 36.1525 11.3679 36.1438 11.3995C36.1416 11.4072 36.1397 11.4156 36.1377 11.4233C36.1315 11.4485 36.1265 11.4738 36.1228 11.499C36.1214 11.5074 36.1197 11.5151 36.1187 11.5242C36.1148 11.5572 36.1122 11.5901 36.1122 11.6244C36.1122 11.6587 36.1148 11.6917 36.1187 11.7246C36.1197 11.7337 36.1212 11.742 36.1226 11.7513ZM26.7539 51.3383C26.7529 51.3292 26.7515 51.3201 26.7501 51.3117C26.746 51.2865 26.7411 51.2613 26.735 51.2367C26.7327 51.229 26.7309 51.2212 26.7287 51.2121C26.72 51.182 26.7095 51.1512 26.6975 51.121C26.6972 51.121 26.6972 51.121 26.6972 51.121C26.6843 51.0901 26.6696 51.0607 26.6532 51.032C26.6496 51.0257 26.6455 51.0187 26.6417 51.0131C26.6285 50.9913 26.6145 50.9689 26.5992 50.9492C26.5941 50.9415 26.5888 50.9351 26.5833 50.9274C26.5644 50.9043 26.5444 50.8798 26.523 50.8587C26.5217 50.8579 26.5206 50.8559 26.5192 50.8545C26.4961 50.8313 26.4718 50.8103 26.4464 50.7907C26.4394 50.7851 26.4324 50.7795 26.4259 50.7754C26.4045 50.7586 26.3821 50.7445 26.3593 50.7305C26.3552 50.7276 26.3516 50.7248 26.3475 50.7228L22.4963 48.4985C22.1011 48.2707 21.5959 48.406 21.3678 48.8014C21.1397 49.196 21.275 49.7015 21.6702 49.9292L22.852 50.6119H20.9779C16.2236 50.6119 12.3554 46.7439 12.3554 41.9898V37.0325C12.3554 36.5769 11.9857 36.206 11.5295 36.206C11.0733 36.206 10.7034 36.5769 10.7034 37.0325V41.9898C10.7034 47.6551 15.3127 52.2641 20.9779 52.2641H22.852L21.6702 52.9461C21.275 53.174 21.1397 53.6793 21.3678 54.0747C21.5209 54.339 21.7985 54.4876 22.0839 54.4876C22.224 54.4876 22.3662 54.4519 22.4963 54.3769L26.3475 52.1527C26.3516 52.1505 26.3552 52.147 26.3593 52.145C26.3821 52.1323 26.4045 52.1169 26.4259 52.1008C26.4324 52.096 26.4396 52.091 26.4464 52.0861C26.4718 52.0651 26.4964 52.044 26.5192 52.021C26.5205 52.0195 26.5214 52.0189 26.5226 52.0175C26.5443 51.9957 26.5642 51.9726 26.5832 51.9481C26.5887 51.9418 26.5938 51.9342 26.5991 51.9271C26.6144 51.9061 26.6284 51.8858 26.6416 51.8633C26.6454 51.857 26.6495 51.8513 26.6531 51.8443C26.6695 51.8156 26.6843 51.7862 26.6971 51.7553C26.6971 51.7553 26.6971 51.7546 26.6974 51.7546C26.7094 51.7245 26.7198 51.6937 26.7286 51.6628C26.7308 51.6551 26.7327 51.6474 26.7349 51.639C26.7409 51.6144 26.7458 51.5892 26.75 51.564C26.7513 51.5549 26.7527 51.5472 26.7538 51.5388C26.7579 51.5051 26.7603 51.4729 26.7603 51.4386C26.7605 51.4042 26.758 51.3712 26.7539 51.3383Z" fill="#6E1946"/>
</svg>
