<svg width="64" height="64" viewBox="0 0 64 64" fill="none" xmlns="http://www.w3.org/2000/svg">
<path d="M29 44H6C4.9 44 4 43.1 4 42V8C4 6.9 4.9 6 6 6H55C56.1 6 57 6.9 57 8V30.76C57 31.31 57.45 31.76 58 31.76C58.55 31.76 59 31.31 59 30.76V8C59 5.79 57.21 4 55 4H6C3.79 4 2 5.79 2 8V42C2 44.21 3.79 46 6 46H29C29.55 46 30 45.55 30 45C30 44.45 29.55 44 29 44Z" fill="#6E1946"/>
<path d="M62 45C62 36.73 55.27 30 47 30C38.73 30 32 36.73 32 45C32 53.27 38.73 60 47 60C51 60 54.76 58.44 57.61 55.61C60.44 52.77 62 49 62 45ZM56.87 53.46L54.03 50.62C55.1 49.28 55.76 47.69 55.94 46H59.96C59.75 48.76 58.68 51.35 56.87 53.46ZM47 38C50.86 38 54 41.14 54 45C54 46.86 53.27 48.62 51.95 49.95C50.62 51.27 48.86 52 47 52C43.14 52 40 48.86 40 45C40 41.14 43.14 38 47 38ZM59.96 44H55.94C55.48 39.83 52.16 36.52 48 36.06V32.04C54.37 32.53 59.47 37.63 59.96 44ZM47 58C39.83 58 34 52.17 34 45C34 37.83 39.3 32.55 46 32.04V36.06C41.51 36.56 38 40.38 38 45C38 49.96 42.04 54 47 54C49.06 54 51.02 53.31 52.62 52.03L55.46 54.87C53.1 56.89 50.13 58 47 58Z" fill="#6E1946"/>
<path d="M33 20C33 19.47 32.85 18.97 32.6 18.54L35.89 14.78C36.23 14.92 36.6 15 36.99 15C37.38 15 37.75 14.92 38.09 14.78L41.38 18.54C41.14 18.97 40.98 19.47 40.98 20C40.98 21.65 42.33 23 43.98 23C45.63 23 46.98 21.65 46.98 20C46.98 19.47 46.83 18.97 46.58 18.54L49.87 14.78C50.21 14.92 50.58 15 50.97 15C52.62 15 53.97 13.65 53.97 12C53.97 10.35 52.62 9 50.97 9C49.32 9 47.97 10.35 47.97 12C47.97 12.53 48.12 13.03 48.37 13.46L45.08 17.22C44.74 17.08 44.37 17 43.98 17C43.59 17 43.22 17.08 42.88 17.22L39.59 13.46C39.83 13.03 39.99 12.53 39.99 12C39.99 10.35 38.64 9 36.99 9C35.34 9 33.99 10.35 33.99 12C33.99 12.53 34.14 13.03 34.39 13.46L31.1 17.22C30.76 17.08 30.39 17 30 17C28.35 17 27 18.35 27 20C27 21.65 28.35 23 30 23C31.65 23 33 21.65 33 20ZM51 11C51.55 11 52 11.45 52 12C52 12.55 51.55 13 51 13C50.45 13 50 12.55 50 12C50 11.45 50.45 11 51 11ZM45 20C45 20.55 44.55 21 44 21C43.45 21 43 20.55 43 20C43 19.45 43.45 19 44 19C44.55 19 45 19.45 45 20ZM37 11C37.55 11 38 11.45 38 12C38 12.55 37.55 13 37 13C36.45 13 36 12.55 36 12C36 11.45 36.45 11 37 11ZM30 21C29.45 21 29 20.55 29 20C29 19.45 29.45 19 30 19C30.55 19 31 19.45 31 20C31 20.55 30.55 21 30 21Z" fill="#6E1946"/>
<path d="M7 40C7 40.55 7.45 41 8 41H12C12.55 41 13 40.55 13 40V29C13 28.45 12.55 28 12 28H8C7.45 28 7 28.45 7 29V40ZM9 30H11V39H9V30Z" fill="#6E1946"/>
<path d="M16 24C15.45 24 15 24.45 15 25V40C15 40.55 15.45 41 16 41H20C20.55 41 21 40.55 21 40V25C21 24.45 20.55 24 20 24H16ZM19 39H17V26H19V39Z" fill="#6E1946"/>
<path d="M24 41H28C28.55 41 29 40.55 29 40V32C29 31.45 28.55 31 28 31H24C23.45 31 23 31.45 23 32V40C23 40.55 23.45 41 24 41ZM25 33H27V39H25V33Z" fill="#6E1946"/>
<path d="M8 11H10C10.55 11 11 10.55 11 10C11 9.45 10.55 9 10 9H8C7.45 9 7 9.45 7 10C7 10.55 7.45 11 8 11Z" fill="#6E1946"/>
<path d="M14 11H22C22.55 11 23 10.55 23 10C23 9.45 22.55 9 22 9H14C13.45 9 13 9.45 13 10C13 10.55 13.45 11 14 11Z" fill="#6E1946"/>
<path d="M8 16H10C10.55 16 11 15.55 11 15C11 14.45 10.55 14 10 14H8C7.45 14 7 14.45 7 15C7 15.55 7.45 16 8 16Z" fill="#6E1946"/>
<path d="M14 16H22C22.55 16 23 15.55 23 15C23 14.45 22.55 14 22 14H14C13.45 14 13 14.45 13 15C13 15.55 13.45 16 14 16Z" fill="#6E1946"/>
<path d="M8 21H10C10.55 21 11 20.55 11 20C11 19.45 10.55 19 10 19H8C7.45 19 7 19.45 7 20C7 20.55 7.45 21 8 21Z" fill="#6E1946"/>
<path d="M23 20C23 19.45 22.55 19 22 19H14C13.45 19 13 19.45 13 20C13 20.55 13.45 21 14 21H22C22.55 21 23 20.55 23 20Z" fill="#6E1946"/>
</svg>
