<svg width="66" height="21" viewBox="0 0 66 21" fill="none" xmlns="http://www.w3.org/2000/svg">
<path d="M58.2459 0.000175958C59.1783 0.00296945 60.0716 0.377555 60.7295 1.0417L64.7241 5.09985C65.716 6.10719 66.0084 7.61506 65.4654 8.92308C65.287 9.35272 65.03 9.73314 64.7153 10.0503L64.7241 10.0597C65.716 11.067 66.0084 12.5749 65.4654 13.8829C65.2872 14.3121 65.0306 14.6921 64.7163 15.0091L64.7241 15.017C65.716 16.0244 66.0084 17.5323 65.4654 18.8403C64.9224 20.1483 63.6505 21 62.2405 21H50.7071C49.7745 20.9977 48.8811 20.6231 48.2234 19.9585L44.2288 15.9003C43.2369 14.893 42.9446 13.3851 43.4876 12.0771C43.6658 11.6477 43.9226 11.2675 44.2371 10.9504L44.2288 10.9417C43.2369 9.93439 42.9446 8.42651 43.4876 7.1185C43.6658 6.6891 43.9226 6.30888 44.2371 5.99182L44.2288 5.98313C43.2238 4.98307 42.9299 3.46666 43.488 2.16052C44.0191 0.842824 45.2981 -0.0141116 46.7125 0.000175958H58.2459ZM44.558 12.5264C44.1954 13.4004 44.391 14.4079 45.0539 15.0808L49.0485 19.1378C49.4873 19.5823 50.084 19.833 50.7071 19.8346H62.2405C63.1826 19.8351 64.0327 19.266 64.3954 18.392C64.7581 17.5179 64.5623 16.5104 63.8991 15.8378L63.7578 15.6943C63.2938 15.9193 62.7771 16.0426 62.2405 16.0426L50.7071 16.0414C49.7745 16.0391 48.8811 15.6645 48.2234 14.9999L45.0532 11.7789C44.8456 11.9897 44.676 12.2419 44.558 12.5264ZM50.669 11.0818L46.7125 11.0828C46.4971 11.0828 46.2865 11.1126 46.0855 11.169L49.0485 14.1792C49.4873 14.6237 50.084 14.8744 50.7071 14.876H62.2405C62.4562 14.8761 62.6671 14.8463 62.8684 14.7899L59.9045 11.7772C59.4876 11.3549 58.9282 11.1075 58.3392 11.0824L50.7071 11.0828L50.669 11.0818ZM62.2405 11.0828L60.8515 11.0828L63.9003 14.1805C64.1078 13.9698 64.2774 13.7177 64.3954 13.4334C64.7581 12.5593 64.5623 11.5518 63.8991 10.8792L63.7569 10.7349C63.2931 10.9596 62.7767 11.0828 62.2405 11.0828ZM44.558 7.56778C44.1954 8.44184 44.391 9.44931 45.0539 10.1222L45.1953 10.2656C45.6593 10.0407 46.1759 9.91737 46.7125 9.91737L48.1017 9.91725L45.053 6.82057C44.8455 7.03132 44.676 7.28342 44.558 7.56778ZM58.2459 6.1242H46.7125C46.4969 6.12425 46.2862 6.15408 46.085 6.21055L49.0485 9.22057C49.4873 9.66512 50.084 9.91584 50.7071 9.91737H62.2405C62.456 9.91749 62.6668 9.88779 62.868 9.83145L59.9045 6.82101C59.4657 6.37645 58.8689 6.12573 58.2459 6.1242ZM58.2459 1.16561H46.7125C45.7678 1.15723 44.9138 1.72965 44.5584 2.60951C44.1871 3.4825 44.3835 4.49481 45.0539 5.16364L45.1953 5.307C45.6593 5.08211 46.1759 4.95877 46.7125 4.95877H58.2459C59.1783 4.96157 60.0716 5.33615 60.7295 6.0003L63.9001 9.22212C64.1077 9.0114 64.2774 8.75924 64.3954 8.47479C64.7581 7.60073 64.5623 6.59318 63.8991 5.92056L59.9045 1.86241C59.4657 1.41785 58.8689 1.16713 58.2459 1.16561Z" fill="white"/>
<path d="M62.8727 9.83515C62.6665 9.89059 62.4539 9.91823 62.2404 9.91736H50.7083C50.0852 9.91539 49.4884 9.66526 49.0485 9.22176L46.0815 6.20759C46.2877 6.15224 46.5003 6.1246 46.7137 6.12538H58.2471C58.8699 6.12674 59.4666 6.37699 59.9057 6.82098L62.8727 9.83515Z" fill="white" fill-opacity="0.3"/>
<path d="M62.8727 9.83515C62.6665 9.89059 62.4539 9.91823 62.2404 9.91736H50.7083C50.0852 9.91539 49.4884 9.66526 49.0485 9.22176L46.0815 6.20759C46.2877 6.15224 46.5003 6.1246 46.7137 6.12538H58.2471C58.8699 6.12674 59.4666 6.37699 59.9057 6.82098L62.8727 9.83515Z" fill="url(#paint0_linear_73_2224)" fill-opacity="0.4"/>
<path d="M62.8727 14.7938C62.6665 14.8492 62.4539 14.8769 62.2404 14.876H50.7083C50.0852 14.874 49.4884 14.6239 49.0485 14.1804L46.0815 11.1638C46.2877 11.1084 46.5003 11.0808 46.7137 11.0816H58.2471C58.8699 11.0829 59.4666 11.3332 59.9057 11.7772L62.8727 14.7938Z" fill="white" fill-opacity="0.2"/>
<path d="M62.8727 14.7938C62.6665 14.8492 62.4539 14.8769 62.2404 14.876H50.7083C50.0852 14.874 49.4884 14.6239 49.0485 14.1804L46.0815 11.1638C46.2877 11.1084 46.5003 11.0808 46.7137 11.0816H58.2471C58.8699 11.0829 59.4666 11.3332 59.9057 11.7772L62.8727 14.7938Z" fill="url(#paint1_linear_73_2224)" fill-opacity="0.4"/>
<path fill-rule="evenodd" clip-rule="evenodd" d="M31.618 11.7534C31.7377 12.3403 32.0322 12.4962 32.5934 12.5359C32.972 12.5627 33.3546 12.5304 33.7339 12.5518C34.3008 12.5836 34.8281 12.7448 35.2696 13.1236C35.6519 13.4517 35.8749 13.8721 35.9434 14.3697C36.0429 15.0928 36.0536 15.8203 35.9334 16.5397C35.8135 17.2574 35.3832 17.8582 34.5386 18.1046C34.1473 18.2188 33.7488 18.2441 33.3465 18.2287C33.2015 18.2231 33.1585 18.2736 33.167 18.4132C33.1762 18.5629 33.1665 18.7122 33.1334 18.862C33.0701 19.1488 32.8918 19.3116 32.6179 19.3719C32.4046 19.4187 32.1882 19.4077 31.9896 19.3096C31.762 19.1974 31.6618 18.9925 31.6408 18.7483C31.6292 18.6146 31.6328 18.4792 31.6352 18.3447C31.6367 18.2611 31.6025 18.2253 31.5206 18.2315C31.494 18.2335 31.4671 18.2315 31.4403 18.2315L26.3002 18.2317C26.1328 18.2329 26.1295 18.248 26.1254 18.4404C26.1156 18.906 26.0636 19.3618 25.8552 19.7875C25.5591 20.3929 25.056 20.7234 24.4229 20.8769C23.8388 21.0185 23.2425 21.0102 22.6486 20.9862C22.1337 20.9653 21.8782 20.4557 22.1456 20.0091C22.2397 19.8519 22.3962 19.7927 22.5686 19.7875C22.8416 19.7794 23.1149 19.7813 23.3881 19.7827C23.5935 19.7839 23.7957 19.7587 23.9876 19.6881C24.4318 19.5245 24.5769 19.1519 24.6167 18.7241C24.6626 18.2323 24.6546 18.2351 24.1673 18.2305C23.6968 18.2261 23.2257 18.255 22.7574 18.1663C21.8105 17.9871 21.1099 17.4165 20.9577 16.3375C20.87 15.7157 20.8677 15.0914 20.9657 14.4718C21.0923 13.6709 21.5584 12.9669 22.5668 12.7312C23.6368 12.4813 24.6808 12.6104 25.7028 12.9854C26.0006 13.0948 26.1364 13.3029 26.1288 13.6278C26.1167 14.1498 26.1256 14.6721 26.1256 15.1943C26.1266 15.738 26.1307 16.2818 26.1239 16.8254C26.1221 16.9711 26.1651 17.0259 26.3151 17.0247C27.0324 17.019 27.7497 17.0226 28.467 17.0211C28.517 17.0211 28.5831 17.0427 28.6097 16.9796C28.6314 16.9278 28.5809 16.8922 28.556 16.8524C28.4013 16.6065 28.3196 16.333 28.2982 16.0479C28.2684 15.6508 28.2727 15.2517 28.2914 14.8535C28.3407 13.8071 29.0257 13.0063 30.0496 12.7959C30.3694 12.73 30.3662 12.7312 30.2583 12.4168C30.208 12.2701 30.1609 12.121 30.1564 11.9626C30.1437 11.5135 30.3235 11.2837 30.7685 11.2357C31.3167 11.1767 31.5343 11.3425 31.618 11.7534ZM9.22823 12.7831C9.47186 12.9197 9.56277 13.1463 9.56426 13.4065L9.56733 14.5619L9.56741 16.1103L9.56765 16.5033C9.56829 16.763 9.66613 16.8768 9.93719 16.9001C10.1566 16.9189 10.3779 16.9201 10.5985 16.9218C10.9866 16.9251 11.3749 16.9186 11.763 16.9251C11.9071 16.9275 11.9591 16.8858 11.9579 16.7374C11.9513 15.857 11.9535 14.9768 11.956 14.0964C11.9563 13.9352 11.9504 13.7737 12.0187 13.6172C12.1122 13.403 12.2746 13.2886 12.5061 13.2578C12.5488 13.2521 12.5921 13.2504 12.6352 13.2488C13.1926 13.2289 13.4478 13.4533 13.4528 13.9974C13.4613 14.8986 13.456 15.7999 13.4567 16.7012C13.4568 16.9218 13.4569 16.9231 13.6914 16.9226C13.8585 16.9223 14.0258 16.9225 14.1926 16.9149C14.7452 16.8894 15.0486 16.6044 15.0606 16.0639C15.0757 15.3935 15.0667 14.7227 15.0677 14.052C15.068 13.9103 15.0722 13.7709 15.1265 13.6348C15.2093 13.427 15.3578 13.3027 15.5809 13.2542C15.7478 13.2179 15.9119 13.2238 16.0778 13.2573C16.3107 13.3045 16.5057 13.49 16.5534 13.718C16.5825 13.857 16.599 13.9971 16.5963 14.1394C16.5821 14.9091 16.6355 15.6802 16.5395 16.4479C16.5318 16.5094 16.5505 16.5562 16.5957 16.6028C16.9049 16.9213 17.5304 17.0099 17.9098 16.7841C18.0939 16.6745 18.2058 16.5158 18.2483 16.3091C18.2748 16.1798 18.2855 16.0502 18.2853 15.9187C18.2845 15.1746 18.2848 14.4305 18.2852 13.6865C18.2852 13.6027 18.2903 13.5188 18.2888 13.435C18.2762 12.7187 18.9058 12.5971 19.3754 12.7446C19.6375 12.8268 19.7613 13.0224 19.7872 13.2745C19.8064 13.4615 19.8034 13.6512 19.8021 13.8397C19.797 14.5941 19.8361 15.3499 19.784 16.1027C19.7371 16.7773 19.4768 17.3652 18.8786 17.7614C18.3806 18.0914 17.8239 18.1594 17.2397 18.0636C16.8234 17.9954 16.4461 17.8381 16.1189 17.5763C16.0518 17.5225 16.0027 17.523 15.9376 17.58C15.5199 17.9454 15.0133 18.0906 14.4667 18.0943C13.0596 18.1038 11.6524 18.101 10.2453 18.0978C9.8795 18.0969 9.53131 18.0103 9.21077 17.834C9.14728 17.7991 9.09122 17.7656 9.01762 17.8106C8.65692 18.0309 8.24666 18.0863 7.8386 18.0888C5.95712 18.1007 4.07536 18.1075 2.19402 18.0886C1.56722 18.0824 0.98354 17.8978 0.542669 17.4188C0.271331 17.1241 0.128168 16.7712 0.065601 16.3887C-0.0065636 15.9478 -0.00484035 15.5035 0.0047668 15.0594L0.0145573 14.6156C0.0192234 14.3375 0.0817201 14.0584 0.388972 13.9389C0.860031 13.7556 1.53562 13.8553 1.54163 14.6072C1.54516 15.0525 1.54587 15.4979 1.54269 15.9433C1.54149 16.1137 1.568 16.2795 1.63191 16.4349C1.76383 16.756 2.04316 16.8849 2.37261 16.9043C2.74342 16.9259 3.11613 16.9207 3.48808 16.9225C4.00021 16.9249 4.51241 16.9231 5.02462 16.9231V16.9141L6.739 16.9154L7.59617 16.9121C7.9445 16.9095 8.021 16.8255 8.0217 16.4881C8.02361 15.5239 8.02227 14.5597 8.02376 13.5956C8.0239 13.4964 8.02199 13.3947 8.04143 13.2982C8.14882 12.7666 8.74028 12.5095 9.22823 12.7831ZM23.3299 13.8888C22.7564 13.9722 22.4482 14.312 22.4372 14.8979C22.4302 15.2741 22.4301 15.6507 22.438 16.0269C22.4503 16.6153 22.8174 16.9878 23.4062 17.0087C23.7589 17.0213 24.1123 17.0143 24.4651 17.0243C24.5924 17.0279 24.6309 16.982 24.6292 16.8566C24.6231 16.4212 24.6268 15.9856 24.6269 15.5501V14.2276C24.6426 14.0753 24.5835 13.992 24.4265 13.9544C24.0635 13.8672 23.701 13.835 23.3299 13.8888ZM29.8372 14.1291C29.7551 14.8461 29.7633 15.5675 29.8295 16.2856C29.8605 16.6221 30.0715 16.8366 30.3885 16.9436C30.7426 17.0632 31.1098 17.0048 31.4713 17.0238C31.5971 17.0305 31.639 16.9858 31.637 16.8582C31.6303 16.4443 31.6344 16.0301 31.6344 15.6161L31.6323 14.4547C31.6323 14.4225 31.6302 14.3903 31.628 14.3581C31.5959 13.8647 31.3877 13.5921 30.9547 13.4763C30.4284 13.3357 29.8939 13.6346 29.8372 14.1291ZM32.8977 13.7358C32.7131 13.7359 32.7014 13.7538 32.7862 13.9138C32.9642 14.2495 33.0694 14.6069 33.1227 14.9825C33.2002 15.5294 33.1615 16.0791 33.1686 16.6276C33.1739 17.0315 33.1696 17.0315 33.5716 17.0096C34.1003 16.9806 34.4488 16.6281 34.4637 16.0992C34.4705 15.8625 34.4649 15.6255 34.4649 15.3887C34.4626 15.141 34.4708 14.893 34.4608 14.6458C34.444 14.2346 34.2262 13.947 33.8372 13.8175C33.5316 13.7156 33.2131 13.7355 32.8977 13.7358ZM35.9288 0.351032C35.9939 0.493967 36.0207 0.64742 36.0206 0.807129C36.0199 1.92907 36.0202 3.05101 36.0202 4.17302L36.0205 10.6773C36.0205 10.818 36.0166 10.9566 35.9771 11.0948C35.8954 11.3806 35.7086 11.554 35.4342 11.5795C35.0349 11.6166 34.7806 11.5004 34.6618 11.2143C34.604 11.0752 34.5806 10.9243 34.5806 10.7711L34.5802 1.88706L34.5802 1.76703L34.58 0.819638C34.58 0.682177 34.6024 0.547772 34.6426 0.420545C34.7022 0.230843 34.8259 0.0939498 35.0101 0.0434856C35.3846 -0.0590063 35.7738 0.0104351 35.9288 0.351032ZM3.98 10.1379C4.44068 10.1399 4.68111 10.3891 4.68271 10.8663C4.68436 11.3385 4.44961 11.5838 3.99409 11.5862C3.50317 11.5888 3.24475 11.3435 3.2419 10.8723C3.23899 10.4003 3.50483 10.1359 3.98 10.1379ZM5.76338 10.138C6.22837 10.1422 6.48846 10.4091 6.48368 10.8771C6.47884 11.3476 6.21961 11.5901 5.72577 11.5862C5.26695 11.5825 5.04029 11.3423 5.04294 10.8623C5.04566 10.3773 5.28791 10.1338 5.76338 10.138ZM32.1824 0.00673923C32.478 0.0282461 32.7013 0.235302 32.7443 0.52965C32.7627 0.656512 32.777 0.785342 32.7772 0.913259C32.7793 2.70852 32.7796 4.50384 32.7774 6.29917C32.777 6.57201 32.7615 6.84408 32.6962 7.112C32.5425 7.74259 32.1074 7.95182 31.6167 8.03525C30.8969 8.15775 30.1695 8.10961 29.4454 8.09323C29.1484 8.08649 28.8561 8.00151 28.597 7.84007C28.51 7.78588 28.4438 7.78328 28.3501 7.83726C27.9879 8.04586 27.5819 8.08944 27.1766 8.09822C27.0341 8.10131 26.3483 8.10355 25.355 8.10511L25.0891 8.10551C24.9528 8.10569 24.8116 8.10587 24.6661 8.10604L24.3034 8.10642L24.2103 8.10651L23.7308 8.10692L23.6324 8.107L23.1289 8.10733C23.0606 8.10737 22.9919 8.10741 22.9227 8.10745L21.8599 8.10789L21.7513 8.10793L18.3588 8.10795C18.2881 8.10793 18.2179 8.10791 18.148 8.10789L17.1313 8.10752C17.0659 8.10749 17.0011 8.10746 16.9369 8.10743L16.196 8.10701L16.1079 8.10695L15.524 8.10651L15.4455 8.10645L15.0732 8.1061C15.0259 8.10605 14.9796 8.106 14.9343 8.10596L14.6745 8.10565C14.6333 8.1056 14.5931 8.10555 14.5541 8.1055L14.3334 8.10518C14.2989 8.10512 14.2656 8.10507 14.2335 8.10501L14.0556 8.10467C14.0284 8.10462 14.0026 8.10456 13.978 8.1045L13.8467 8.10415C13.7701 8.10391 13.7156 8.10367 13.6854 8.10343C13.5388 8.10223 13.4915 8.14707 13.4917 8.29488C13.4923 8.7636 13.4367 9.22297 13.2272 9.65241C12.9331 10.2554 12.433 10.5856 11.8028 10.739C11.2214 10.8806 10.6276 10.872 10.0363 10.8486C9.52206 10.8283 9.26694 10.3257 9.5315 9.87809C9.62762 9.71545 9.78865 9.65796 9.96724 9.65424C10.2392 9.64847 10.5113 9.6491 10.7833 9.6503C10.9825 9.65121 11.1784 9.62528 11.3643 9.55717C11.8065 9.39524 11.9528 9.02527 11.9928 8.599C12.039 8.10708 12.0314 8.11003 11.5475 8.10539C11.0791 8.10082 10.6101 8.12971 10.1437 8.04186C9.19733 7.86362 8.50178 7.29312 8.35033 6.22277C8.26275 5.60378 8.26065 4.98234 8.35789 4.36546C8.48422 3.56387 8.95131 2.86609 9.95108 2.63177C11.0108 2.38345 12.0451 2.51207 13.059 2.87748C13.3692 2.9893 13.5025 3.20303 13.4991 3.53955C13.4887 4.58446 13.4956 5.62951 13.4961 6.67456C13.4961 6.77957 15.9788 6.83632 18.6614 6.86694L19.1769 6.87249C19.2343 6.87307 19.2917 6.87364 19.3492 6.8742L19.6937 6.87743C21.4722 6.89346 23.2108 6.89935 24.2545 6.90143L24.4752 6.90184L24.5266 6.90192L24.7596 6.90225C24.7879 6.90228 24.8151 6.90231 24.8412 6.90233L25.2385 6.90249C25.8087 6.90094 26.3789 6.90291 26.949 6.89335C27.3396 6.88688 27.4204 6.79727 27.4213 6.39813C27.4215 6.26339 27.4217 6.14177 27.4219 6.02953L27.4222 5.71718L27.4223 5.64524L27.4225 4.21167C27.4226 4.09922 27.4241 3.98656 27.4301 3.87424C27.4476 3.54925 27.6008 3.33285 27.9123 3.25286C28.309 3.15095 28.7395 3.23712 28.8771 3.66775C28.928 3.8268 28.9267 3.99548 28.9267 4.16163L28.9269 4.42238C28.927 4.46329 28.927 4.50302 28.927 4.54171L28.9274 6.42842C28.9276 6.76065 29.0161 6.87107 29.345 6.88316C29.8721 6.90242 30.4 6.92097 30.9273 6.88745C31.1234 6.87501 31.2059 6.80156 31.2365 6.60687C31.253 6.50166 31.255 6.39342 31.2551 6.28659C31.2565 5.3755 31.2558 4.46449 31.2559 3.5534C31.2559 2.66916 31.2548 1.78492 31.2571 0.900678C31.2575 0.740853 31.2509 0.579411 31.3077 0.424154C31.4057 0.155741 31.6087 0.0323928 31.8788 0.00624725C31.9791 -0.00345191 32.0816 -0.000640557 32.1824 0.00673923ZM26.279 9.05174C26.755 9.05075 27.0165 9.3074 27.0156 9.77455C27.0147 10.232 26.747 10.4997 26.2902 10.5C25.8258 10.5004 25.5754 10.2468 25.5748 9.77588C25.5742 9.28834 25.8034 9.05267 26.279 9.05174ZM28.1285 9.05176C28.5806 9.05395 28.8183 9.30553 28.8166 9.7804C28.815 10.2435 28.5638 10.5001 28.1122 10.5C27.6448 10.4999 27.3752 10.233 27.3758 9.77057C27.3764 9.29623 27.6349 9.04937 28.1285 9.05176ZM5.22222 2.54922C5.87653 2.59223 6.49359 2.75776 6.96672 3.26179C7.27183 3.58683 7.43119 3.98372 7.50083 4.41774C7.55125 4.7325 7.5761 5.05066 7.55899 5.30703C7.5635 5.90191 7.54005 6.42833 7.31972 6.92534C7.05629 7.51958 6.59048 7.8675 5.98483 8.04777C5.48804 8.19566 4.97823 8.2053 4.4687 8.16717C4.12591 8.14152 3.79319 8.04905 3.48188 7.89705C3.38576 7.85007 3.30337 7.85021 3.20613 7.8889C2.96242 7.98584 2.71624 8.07385 2.47929 8.18985C2.07651 8.38712 1.93363 8.73292 1.90223 9.14753C1.88505 9.37492 1.8623 9.60047 1.76541 9.80844C1.67753 9.99714 1.5274 10.108 1.31552 10.1284C0.627125 10.1949 0.315743 9.91466 0.365317 9.22165C0.443268 8.13358 1.0135 7.38693 1.9994 6.95624C2.26079 6.84201 2.2993 6.80311 2.29952 6.51074C2.30022 5.58686 2.30635 4.66284 2.29754 3.73904C2.29177 3.1319 2.38711 3.01052 2.9972 2.80999C3.7189 2.57274 4.46736 2.49962 5.22222 2.54922ZM3.9993 3.88628C3.86854 3.91505 3.82769 3.98946 3.82896 4.11616C3.83298 4.53182 3.83051 4.94756 3.83058 5.36323C3.83058 5.78974 3.83276 6.21624 3.8291 6.64268C3.82819 6.74954 3.86185 6.80864 3.96874 6.84308C4.36025 6.96907 4.7636 6.9972 5.16124 6.92967C5.76936 6.82649 5.9735 6.51804 6.01469 6.01791C6.05011 5.58906 6.04215 5.15355 6.01511 4.72343C5.99011 4.32526 5.80231 4.01327 5.39552 3.88685C4.93091 3.74258 4.46539 3.78361 3.9993 3.88628ZM10.7104 3.784C10.1465 3.8663 9.83475 4.205 9.82342 4.77366C9.816 5.14806 9.816 5.52289 9.82335 5.89729C9.83517 6.49674 10.1966 6.86833 10.7891 6.88934C11.1402 6.90178 11.492 6.89469 11.8433 6.90488C11.9717 6.9086 12.0067 6.8594 12.0051 6.73641C11.9993 6.29763 12.0029 5.85884 12.0029 5.41999V4.10358C12.0157 3.96428 11.9576 3.88781 11.8176 3.85295C11.4518 3.762 11.0853 3.72925 10.7104 3.784Z" fill="white"/>
<defs>
<linearGradient id="paint0_linear_73_2224" x1="46.0815" y1="195.665" x2="1725.2" y2="195.665" gradientUnits="userSpaceOnUse">
<stop stop-color="#0274A1"/>
<stop offset="0.41" stop-color="#0274A1"/>
<stop offset="1" stop-color="#0274A1"/>
</linearGradient>
<linearGradient id="paint1_linear_73_2224" x1="46.0815" y1="200.743" x2="1725.2" y2="200.743" gradientUnits="userSpaceOnUse">
<stop stop-color="#0274A1"/>
<stop offset="0.41" stop-color="#0274A1"/>
<stop offset="1" stop-color="#0274A1"/>
</linearGradient>
</defs>
</svg>
