<svg xmlns="http://www.w3.org/2000/svg" viewBox="0 0 178.7 187.25"><defs><style>.cls-1{fill:#0f2837;}.cls-2{fill:#ff9619;}.cls-3{fill:#91b9b4;}.cls-4{fill:#eb5a3c;}.cls-5{fill:#6e1946;}.cls-6{fill:#fff;}</style></defs><g id="Layer_2" data-name="Layer 2"><g id="Layer_1-2" data-name="Layer 1"><circle class="cls-1" cx="76.48" cy="110.77" r="76.48"/><path class="cls-2" d="M99.69.93a3.16,3.16,0,0,0-4.48,0L1.76,94.37A77.41,77.41,0,0,0,0,110l12.48,12.47a3.17,3.17,0,0,0,4.49,0l99.89-99.89a3.17,3.17,0,0,0,0-4.49Z"/><path class="cls-3" d="M103,47.65a3.18,3.18,0,0,0-4.48,0L5.91,140.29a75.83,75.83,0,0,0,7.68,14l95.79-95.78a3.19,3.19,0,0,0,0-4.49Z"/><path class="cls-4" d="M141,85.61a3.16,3.16,0,0,0-4.48,0L42.71,179.39a76.07,76.07,0,0,0,33.77,7.86c.58,0,1.15,0,1.72,0l80-79.95a3.17,3.17,0,0,0,0-4.49Z"/><path class="cls-5" d="M177.77,34.1,160.6,16.93a3.17,3.17,0,0,0-4.49,0l-12,12,21.66,21.66,12-12A3.17,3.17,0,0,0,177.77,34.1Z"/><rect class="cls-5" x="69.35" y="62.21" width="95.63" height="30.63" transform="translate(-20.5 105.56) rotate(-45)"/><path class="cls-5" d="M68.55,104.48,56.22,116.82a3.17,3.17,0,0,0,0,4.49l17.17,17.17a3.17,3.17,0,0,0,4.49,0l12.34-12.33Z"/><rect class="cls-1" x="133.19" y="92.09" width="3.06" height="33.4" transform="translate(-37.47 127.13) rotate(-45)"/><rect class="cls-1" x="130.57" y="95.84" width="3.06" height="33.4" transform="translate(-40.88 126.37) rotate(-45)"/><rect class="cls-6" x="93.87" y="5.66" width="3.06" height="33.4" transform="translate(12.14 74.01) rotate(-45)"/><rect class="cls-6" x="90.69" y="8.84" width="3.06" height="33.4" transform="translate(8.95 72.69) rotate(-45)"/></g></g></svg>