<svg xmlns="http://www.w3.org/2000/svg" viewBox="0 0 701.05 734.6"><defs><style>.cls-1,.cls-2,.cls-3,.cls-4{fill:none;stroke-miterlimit:10;}.cls-1{stroke:#eb5a3c;}.cls-2{stroke:#91b9b4;}.cls-3{stroke:#6e1946;}.cls-4{stroke:#ff9619;}</style></defs><g id="Layer_2" data-name="Layer 2"><g id="Layer_1-2" data-name="Layer 1"><path class="cls-1" d="M620.07,403.17l-67.29-67.28a12.41,12.41,0,0,0-17.57,0l-44.65,44.64,84.87,84.86,44.64-44.64A12.42,12.42,0,0,0,620.07,403.17Z"/><path class="cls-2" d="M404.1,187.2a12.44,12.44,0,0,0-17.58,0L23.61,550.12A298.82,298.82,0,0,0,53.69,604.9L429,229.63a12.43,12.43,0,0,0,0-17.57Z"/><path class="cls-3" d="M696.91,134.11,629.62,66.82a12.43,12.43,0,0,0-17.57,0l-47,47L650,198.65l47-47A12.44,12.44,0,0,0,696.91,134.11Z"/><rect class="cls-3" x="272.15" y="244.24" width="374.67" height="120.02" transform="translate(-80.56 414.02) rotate(-45)"/><path class="cls-3" d="M269,409.84,220.7,458.18a12.41,12.41,0,0,0,0,17.57L288,543a12.44,12.44,0,0,0,17.58,0l48.33-48.33Z"/><path class="cls-1" d="M469.61,401.48,167.77,703.32A298.33,298.33,0,0,0,300.09,734.1c2.25,0,4.5-.06,6.74-.11L554.48,486.35Z"/><path class="cls-4" d="M458.31,71.43,391,4.14a12.44,12.44,0,0,0-17.58,0L336.1,41.48,421,126.35,458.31,89A12.43,12.43,0,0,0,458.31,71.43Z"/><rect class="cls-4" x="365.24" y="34.38" width="5.63" height="120.01" transform="translate(41.06 287.9) rotate(-45)"/><path class="cls-4" d="M315.15,62.44,7.36,370.23A300.48,300.48,0,0,0,.5,431.48l48.88,48.87a12.42,12.42,0,0,0,17.58,0L400,147.3Z"/><rect class="cls-1" x="519.71" y="373.43" width="5.63" height="120.01" transform="translate(-153.44 496.43) rotate(-45)"/><path class="cls-1" d="M620.07,403.17l-67.29-67.28a12.41,12.41,0,0,0-17.57,0l-44.65,44.64,84.87,84.86,44.64-44.64A12.42,12.42,0,0,0,620.07,403.17Z"/></g></g></svg>