<svg xmlns="http://www.w3.org/2000/svg" viewBox="0 0 478.15 215.24"><defs><style>.cls-1{font-size:106.9px;}.cls-1,.cls-11,.cls-2{fill:#fff;}.cls-1,.cls-11{font-family:Gotham-Medium, Gotham Medium;font-weight:500;}.cls-3{fill:#ff9619;}.cls-4{fill:#91b9b4;}.cls-5{fill:#eb5a3c;}.cls-10,.cls-6,.cls-7,.cls-8,.cls-9{fill:none;stroke-miterlimit:10;}.cls-6{stroke:#fff;}.cls-7{stroke:#6e1946;}.cls-8{stroke:#eb5a3c;}.cls-9{stroke:#ff9619;}.cls-10{stroke:#91b9b4;}.cls-11{font-size:10.45px;}.cls-12{fill:#6e1946;}.cls-13{fill:#383838;}</style></defs><g id="Layer_2" data-name="Layer 2"><g id="Layer_1-2" data-name="Layer 1"><text class="cls-1" transform="translate(175.83 170.73)">OSUS</text><circle class="cls-2" cx="76.48" cy="138.75" r="76.48"/><path class="cls-3" d="M99.69,28.92a3.16,3.16,0,0,0-4.48,0L1.76,122.36A77.31,77.31,0,0,0,0,138l12.48,12.48a3.17,3.17,0,0,0,4.49,0l99.89-99.89a3.17,3.17,0,0,0,0-4.49Z"/><path class="cls-4" d="M103,75.64a3.16,3.16,0,0,0-4.48,0L5.91,168.27a76.24,76.24,0,0,0,7.68,14l95.79-95.79a3.18,3.18,0,0,0,0-4.48Z"/><path class="cls-5" d="M141,113.59a3.16,3.16,0,0,0-4.48,0L42.71,207.38a76.21,76.21,0,0,0,33.77,7.86c.58,0,1.15,0,1.72,0l80-80a3.16,3.16,0,0,0,0-4.48Z"/><rect class="cls-6" x="208.69" y="22.8" width="31.47" height="31.47" transform="translate(92.98 -147.41) rotate(45)"/><rect class="cls-6" x="213.03" y="27.14" width="22.79" height="22.79" transform="translate(92.98 -147.41) rotate(45)"/><rect class="cls-6" x="217.75" y="31.86" width="13.35" height="13.35" transform="translate(92.98 -147.41) rotate(45)"/><circle class="cls-7" cx="224.8" cy="17.21" r="16.71"/><circle class="cls-8" cx="224.8" cy="61.85" r="16.71"/><circle class="cls-9" cx="202.47" cy="39.53" r="16.71"/><circle class="cls-10" cx="247.12" cy="39.53" r="16.71"/><text class="cls-11" transform="translate(279.41 197.15)">COMMUNITY SERVICES</text><line class="cls-6" x1="182.02" y1="192.95" x2="250.15" y2="192.95"/><line class="cls-6" x1="410.02" y1="192.95" x2="478.15" y2="192.95"/><path class="cls-12" d="M177.77,62.09,160.6,44.92a3.17,3.17,0,0,0-4.49,0l-12,12,21.66,21.66,12-12A3.17,3.17,0,0,0,177.77,62.09Z"/><rect class="cls-12" x="69.35" y="90.2" width="95.63" height="30.63" transform="translate(-40.29 113.76) rotate(-45)"/><path class="cls-12" d="M68.55,132.47,56.22,144.81a3.16,3.16,0,0,0,0,4.48l17.17,17.18a3.17,3.17,0,0,0,4.49,0l12.34-12.34Z"/><rect class="cls-2" x="133.19" y="120.08" width="3.06" height="33.4" transform="translate(-57.26 135.32) rotate(-45)"/><rect class="cls-2" x="130.57" y="123.82" width="3.06" height="33.4" transform="translate(-60.67 134.57) rotate(-45)"/><rect class="cls-13" x="93.87" y="33.64" width="3.06" height="33.4" transform="translate(-7.65 82.21) rotate(-45)"/><rect class="cls-13" x="90.69" y="36.83" width="3.06" height="33.4" transform="translate(-10.84 80.89) rotate(-45)"/></g></g></svg>