 <svg version="1.0" xmlns="http://www.w3.org/2000/svg" viewBox="0 0 900.000000 1011.000000"><g transform="translate(0.000000,1011.000000) scale(0.100000,-0.100000)" stroke="none"> <path d="M4375 10075 c-60 -6 -128 -17 -150 -25 -107 -35 -206 -77 -264 -112 -35 -22 -74 -44 -85 -49 -12 -5 -34 -18 -51 -29 -16 -11 -37 -23 -45 -27 -8 -4 -44 -24 -79 -46 -35 -21 -74 -43 -85 -48 -12 -5 -34 -18 -51 -29 -16 -11 -37 -23 -45 -27 -8 -4 -70 -40 -138 -80 -68 -40 -125 -73 -127 -73 -2 0 -47 -26 -102 -58 -54 -32 -105 -62 -113 -66 -8 -4 -24 -12 -35 -19 -11 -7 -63 -37 -115 -67 -52 -30 -103 -59 -112 -65 -10 -5 -68 -39 -130 -75 -61 -36 -132 -77 -157 -92 -25 -15 -53 -31 -61 -35 -8 -4 -46 -26 -85 -48 -38 -23 -77 -44 -85 -48 -8 -4 -28 -16 -45 -27 -16 -11 -37 -23 -45 -27 -8 -4 -70 -40 -138 -80 -68 -40 -125 -73 -127 -73 -3 0 -198 -113 -225 -130 -8 -6 -22 -13 -30 -17 -16 -7 -205 -117 -230 -133 -8 -6 -22 -13 -30 -17 -8 -4 -70 -40 -138 -80 -68 -40 -125 -73 -127 -73 -3 0 -46 -25 -97 -56 -50 -31 -101 -60 -113 -65 -11 -5 -33 -18 -50 -29 -16 -11 -37 -23 -45 -27 -8 -4 -60 -34 -115 -66 -55 -33 -125 -73 -155 -89 -111 -62 -167 -104 -255 -192 -155 -155 -241 -314 -284 -524 -16 -79 -15 -4354 1 -4419 43 -179 91 -285 182 -406 95 -127 207 -222 356 -305 30 -16 100 -56 155 -89 55 -32 107 -62 115 -66 8 -4 29 -16 45 -26 17 -11 53 -32 80 -47 83 -45 88 -48 132 -77 24 -15 45 -27 47 -27 2 0 53 -28 113 -63 59 -35 167 -98 238 -139 72 -42 146 -85 165 -97 19 -11 42 -24 50 -28 8 -4 59 -33 113 -65 55 -32 101 -58 104 -58 3 0 25 -13 50 -30 24 -16 47 -30 50 -30 3 0 38 -19 77 -43 39 -24 78 -46 86 -50 8 -4 29 -16 45 -27 17 -11 37 -23 45 -27 8 -4 59 -33 113 -65 55 -32 100 -58 102 -58 2 0 60 -34 130 -75 69 -41 127 -75 130 -75 2 0 61 -34 130 -75 70 -41 129 -75 130 -75 2 0 61 -34 130 -75 70 -41 129 -75 131 -75 3 0 185 -106 224 -130 8 -6 35 -21 60 -35 25 -14 52 -30 60 -35 16 -10 84 -49 171 -98 30 -17 105 -60 168 -96 162 -93 293 -139 436 -153 99 -9 99 -9 215 0 142 11 307 65 429 139 35 22 74 44 85 49 12 5 35 18 51 29 17 11 37 23 45 27 8 4 44 24 79 46 35 21 74 43 85 48 12 5 28 13 36 19 26 17 321 190 325 190 2 0 47 26 102 58 54 32 105 62 113 66 8 4 24 12 35 19 11 7 63 37 115 67 52 30 103 60 112 65 10 6 68 39 130 75 61 36 132 77 157 92 25 15 53 31 61 35 8 4 47 26 85 48 39 23 77 44 85 48 8 4 29 16 45 27 17 11 37 23 45 27 8 4 70 40 138 80 68 40 125 73 127 73 3 0 197 112 225 130 8 6 22 13 30 17 8 4 58 32 110 63 52 31 102 59 110 63 8 4 22 11 30 17 27 18 271 160 275 160 3 0 46 25 97 56 50 31 101 60 113 65 11 5 34 18 50 29 17 11 37 23 45 27 8 4 60 34 115 66 55 33 125 73 155 89 150 83 304 219 383 340 74 112 138 262 151 360 5 32 12 48 22 48 21 0 21 4345 0 4353 -8 3 -18 23 -21 44 -49 280 -249 543 -535 701 -30 16 -100 56 -155 89 -55 32 -107 62 -115 66 -8 4 -28 16 -45 26 -16 11 -52 32 -80 47 -83 45 -88 48 -132 77 -24 15 -45 27 -47 27 -2 0 -53 28 -113 63 -59 35 -173 101 -253 148 -79 46 -154 89 -165 96 -11 7 -27 15 -35 19 -8 4 -59 34 -113 66 -55 32 -101 58 -104 58 -3 0 -25 14 -50 30 -24 17 -47 30 -50 30 -3 0 -38 19 -77 43 -39 24 -78 46 -86 50 -8 4 -28 16 -45 27 -16 11 -37 23 -45 27 -8 4 -59 33 -113 65 -55 32 -100 58 -102 58 -2 0 -60 34 -130 75 -69 41 -127 75 -130 75 -2 0 -61 34 -130 75 -70 41 -129 75 -130 75 -2 0 -61 34 -130 75 -70 41 -129 75 -131 75 -3 0 -185 106 -224 130 -8 6 -35 21 -60 35 -25 14 -52 30 -60 35 -16 10 -84 49 -171 98 -30 17 -105 60 -168 96 -158 91 -293 139 -426 151 -38 4 -83 8 -100 10 -16 1 -79 -3 -140 -10z"/> </g> </svg>